<?xml version="1.0" standalone="no"?>
<!DOCTYPE svg PUBLIC "-//W3C//DTD SVG 20010904//EN"
 "http://www.w3.org/TR/2001/REC-SVG-20010904/DTD/svg10.dtd">
<svg version="1.0" xmlns="http://www.w3.org/2000/svg"
 width="300.000000pt" height="300.000000pt" viewBox="0 0 300.000000 300.000000"
 preserveAspectRatio="xMidYMid meet">
<metadata>
Created by potrace 1.11, written by Peter Selinger 2001-2013
</metadata>
<g transform="translate(0.000000,300.000000) scale(0.100000,-0.100000)"
fill="#000000" stroke="none">
<path d="M444 2683 c-22 -7 -56 -28 -74 -46 -89 -86 -86 -214 9 -337 43 -57
151 -265 151 -291 0 -8 5 -20 12 -27 7 -7 9 -12 5 -12 -3 0 0 -18 8 -40 8 -22
14 -43 14 -45 0 -6 17 -95 27 -140 4 -16 8 -121 9 -231 2 -176 0 -217 -21
-320 -38 -198 -100 -351 -197 -488 -60 -84 -78 -125 -81 -185 -7 -113 81 -217
191 -224 61 -5 131 21 212 78 79 55 215 128 238 128 7 0 13 4 13 9 0 4 3 7 8
6 4 -1 39 8 78 20 420 129 934 64 1244 -157 81 -58 102 -68 148 -78 190 -38
320 133 238 314 -15 31 -30 60 -35 63 -15 10 -88 127 -115 185 -41 88 -78 196
-92 270 -2 11 -8 42 -14 69 -16 79 -22 162 -22 296 0 178 15 296 54 425 15 50
13 45 23 80 15 56 94 210 138 271 65 88 81 123 90 199 5 39 -18 107 -48 142
-89 104 -210 104 -356 1 -83 -59 -174 -107 -284 -148 -34 -13 -33 -13 -143
-40 -128 -31 -173 -35 -377 -34 -212 1 -292 11 -440 56 -118 36 -219 83 -322
150 -54 35 -112 70 -130 77 -46 19 -111 21 -159 4z"/>
</g>
</svg>
