<?xml version="1.0" standalone="no"?>
<!DOCTYPE svg PUBLIC "-//W3C//DTD SVG 20010904//EN"
 "http://www.w3.org/TR/2001/REC-SVG-20010904/DTD/svg10.dtd">
<svg version="1.0" xmlns="http://www.w3.org/2000/svg"
 width="300.000000pt" height="300.000000pt" viewBox="0 0 300.000000 300.000000"
 preserveAspectRatio="xMidYMid meet">
<metadata>
Created by potrace 1.11, written by Peter Selinger 2001-2013
</metadata>
<g transform="translate(0.000000,300.000000) scale(0.100000,-0.100000)"
fill="#000000" stroke="none">
<path d="M1484 2116 c-6 -6 -120 -119 -255 -250 -134 -132 -213 -213 -174
-180 38 32 77 66 85 74 19 18 174 158 204 183 26 23 92 82 128 115 l27 25 98
-79 c54 -43 100 -81 103 -84 11 -12 210 -170 214 -170 11 0 116 144 109 150
-6 6 -253 112 -498 215 -23 10 -33 10 -41 1z"/>
<path d="M962 2105 c-39 -17 -35 -40 4 -25 14 6 26 10 27 10 2 0 3 -31 3 -70
0 -66 -2 -70 -21 -64 -26 8 -24 6 -28 35 -4 26 -17 30 -169 43 -66 6 -79 5
-95 -11 -11 -10 -71 -65 -134 -123 -217 -200 -239 -225 -79 -93 154 128 225
183 235 183 6 0 31 -19 56 -43 46 -43 174 -157 232 -208 l32 -28 79 77 c157
155 187 185 183 188 -1 2 -21 5 -42 8 -22 2 -69 8 -105 12 -36 4 -69 7 -74 5
-5 -1 -6 21 -4 49 3 33 1 53 -6 55 -40 12 -65 12 -94 0z"/>
<path d="M1480 2021 c-9 -9 -51 -47 -95 -86 -44 -38 -109 -97 -145 -129 -91
-83 -135 -121 -220 -196 -41 -36 -76 -68 -78 -72 -2 -5 -10 -8 -17 -8 -8 0
-16 -3 -18 -7 -5 -7 18 -8 121 -4 14 1 22 7 22 19 0 10 21 37 48 59 26 23 58
51 72 63 14 11 36 31 50 42 50 43 235 203 250 218 9 8 30 26 48 40 17 14 32
28 32 32 0 4 -12 15 -27 26 -26 17 -29 17 -43 3z"/>
<path d="M674 1937 c-16 -12 -36 -29 -45 -37 -8 -8 -27 -24 -41 -35 -125 -98
-237 -191 -237 -197 -2 -17 40 -7 57 13 9 11 69 62 132 112 148 119 185 153
172 161 -5 3 -23 -4 -38 -17z"/>
<path d="M2289 1936 c-2 -2 -29 -7 -59 -10 -30 -3 -65 -8 -77 -10 -11 -3 -41
-8 -65 -11 -40 -7 -48 -14 -103 -88 l-59 -80 39 -33 c22 -19 45 -34 50 -34 6
1 73 52 150 114 l139 114 81 -66 c44 -37 85 -71 91 -77 152 -137 145 -123 -16
33 -150 146 -162 157 -171 148z"/>
<path d="M2291 1848 c0 -7 53 -57 117 -110 158 -132 184 -156 177 -168 -3 -5
0 -10 7 -11 7 0 23 -2 36 -3 13 -2 25 1 28 6 3 4 2 8 -3 8 -4 0 -21 12 -38 28
-16 15 -59 52 -95 82 -97 83 -119 102 -164 142 -42 38 -66 48 -65 26z"/>
<path d="M1465 1795 l-50 -44 53 2 c28 1 52 4 53 7 3 27 3 80 -1 80 -3 -1 -27
-21 -55 -45z"/>
<path d="M1568 1835 c-2 -2 -2 -21 0 -42 4 -38 4 -39 48 -40 24 -1 44 2 44 6
0 9 -86 81 -92 76z"/>
<path d="M639 1781 c-40 -40 -37 -51 15 -51 37 0 44 3 48 23 11 61 -17 74 -63
28z"/>
<path d="M722 1771 c1 -38 2 -39 40 -43 22 -2 41 0 44 3 8 14 -19 57 -43 68
-38 17 -43 14 -41 -28z"/>
<path d="M1400 1733 c-8 -3 -36 -25 -61 -49 l-47 -43 57 2 56 2 -3 36 c-2 21
2 40 8 44 7 4 9 -2 6 -21 -9 -46 8 -63 59 -61 l45 1 0 48 0 48 -52 -1 c-29 0
-60 -3 -68 -6z"/>
<path d="M1572 1693 l3 -47 49 0 49 -1 2 48 3 47 -54 0 -55 0 3 -47z"/>
<path d="M1690 1686 l0 -45 51 1 c27 0 49 3 47 7 -4 10 -84 81 -92 81 -3 0 -6
-20 -6 -44z"/>
<path d="M548 1668 c-13 -7 -10 -9 22 -12 10 -1 15 -12 15 -38 0 -21 5 -38 10
-38 10 0 12 9 14 58 1 16 7 22 23 22 12 0 18 3 15 7 -10 10 -84 11 -99 1z"/>
<path d="M667 1673 c-2 -5 -5 -29 -6 -55 -1 -38 1 -47 12 -42 8 3 14 13 13 22
-2 29 44 23 57 -7 11 -25 11 -25 15 18 4 54 -7 89 -17 51 -5 -18 -14 -25 -34
-27 -24 -2 -27 1 -23 23 4 22 -8 34 -17 17z"/>
<path d="M784 1625 l3 -50 41 -1 c24 0 42 4 42 10 0 6 -13 11 -30 11 -16 0
-30 5 -30 10 0 6 8 10 17 10 9 0 18 5 20 12 3 7 -3 9 -16 6 -15 -4 -21 -1 -21
11 0 11 9 16 30 16 17 0 30 4 30 8 0 4 -20 8 -44 8 l-44 0 2 -51z"/>
<path d="M2284 1670 c-25 -10 -64 -57 -64 -77 0 -10 12 -13 50 -12 43 2 50 6
51 23 1 12 2 33 3 49 3 28 -5 32 -40 17z"/>
<path d="M2342 1633 l3 -48 52 -3 52 -3 -11 31 c-10 31 -59 70 -86 70 -9 0
-12 -14 -10 -47z"/>
<path d="M785 1519 c-3 -4 2 -6 10 -5 21 3 28 13 10 13 -9 0 -18 -4 -20 -8z"/>
<path d="M234 1486 c-37 -16 -63 -50 -59 -74 2 -9 4 -22 4 -27 2 -19 59 -45
99 -45 86 0 127 -46 54 -61 -36 -7 -122 8 -122 22 0 18 -17 8 -28 -16 -7 -14
-12 -27 -12 -29 0 -1 24 -9 54 -16 96 -23 189 2 202 54 14 58 -20 86 -113 94
-71 5 -96 23 -71 49 24 23 92 21 127 -4 l28 -22 10 22 c11 23 15 38 11 36 -2
0 -16 4 -31 10 -49 19 -120 22 -153 7z"/>
<path d="M1655 1490 c-66 -3 -115 -8 -109 -12 6 -4 10 -52 9 -126 l-1 -119 30
1 30 2 -3 58 -3 59 60 -5 c57 -4 59 -3 57 21 -1 24 -3 25 -59 22 l-57 -3 3 29
c3 28 4 28 78 29 41 1 78 -3 81 -8 10 -16 16 4 10 32 l-6 25 -120 -5z"/>
<path d="M535 1435 c-22 -8 -41 -15 -42 -15 -1 0 -9 -13 -18 -30 -48 -93 32
-179 147 -156 18 4 41 13 52 21 17 13 17 15 2 37 -9 12 -16 17 -16 10 0 -19
-55 -42 -86 -36 -60 11 -90 82 -50 122 20 21 117 24 124 5 6 -20 18 -15 30 11
11 26 12 25 -83 41 -11 2 -38 -3 -60 -10z"/>
<path d="M791 1436 c-92 -33 -100 -151 -13 -192 82 -39 182 11 182 92 0 43
-12 66 -44 88 -35 22 -84 27 -125 12z m101 -39 c42 -33 30 -106 -21 -126 -79
-33 -146 55 -89 116 24 26 82 31 110 10z"/>
<path d="M984 1418 c0 -19 5 -24 16 -19 8 3 22 6 30 5 8 -1 20 -2 27 -3 8 -1
11 -26 9 -84 -2 -82 -2 -82 23 -82 l26 -1 -4 79 c-4 87 1 96 50 91 24 -3 29 0
29 19 0 21 -3 22 -104 22 l-103 0 1 -27z"/>
<path d="M1210 1424 c0 -15 6 -21 23 -21 61 -1 58 4 56 -85 -2 -80 -2 -82 22
-83 24 -2 24 0 24 84 l0 86 40 -2 c35 -2 40 1 41 20 2 21 -2 22 -102 22 -99 0
-104 -1 -104 -21z"/>
<path d="M2545 1443 l-90 -4 3 -102 3 -102 90 0 c83 0 89 1 89 20 0 18 -5 20
-64 17 -50 -3 -64 0 -69 12 -13 32 2 44 44 36 21 -4 39 -7 40 -6 0 0 2 11 3
23 2 20 -1 22 -40 18 -32 -4 -43 -1 -48 11 -11 29 11 40 74 38 58 -2 60 -2 60
22 0 13 -1 23 -2 22 -2 -1 -43 -4 -93 -5z"/>
<path d="M1817 1359 c2 -44 8 -89 13 -99 12 -23 66 -35 123 -27 59 8 72 32 72
129 0 77 0 78 -25 78 -25 0 -25 -1 -22 -74 4 -83 -9 -106 -58 -106 -47 0 -57
19 -56 104 1 75 1 76 -25 76 l-25 0 3 -81z"/>
<path d="M2073 1338 l-1 -103 79 0 c72 0 79 2 79 20 0 18 -5 20 -55 17 -62 -4
-57 -14 -56 106 0 58 -1 62 -23 62 -22 0 -22 -3 -23 -102z"/>
<path d="M2265 1337 l0 -102 83 0 c77 0 83 1 80 19 -3 18 -10 20 -60 17 l-57
-2 2 85 c2 86 2 86 -23 86 l-25 0 0 -103z"/>
<path d="M2675 1340 c0 -55 2 -100 5 -101 3 0 15 -2 27 -5 21 -4 23 -1 19 36
-3 29 0 40 10 41 8 1 20 2 27 3 15 3 56 -44 57 -65 0 -11 9 -15 33 -13 17 1
33 3 35 3 2 1 -11 16 -27 34 -17 17 -31 35 -31 38 0 4 12 14 26 23 20 14 25
24 22 49 -4 43 -35 57 -128 57 l-75 0 0 -100z m153 56 c17 -10 15 -33 -4 -40
-9 -3 -35 -6 -59 -6 -38 0 -43 2 -40 20 2 11 6 24 9 29 6 9 77 8 94 -3z"/>
<path d="M1077 1139 c4 -13 13 -16 34 -12 l29 4 0 -65 c0 -51 3 -66 15 -66 10
0 15 16 17 63 3 60 4 62 31 62 18 -1 27 4 27 15 0 12 -15 15 -78 15 -69 0 -78
-2 -75 -16z"/>
<path d="M1290 1078 l0 -77 67 2 c43 1 68 6 71 15 3 9 -12 12 -53 12 -48 0
-56 2 -53 18 2 12 13 17 36 17 42 0 42 23 0 27 -21 2 -33 8 -33 18 0 11 12 15
51 15 40 0 51 3 49 15 -1 11 -18 14 -68 15 l-67 0 0 -77z"/>
<path d="M1566 1129 c-3 -15 -16 -50 -30 -78 l-24 -51 24 0 c13 0 23 3 23 8
-4 23 5 29 42 29 32 0 43 -4 47 -19 2 -10 13 -18 23 -18 20 0 24 10 10 26 -11
12 -47 107 -43 117 2 7 2 8 -40 11 -21 1 -27 -3 -32 -25z m60 -66 c-2 -2 -15
-3 -29 -1 -25 3 -25 3 -10 38 l15 35 15 -34 c8 -18 12 -35 9 -38z"/>
<path d="M1789 1156 c-1 -1 -2 -36 -3 -78 -1 -66 1 -78 15 -78 13 0 15 9 13
50 -3 58 7 57 37 -2 l21 -41 29 46 c16 26 31 47 33 47 2 0 3 -22 2 -50 -3 -41
0 -50 13 -50 15 0 17 12 18 75 1 41 -2 75 -5 76 -4 0 -14 2 -22 4 -10 2 -22
-13 -34 -41 -10 -24 -22 -44 -26 -44 -4 0 -20 20 -33 43 -21 35 -45 52 -58 43z"/>
<path d="M164 1079 c-6 -10 -35 -10 431 -10 201 0 376 0 390 1 14 0 25 4 25 9
0 11 -839 11 -846 0z"/>
<path d="M2040 1079 c0 -5 24 -9 53 -9 440 -4 782 0 785 8 2 6 -148 10 -418
10 -231 -1 -420 -5 -420 -9z"/>
<path d="M220 922 c0 -5 7 -17 15 -28 8 -10 15 -29 15 -41 0 -36 13 -27 37 24
24 53 21 70 -6 34 l-19 -24 -11 21 c-11 21 -31 30 -31 14z"/>
<path d="M786 923 c-10 -11 -7 -93 4 -93 6 0 10 9 10 20 0 27 25 25 44 -2 9
-12 19 -19 22 -15 4 4 1 13 -5 21 -8 10 -9 16 -1 21 14 9 13 45 -2 46 -7 1
-25 3 -40 4 -14 2 -29 1 -32 -2z m64 -28 c0 -10 -8 -14 -22 -12 -32 5 -35 27
-4 27 16 0 26 -6 26 -15z"/>
<path d="M1170 881 c0 -28 4 -51 9 -51 4 0 8 20 8 45 0 25 -4 48 -8 51 -5 3
-9 -18 -9 -45z"/>
<path d="M1322 920 c-7 -4 -8 -42 -3 -80 0 -5 19 -10 41 -10 22 0 40 5 40 10
0 6 -16 10 -35 10 -19 0 -35 5 -35 10 0 6 12 10 26 10 14 0 23 4 19 10 -3 6
-15 10 -26 10 -10 0 -19 5 -19 10 0 6 16 10 35 10 19 0 35 4 35 9 0 9 -65 10
-78 1z"/>
<path d="M2084 922 c-5 -4 -10 -26 -10 -49 l0 -43 43 0 c24 0 43 5 43 10 0 6
-6 10 -12 9 -30 -4 -58 2 -58 11 0 6 12 10 26 10 14 0 23 4 19 10 -3 6 -15 10
-26 10 -10 0 -19 5 -19 10 0 6 16 10 35 10 19 0 35 5 35 10 0 11 -60 13 -76 2z"/>
<path d="M2685 908 c-13 -32 -1 -73 23 -76 12 -2 22 1 22 7 0 6 -7 11 -15 11
-8 0 -15 9 -15 21 0 11 4 18 9 14 5 -3 12 -1 16 5 3 5 0 10 -9 10 -8 0 -16 6
-19 13 -3 8 -7 7 -12 -5z"/>
<path d="M1562 873 c2 -31 7 -39 26 -41 12 -2 22 1 22 7 0 6 -3 10 -7 10 -23
-4 -31 3 -26 21 3 11 9 17 14 14 5 -3 9 -1 9 4 0 9 -22 22 -36 22 -3 0 -4 -17
-2 -37z"/>
<path d="M1782 873 c2 -31 7 -39 27 -41 15 -2 21 0 16 7 -3 6 -11 9 -16 6 -5
-4 -9 6 -9 20 0 15 4 24 10 20 6 -3 10 -2 10 3 0 9 -22 22 -36 22 -3 0 -4 -17
-2 -37z"/>
<path d="M361 882 c-13 -25 5 -52 34 -52 13 0 28 8 34 17 13 25 -5 53 -34 53
-13 0 -29 -8 -34 -18z m48 -28 c-9 -11 -15 -12 -25 -3 -11 9 -12 15 -3 25 9
11 15 12 25 3 11 -9 12 -15 3 -25z"/>
<path d="M482 868 c3 -29 7 -33 36 -36 31 -3 32 -2 32 32 0 20 -4 36 -10 36
-5 0 -10 -11 -10 -24 0 -13 -7 -26 -15 -30 -11 -4 -15 2 -15 24 0 17 -5 30
-11 30 -6 0 -9 -14 -7 -32z"/>
<path d="M600 865 c0 -19 5 -35 10 -35 6 0 10 11 10 25 0 19 5 25 21 25 11 0
17 5 14 10 -3 6 -17 10 -31 10 -21 0 -24 -5 -24 -35z"/>
<path d="M929 884 c-9 -11 -10 -20 -2 -32 11 -18 63 -29 63 -14 0 6 -8 8 -19
5 -10 -3 -22 0 -25 6 -5 7 2 11 17 11 30 0 40 10 26 27 -15 18 -44 17 -60 -3z
m46 -4 c3 -5 -3 -10 -15 -10 -12 0 -18 5 -15 10 3 6 10 10 15 10 5 0 12 -4 15
-10z"/>
<path d="M1049 883 c-19 -22 2 -48 40 -49 28 -1 31 2 31 31 0 28 -3 32 -29 33
-16 0 -35 -6 -42 -15z m51 -18 c0 -19 -13 -25 -29 -15 -19 11 -6 41 14 34 8
-3 15 -12 15 -19z"/>
<path d="M1453 894 c-18 -8 -4 -34 18 -34 10 0 19 -5 19 -11 0 -7 -10 -9 -27
-4 -21 5 -25 4 -17 -5 17 -17 58 -8 62 13 2 11 -3 17 -17 17 -11 0 -23 5 -27
11 -5 9 1 10 20 5 18 -4 25 -3 21 4 -6 10 -31 12 -52 4z"/>
<path d="M1659 884 c-19 -23 1 -49 37 -49 25 0 29 4 32 33 3 30 1 32 -26 32
-16 0 -35 -7 -43 -16z m51 -19 c0 -16 -27 -27 -36 -14 -3 5 -3 16 0 24 6 17
36 9 36 -10z"/>
<path d="M1879 884 c-9 -11 -10 -20 -2 -32 11 -18 63 -29 63 -14 0 6 -8 8 -19
5 -10 -3 -22 0 -25 6 -5 7 4 11 23 11 33 0 39 8 19 28 -17 17 -43 15 -59 -4z
m46 -4 c3 -5 -3 -10 -15 -10 -12 0 -18 5 -15 10 3 6 10 10 15 10 5 0 12 -4 15
-10z"/>
<path d="M2210 891 c0 -6 5 -13 10 -16 8 -5 7 -11 -1 -21 -6 -8 -9 -18 -5 -21
4 -4 12 -1 17 7 8 11 12 12 16 3 2 -7 12 -13 20 -13 14 0 14 2 0 18 -15 17
-15 19 0 35 16 16 16 17 0 17 -9 0 -17 -5 -17 -12 0 -9 -3 -9 -12 0 -14 14
-28 16 -28 3z"/>
<path d="M2330 850 c0 -27 5 -50 10 -50 6 0 10 7 10 15 0 8 9 15 20 15 10 0
24 9 30 21 15 27 -3 49 -41 49 -28 0 -29 -2 -29 -50z m60 14 c0 -8 -9 -14 -20
-14 -19 0 -27 19 -14 33 10 9 34 -4 34 -19z"/>
<path d="M2463 893 c-16 -6 -17 -35 -1 -51 14 -14 58 -16 58 -3 0 5 -8 7 -19
4 -10 -3 -22 0 -25 6 -5 7 4 11 23 11 33 0 39 8 19 28 -12 12 -33 14 -55 5z
m37 -13 c0 -5 -7 -10 -16 -10 -8 0 -12 5 -9 10 3 6 10 10 16 10 5 0 9 -4 9
-10z"/>
<path d="M2576 871 c1 -14 3 -29 3 -33 1 -5 6 -8 11 -8 6 0 9 3 9 8 -4 24 3
42 16 42 8 0 15 4 15 9 0 5 -12 9 -28 9 -23 -1 -27 -5 -26 -27z"/>
<path d="M2775 890 c-9 -15 4 -30 26 -30 10 0 19 -5 19 -10 0 -6 -11 -8 -26
-4 -19 5 -25 4 -20 -5 10 -16 51 -14 66 4 10 12 8 16 -11 24 -13 5 -28 6 -33
3 -5 -3 -6 0 -2 7 4 6 16 9 27 6 11 -4 19 -2 19 4 0 14 -57 14 -65 1z"/>
</g>
</svg>
