<?xml version="1.0" standalone="no"?>
<!DOCTYPE svg PUBLIC "-//W3C//DTD SVG 20010904//EN"
 "http://www.w3.org/TR/2001/REC-SVG-20010904/DTD/svg10.dtd">
<svg version="1.0" xmlns="http://www.w3.org/2000/svg"
 width="300.000000pt" height="300.000000pt" viewBox="0 0 300.000000 300.000000"
 preserveAspectRatio="xMidYMid meet">
<metadata>
Created by potrace 1.11, written by Peter Selinger 2001-2013
</metadata>
<g transform="translate(0.000000,300.000000) scale(0.100000,-0.100000)"
fill="#000000" stroke="none">
<path d="M1775 2910 c-11 -4 -112 -9 -225 -10 -719 -7 -997 -10 -1250 -14
-157 -3 -289 -5 -293 -6 -5 0 -7 -10 -5 -22 3 -22 7 -22 120 -23 65 0 118 2
118 5 0 3 135 6 300 7 l300 2 -26 -67 c-215 -566 -443 -1183 -448 -1209 -1 -7
-5 -16 -9 -19 -4 -4 -7 -16 -7 -26 0 -15 6 -19 28 -16 24 3 31 13 66 103 21
55 44 114 51 130 78 187 75 180 118 275 18 41 44 100 58 130 93 211 304 612
353 673 l22 27 290 2 c281 1 382 -3 404 -17 21 -13 60 5 75 35 23 45 8 60 -40
40z"/>
<path d="M1188 2570 l-31 -26 10 -62 c8 -50 6 -74 -7 -124 -13 -48 -187 -474
-250 -613 -66 -144 -290 -759 -306 -840 -2 -11 -9 -32 -15 -47 -14 -34 -6 -58
20 -58 26 0 34 13 47 80 7 30 14 64 18 75 5 21 90 235 106 270 5 11 30 72 56
135 50 125 61 151 93 222 12 26 21 50 21 53 0 3 9 27 21 53 12 26 27 61 35 77
7 17 38 89 69 160 48 110 135 278 155 295 3 3 11 16 18 30 29 56 124 180 133
175 5 -4 7 -10 5 -14 -3 -4 -8 -30 -12 -57 -3 -27 -8 -56 -9 -64 -74 -343 -98
-506 -97 -656 0 -100 17 -155 52 -174 68 -37 127 31 350 404 133 222 223 336
240 305 12 -20 -9 -81 -170 -509 -34 -91 -63 -169 -64 -175 -2 -5 -8 -28 -14
-50 -16 -59 -20 -108 -10 -127 20 -41 62 -7 64 51 4 79 79 250 191 431 29 47
57 90 63 97 5 7 10 15 10 19 0 3 8 18 19 32 19 28 124 229 128 247 1 6 9 28
17 50 20 53 20 119 0 139 -8 9 -29 16 -45 16 -97 0 -227 -140 -451 -486 -62
-95 -117 -181 -123 -191 -16 -29 -83 -126 -105 -152 -24 -27 -50 -22 -51 11
-1 41 2 149 6 166 1 9 6 46 10 82 4 36 9 74 11 85 2 11 6 40 9 65 3 25 7 52
10 60 2 8 7 35 10 60 9 62 51 236 70 290 25 71 26 106 4 133 -48 62 -123 5
-229 -174 -54 -91 -61 -97 -29 -22 36 82 79 207 79 229 0 55 -77 69 -132 24z"/>
<path d="M2738 1815 c-81 -23 -206 -78 -301 -131 -73 -41 -216 -133 -235 -152
-8 -6 -23 -17 -35 -23 -11 -7 -26 -16 -31 -20 -6 -5 -59 -47 -118 -93 -225
-177 -426 -385 -546 -563 -23 -34 -42 -65 -42 -69 0 -4 -6 -15 -13 -23 -15
-17 -45 -90 -55 -131 -39 -164 102 -231 388 -186 93 14 281 84 450 165 93 45
93 45 66 3 -32 -52 -96 -218 -109 -282 0 -3 -6 -30 -12 -60 -13 -64 -11 -150
5 -180 8 -14 21 -20 46 -20 33 0 34 1 27 28 -18 73 -2 172 52 312 74 193 219
445 356 617 61 77 70 99 43 110 -17 6 -24 3 -169 -74 -49 -27 -121 -61 -160
-77 -38 -15 -83 -34 -100 -41 -16 -8 -43 -17 -60 -21 -16 -4 -35 -10 -40 -15
-6 -4 -39 -14 -73 -22 -50 -12 -65 -12 -68 -2 -8 21 -49 13 -49 -10 0 -18 6
-20 70 -19 39 0 93 8 120 17 28 9 53 17 57 17 13 1 247 99 298 125 l49 25 -67
-89 c-37 -48 -85 -118 -107 -154 -37 -62 -46 -70 -125 -111 -215 -111 -419
-181 -565 -192 -89 -7 -116 11 -120 81 -14 228 347 675 815 1011 47 34 99 69
115 78 33 18 56 32 95 58 36 23 190 86 231 94 116 21 119 10 46 -149 -66 -143
-179 -302 -289 -406 -32 -30 -55 -57 -53 -61 3 -4 21 -15 40 -24 33 -16 37
-16 63 -1 29 18 120 134 189 244 95 149 153 285 153 360 0 82 -79 101 -232 56z"/>
</g>
</svg>
