<?xml version="1.0" standalone="no"?>
<!DOCTYPE svg PUBLIC "-//W3C//DTD SVG 20010904//EN"
 "http://www.w3.org/TR/2001/REC-SVG-20010904/DTD/svg10.dtd">
<svg version="1.0" xmlns="http://www.w3.org/2000/svg"
 width="300.000000pt" height="300.000000pt" viewBox="0 0 300.000000 300.000000"
 preserveAspectRatio="xMidYMid meet">
<metadata>
Created by potrace 1.11, written by Peter Selinger 2001-2013
</metadata>
<g transform="translate(0.000000,300.000000) scale(0.100000,-0.100000)"
fill="#000000" stroke="none">
<path d="M1350 2723 c-80 -46 -167 -97 -195 -112 -40 -22 -557 -320 -977 -563
l-67 -38 0 -810 c0 -446 1 -810 3 -810 2 0 87 48 188 106 100 58 289 167 418
241 129 75 265 153 302 175 l67 40 0 246 c0 226 2 248 18 260 35 25 387 227
394 225 3 -1 96 -54 207 -118 l200 -117 0 -245 c0 -135 4 -249 9 -254 16 -15
958 -558 962 -553 2 2 4 364 4 805 0 672 -2 802 -14 814 -8 7 -183 109 -389
228 -206 118 -505 290 -665 382 -159 92 -297 170 -305 175 -10 5 -63 -21 -160
-77z m355 -86 c110 -63 298 -172 418 -241 121 -69 223 -126 228 -126 5 0 9 -4
9 -9 0 -5 6 -11 13 -13 7 -2 115 -61 240 -133 l227 -130 0 -763 0 -762 -57 32
c-32 17 -65 37 -73 44 -14 12 -16 93 -15 685 0 369 -2 674 -5 678 -3 4 -99 63
-215 129 -115 67 -383 223 -595 346 -212 123 -389 220 -395 216 -9 -7 -585
-340 -702 -406 -28 -16 -148 -85 -267 -154 l-216 -125 0 -680 0 -680 -63 -35
c-34 -19 -67 -36 -72 -38 -7 -2 -10 251 -10 754 l0 757 30 17 c17 10 158 92
315 182 157 91 422 244 590 340 168 97 328 189 355 206 28 16 52 28 55 27 3
-1 95 -54 205 -118z m196 -327 c211 -123 458 -266 549 -318 91 -52 173 -100
183 -106 16 -10 17 -53 17 -664 l0 -653 -42 26 c-24 15 -55 31 -70 37 -20 7
-28 17 -29 36 -1 15 -2 274 -3 575 l-1 549 -155 90 c-85 50 -227 132 -315 183
-88 50 -246 142 -351 202 l-191 111 -269 -156 c-148 -85 -375 -217 -504 -291
l-235 -136 -3 -575 -2 -575 -69 -37 -68 -38 0 653 0 652 221 128 c122 70 379
220 571 332 193 112 357 202 366 201 9 -2 189 -104 400 -226z m80 -259 l484
-278 2 -547 c1 -300 0 -546 -2 -546 -2 0 -34 17 -72 39 l-68 39 -1 462 c-1
254 -6 466 -10 470 -7 7 -263 156 -489 285 -22 13 -103 60 -180 104 -77 45
-143 81 -148 81 -4 0 -192 -106 -416 -236 l-409 -237 0 -458 c0 -251 -3 -462
-6 -467 -5 -9 -128 -82 -138 -82 -8 0 0 1094 8 1097 8 3 124 70 724 417 129
74 236 136 236 136 1 0 219 -125 485 -279z m-91 -164 l385 -222 2 -438 c1
-330 -1 -437 -10 -436 -7 0 -39 17 -72 38 l-60 38 0 351 c0 299 -2 353 -15
365 -8 8 -153 93 -321 189 l-305 175 -320 -183 -319 -183 -5 -361 -5 -361 -70
-39 -70 -39 2 387 c2 213 3 410 3 439 l0 51 103 60 c56 32 192 111 302 174
110 64 238 138 285 166 47 28 90 51 95 51 6 0 183 -100 395 -222z m-328 -28
c73 -44 114 -67 178 -102 30 -16 60 -33 65 -37 6 -5 33 -20 60 -35 28 -16 91
-52 140 -81 l90 -52 -1 -324 c-1 -178 -2 -326 -3 -330 0 -4 -31 11 -68 33
l-68 39 -5 251 -5 252 -220 128 c-121 71 -223 129 -228 129 -10 0 -440 -251
-447 -261 -3 -4 -5 -116 -5 -249 l0 -242 -25 -17 c-14 -10 -46 -30 -72 -45
l-48 -27 0 333 0 333 293 167 c160 92 297 168 304 168 7 0 36 -14 65 -31z"/>
</g>
</svg>
