<?xml version="1.0" standalone="no"?>
<!DOCTYPE svg PUBLIC "-//W3C//DTD SVG 20010904//EN"
 "http://www.w3.org/TR/2001/REC-SVG-20010904/DTD/svg10.dtd">
<svg version="1.0" xmlns="http://www.w3.org/2000/svg"
 width="300.000000pt" height="300.000000pt" viewBox="0 0 300.000000 300.000000"
 preserveAspectRatio="xMidYMid meet">
<metadata>
Created by potrace 1.11, written by Peter Selinger 2001-2013
</metadata>
<g transform="translate(0.000000,300.000000) scale(0.100000,-0.100000)"
fill="#000000" stroke="none">
<path d="M30 1495 l0 -1285 1470 0 1470 0 0 1285 0 1285 -1470 0 -1470 0 0
-1285z m1668 896 c117 -83 216 -151 221 -151 5 0 135 216 202 340 12 22 15 -8
19 -240 l5 -265 257 -184 c142 -102 257 -185 255 -186 -1 -1 -66 -5 -143 -8
l-142 -7 -138 99 c-77 53 -297 210 -490 348 l-351 250 -482 -344 -483 -343
-153 2 -154 3 260 184 259 184 0 263 c0 145 3 264 8 264 4 0 53 -81 110 -180
57 -99 107 -180 110 -180 4 0 124 84 266 185 l259 184 46 -33 c25 -18 142
-101 259 -185z m-512 -783 l206 -412 49 95 c27 51 120 235 206 406 87 172 162
313 166 313 4 0 80 -52 168 -116 l159 -116 0 -517 0 -517 -132 0 -133 1 -5
394 -5 393 -160 -328 c-88 -181 -194 -399 -236 -484 l-77 -155 -110 225 c-278
570 -352 724 -354 734 -2 6 -5 -167 -8 -384 l-5 -395 -135 0 -135 0 -3 512 -2
512 37 30 c41 32 296 220 300 221 2 0 96 -185 209 -412z"/>
</g>
</svg>
