<?xml version="1.0" standalone="no"?>
<!DOCTYPE svg PUBLIC "-//W3C//DTD SVG 20010904//EN"
 "http://www.w3.org/TR/2001/REC-SVG-20010904/DTD/svg10.dtd">
<svg version="1.0" xmlns="http://www.w3.org/2000/svg"
 width="300.000000pt" height="300.000000pt" viewBox="0 0 300.000000 300.000000"
 preserveAspectRatio="xMidYMid meet">
<metadata>
Created by potrace 1.11, written by Peter Selinger 2001-2013
</metadata>
<g transform="translate(0.000000,300.000000) scale(0.100000,-0.100000)"
fill="#000000" stroke="none">
<path d="M1469 2959 c-25 -51 -129 -203 -141 -207 -4 -2 -8 -9 -8 -16 0 -6 -8
-19 -17 -28 -21 -19 -25 -25 -78 -98 -22 -30 -45 -59 -52 -63 -7 -4 -13 -14
-13 -20 0 -7 -17 -31 -37 -53 -21 -23 -65 -72 -98 -109 -89 -100 -154 -167
-209 -214 l-48 -42 48 -42 c151 -132 267 -259 247 -270 -5 -2 -57 -3 -118 -2
-60 1 -113 -2 -116 -7 -3 -4 -19 -4 -35 2 -16 5 -69 11 -118 13 -158 5 -267
-35 -367 -135 -35 -35 -68 -71 -74 -79 -29 -41 -55 -101 -70 -159 -21 -80 -24
-252 -6 -301 33 -83 78 -164 119 -209 47 -52 137 -118 175 -126 142 -34 211
-24 279 39 33 30 46 85 23 93 -8 3 -23 20 -34 38 -47 76 -33 170 32 217 82 59
170 66 270 21 64 -30 90 -47 134 -92 23 -24 57 -77 58 -92 0 -3 3 -9 7 -13 3
-4 1 -26 -6 -49 -11 -35 -11 -48 0 -68 7 -13 9 -30 5 -37 -12 -20 0 -61 21
-72 15 -8 18 -17 12 -42 -7 -35 -57 -86 -86 -88 -81 -6 -104 5 -124 57 -18 47
-27 51 -77 31 -115 -49 -167 -174 -118 -282 43 -96 190 -163 294 -134 36 10
37 -15 1 -46 l-27 -23 64 -63 c35 -35 88 -92 118 -126 33 -38 62 -63 74 -63
19 0 19 1 4 18 -10 10 -14 22 -10 26 5 4 3 6 -3 4 -11 -3 -84 66 -84 79 0 8
32 -19 54 -45 27 -34 31 -19 4 20 -12 18 -25 35 -28 38 -19 18 -60 80 -53 80
4 -1 26 -25 48 -55 22 -30 43 -55 48 -55 4 0 7 -5 7 -10 0 -6 5 -16 10 -23 39
-46 50 -61 50 -69 0 -4 10 -8 23 -8 22 0 23 2 20 73 -7 161 -4 187 21 187 10
0 13 -30 12 -130 -1 -172 -2 -172 140 -1 16 19 44 50 62 69 17 19 32 40 32 47
0 15 57 18 66 3 5 -7 0 -9 -14 -6 -22 6 -34 -3 -92 -72 -48 -56 -69 -80 -113
-128 l-38 -42 34 0 c29 0 45 11 113 79 43 43 94 95 112 116 31 36 43 75 22 75
-5 0 -10 9 -10 19 0 18 6 19 83 14 67 -4 90 -2 118 12 47 24 94 77 107 124 25
81 8 206 -31 246 -20 19 -64 45 -83 49 -11 2 -23 5 -29 6 -27 6 -45 -2 -45
-20 0 -55 -53 -100 -118 -100 -37 0 -86 39 -111 88 l-19 36 30 28 c21 20 29
35 27 55 -1 16 1 43 5 60 4 20 3 46 -5 66 -9 27 -9 38 4 63 22 42 108 145 132
158 11 6 22 13 25 17 17 18 91 42 131 42 59 0 131 -34 164 -77 28 -37 55 -107
55 -143 0 -30 -32 -93 -59 -115 -30 -26 -26 -42 22 -83 50 -43 76 -55 137 -61
25 -2 56 -6 69 -9 13 -2 31 0 40 5 9 4 32 11 51 13 19 3 36 6 38 7 1 2 6 3 12
4 22 3 170 109 175 127 4 10 11 19 16 19 5 0 9 5 9 11 0 6 9 23 20 38 10 15
31 63 46 107 91 269 -47 596 -297 702 -66 28 -200 40 -309 26 -30 -4 -110 -8
-177 -8 -107 -1 -120 1 -110 14 23 31 103 126 136 162 19 21 40 47 48 58 8 11
18 20 23 20 5 0 21 11 35 25 25 26 32 45 17 45 -30 0 -253 263 -382 450 -8 12
-27 36 -42 54 -15 17 -28 35 -28 39 0 14 -207 317 -224 329 -19 13 -25 9 -47
-33z m51 -19 c0 -5 -4 -10 -9 -10 -37 0 52 -180 118 -239 14 -13 19 -20 11
-16 -12 6 -13 5 -3 -5 7 -8 16 -11 20 -7 6 7 -8 36 -96 202 -40 74 -16 46 47
-55 25 -41 49 -77 52 -80 3 -3 23 -31 44 -62 22 -32 43 -58 48 -58 4 0 8 -5 8
-11 0 -13 130 -200 169 -241 13 -16 21 -28 16 -28 -4 0 9 -16 29 -35 21 -19
35 -35 33 -35 -18 0 -37 14 -37 27 0 10 -6 13 -16 9 -8 -3 -13 -2 -10 3 3 5
-1 11 -9 14 -11 5 -12 1 -5 -17 5 -13 6 -27 2 -31 -3 -3 0 -10 8 -15 11 -7 12
-10 2 -10 -7 0 -10 -5 -7 -10 4 -6 11 -8 16 -4 5 3 9 2 8 -3 -4 -21 3 -34 29
-61 21 -22 38 -29 71 -30 l43 -2 -21 35 c-27 47 -20 44 24 -10 27 -32 35 -50
30 -65 -3 -11 -10 -20 -15 -20 -5 0 -7 6 -4 14 3 8 -4 16 -18 20 -44 11 -79 6
-102 -16 -28 -27 -176 -248 -176 -263 0 -12 -40 -39 -47 -31 -4 4 20 54 40 81
4 5 24 35 44 65 20 30 56 79 80 108 24 30 43 59 43 66 0 7 -22 45 -50 85 -27
40 -50 76 -50 81 0 5 -4 10 -9 12 -5 2 -38 46 -73 98 -36 52 -86 126 -111 163
-26 38 -47 70 -47 71 0 2 -19 32 -42 68 -24 36 -55 86 -71 112 -29 51 -40 52
-62 3 -8 -18 -20 -41 -27 -52 -7 -11 -28 -44 -46 -73 -18 -30 -42 -63 -52 -75
-11 -11 -20 -26 -20 -33 0 -7 -4 -14 -8 -16 -4 -1 -23 -25 -42 -53 -19 -27
-39 -55 -45 -61 -5 -7 -19 -24 -30 -39 -11 -16 -59 -78 -107 -138 -48 -61 -89
-119 -91 -129 -3 -11 10 -31 39 -58 24 -22 44 -45 44 -50 0 -5 8 -15 18 -22
26 -19 124 -185 123 -207 0 -3 -7 -6 -16 -7 -10 -2 -29 22 -53 68 -49 93 -58
110 -69 117 -5 3 -19 23 -31 43 -31 51 -91 101 -105 90 -7 -5 -27 -10 -46 -10
-41 -1 -48 -7 -30 -28 13 -16 12 -16 -8 -6 -46 25 -39 61 10 60 61 -2 92 12
100 42 4 17 1 20 -21 18 -14 -2 -36 -14 -49 -27 -13 -13 -27 -21 -30 -17 -9 8
18 37 28 30 5 -3 9 1 9 9 0 7 10 22 23 34 12 11 42 43 67 72 25 29 57 67 72
85 60 70 98 118 98 124 0 4 19 28 43 54 23 26 62 75 87 110 25 35 48 68 52 73
5 6 17 21 27 35 11 14 23 21 27 17 5 -4 3 -12 -5 -16 -10 -7 -10 -9 1 -14 17
-6 80 84 86 121 5 36 -12 25 -43 -28 -16 -27 -31 -48 -33 -45 -8 7 83 145 96
145 6 0 12 -4 12 -10z m-17 -220 c3 -11 3 -59 0 -107 -3 -49 -4 -94 -4 -100 2
-27 1 -84 -5 -253 -3 -96 -7 -240 -7 -320 -2 -122 -4 -145 -17 -145 -13 0 -15
47 -13 370 2 435 10 575 33 575 4 0 10 -9 13 -20z m-96 -328 c1 -20 -2 -51 -6
-69 -7 -24 -6 -33 6 -37 8 -3 12 -10 9 -15 -4 -5 1 -17 10 -25 8 -9 11 -16 5
-16 -6 0 -11 -7 -11 -15 0 -8 -5 -15 -11 -15 -5 0 -7 -5 -3 -11 3 -6 0 -15 -7
-20 -11 -7 -11 -9 -1 -9 9 0 11 -7 7 -22 -6 -17 -4 -20 11 -14 18 6 18 5 2 -8
-18 -13 -26 -32 -10 -22 5 3 9 -1 9 -9 0 -8 -5 -11 -10 -8 -6 4 -7 1 -2 -7 12
-20 14 -74 2 -88 -8 -10 -7 -12 3 -10 9 2 13 -11 13 -47 0 -80 -2 -95 -14 -95
-5 0 -7 5 -3 11 4 7 -4 20 -17 31 -13 11 -17 16 -9 12 12 -5 13 -4 3 6 -10 11
-15 11 -30 0 -15 -12 -16 -12 -6 0 9 10 10 17 2 27 -13 15 -33 18 -24 3 3 -5
2 -10 -3 -10 -6 0 -12 6 -15 13 -6 17 32 20 53 4 10 -8 10 -5 -2 9 -10 11 -18
26 -18 32 0 7 -4 12 -10 12 -5 0 -7 -7 -4 -15 4 -10 0 -13 -16 -10 -28 5 -39
15 -17 15 10 0 17 5 17 10 0 15 -36 -6 -44 -25 -3 -8 -10 -15 -16 -15 -7 0 -8
6 0 19 6 12 6 22 1 25 -5 3 -7 15 -4 26 7 27 -1 25 -21 -5 -10 -15 -12 -24 -5
-23 6 2 13 -3 14 -10 2 -7 1 -8 -2 -2 -3 7 -11 7 -24 0 -16 -9 -18 -8 -16 7 1
10 7 24 11 32 6 8 5 12 0 8 -5 -3 -18 1 -29 9 -16 12 -17 16 -5 27 10 10 11 9
5 -2 -6 -10 -4 -12 5 -6 10 6 9 11 -4 21 -14 10 -16 16 -6 31 11 17 11 17 5
-2 -5 -15 -3 -17 6 -8 15 15 2 35 -21 28 -22 -7 -35 22 -19 41 6 8 7 14 2 14
-5 0 -10 7 -10 15 0 8 5 11 10 8 6 -4 8 2 5 15 -5 16 -2 19 11 15 9 -4 13 -3
9 2 -4 4 4 19 18 32 14 12 20 23 13 23 -7 0 -2 8 9 19 12 10 28 33 36 52 9 19
15 26 16 17 0 -9 5 -20 12 -24 8 -5 9 0 5 15 -4 18 -2 22 12 18 17 -4 45 25
46 47 0 19 24 16 35 -4 6 -11 15 -18 21 -15 5 4 5 15 -2 28 -10 18 -9 20 2 9
7 -7 15 -29 16 -50z m223 -32 c0 -5 -9 -10 -21 -10 -11 0 -17 5 -14 10 3 6 13
10 21 10 8 0 14 -4 14 -10z m46 -5 c-3 -8 0 -15 6 -15 6 0 8 -3 5 -6 -4 -4 3
-21 15 -38 18 -25 18 -28 4 -16 -17 13 -18 13 -14 -5 2 -11 10 -19 18 -17 10
2 11 0 3 -10 -8 -10 -8 -18 2 -32 8 -10 11 -25 9 -34 -5 -14 -4 -14 6 1 6 9 9
21 5 26 -3 5 -1 12 5 16 5 3 10 1 10 -5 0 -7 7 -10 15 -6 10 4 22 -5 34 -25
18 -29 20 -56 6 -98 -4 -13 -2 -21 5 -21 6 0 8 5 4 12 -4 7 -3 8 5 4 9 -6 9
-11 0 -22 -6 -8 -8 -14 -5 -14 4 0 -2 -10 -13 -22 -17 -17 -23 -19 -36 -8 -10
8 -15 9 -15 1 0 -6 -8 -11 -17 -11 -15 0 -16 2 -3 10 11 7 11 10 2 10 -8 0
-10 5 -6 13 4 7 3 9 -2 4 -5 -5 -10 -13 -10 -18 -1 -5 -2 -14 -3 -19 -1 -7 -8
-7 -22 0 -11 7 -23 10 -25 7 -3 -2 10 -11 28 -20 23 -11 36 -13 45 -5 8 7 18
5 33 -5 19 -13 17 -14 -27 -13 -26 1 -55 -3 -63 -9 -13 -8 -13 -8 -2 6 10 14
10 18 -2 22 -17 7 -27 -16 -22 -55 2 -20 0 -25 -12 -20 -11 4 -13 1 -7 -9 6
-10 5 -11 -3 -4 -6 6 -12 28 -13 50 -2 39 -30 81 -44 67 -4 -4 -6 -2 -5 3 1 6
1 12 0 15 -7 19 -7 39 1 34 13 -8 11 10 -3 24 -9 9 -8 16 5 30 13 15 14 21 4
31 -6 7 -7 12 -2 11 21 -5 27 1 16 14 -8 10 -9 16 -1 21 6 3 7 11 4 17 -4 6
-2 8 4 4 12 -7 27 29 17 43 -3 6 6 7 23 2 28 -9 29 -8 26 33 -1 22 -3 43 -3
45 -1 2 -9 -3 -18 -10 -16 -13 -17 -12 -4 3 7 10 17 15 22 12 5 -3 9 0 9 5 0
6 3 11 6 11 3 0 4 -7 0 -15z m-72 -70 c-4 -8 -10 -12 -15 -9 -11 6 -2 24 11
24 5 0 7 -7 4 -15z m440 -74 c-4 -3 -9 0 -11 7 -4 10 -8 10 -21 0 -15 -11 -15
-11 -5 3 7 9 9 20 5 25 -4 5 3 0 16 -10 12 -11 19 -22 16 -25z m-200 -113 c-5
-8 -1 -9 12 -4 14 5 16 4 7 -5 -6 -6 -16 -8 -22 -5 -14 9 -14 26 0 26 5 0 7
-5 3 -12z m20 -37 c3 -5 -1 -11 -9 -15 -15 -6 -29 7 -18 18 9 9 21 8 27 -3z
m21 -42 c-4 -5 -13 -9 -21 -9 -12 0 -12 2 -2 14 14 15 32 11 23 -5z m-879 -66
c34 -32 69 -70 79 -85 9 -16 22 -25 29 -21 6 3 8 3 4 -2 -4 -4 -3 -14 4 -22 6
-7 8 -17 4 -21 -4 -4 -17 4 -27 18 -67 85 -90 110 -139 158 -30 30 -46 49 -35
44 11 -6 47 -37 81 -69z m587 21 c-7 -19 -10 -18 -16 5 -3 13 -1 18 9 14 7 -2
10 -11 7 -19z m427 -1 c0 -5 -13 -22 -28 -39 -37 -43 -85 -104 -95 -120 -4 -8
-16 -14 -25 -14 -15 1 -15 3 3 18 11 10 36 38 55 62 32 42 82 98 88 100 1 0 2
-3 2 -7z m-306 -38 c-2 -14 0 -25 6 -25 5 0 10 5 10 12 0 6 3 8 7 5 3 -4 13
-1 21 6 13 10 14 9 8 -1 -5 -8 -27 -23 -50 -33 -22 -11 -33 -17 -23 -14 10 3
15 1 12 -5 -3 -6 -13 -10 -21 -10 -12 0 -12 -4 -4 -20 8 -16 8 -20 -3 -20 -22
0 -11 71 14 93 12 9 18 17 15 17 -4 0 -4 5 -1 10 10 17 14 11 9 -15z m-122 -8
c3 -13 1 -32 -3 -43 -5 -13 -8 -7 -8 24 -1 46 4 55 11 19z m-225 -72 c0 -8 -4
-12 -9 -9 -5 3 -6 10 -3 15 9 13 12 11 12 -6z m997 -87 c-4 -6 4 -5 16 2 15 8
20 8 16 1 -10 -15 7 -14 23 2 11 10 11 8 1 -12 -11 -21 -10 -23 4 -18 9 4 20
-1 25 -11 6 -9 11 -12 11 -6 0 5 -5 15 -12 22 -6 6 -9 15 -5 19 9 8 37 -29 30
-40 -3 -5 8 -2 23 6 24 12 31 13 41 1 10 -10 10 -15 -3 -22 -15 -8 -15 -10 0
-15 10 -4 15 -3 12 2 -3 5 0 11 7 13 14 6 70 -26 62 -34 -3 -3 1 -8 10 -12 11
-4 14 -2 9 7 -5 8 -2 8 9 -2 9 -7 15 -17 12 -21 -3 -4 2 -11 11 -14 8 -3 12
-11 8 -17 -4 -7 -3 -9 3 -6 9 6 17 -2 62 -58 l16 -20 -25 20 c-14 11 -27 23
-30 26 -11 12 -40 18 -45 9 -3 -6 -1 -18 5 -27 10 -16 11 -16 6 -1 -3 12 -1
15 10 11 13 -5 13 -8 -1 -23 -8 -9 -13 -19 -10 -22 3 -2 -2 -5 -10 -5 -8 0
-12 4 -9 9 3 4 0 8 -5 8 -6 0 -11 7 -11 16 0 8 -5 12 -11 9 -5 -4 -20 1 -31
12 -14 12 -18 13 -13 3 8 -13 6 -13 -8 -2 -9 8 -22 10 -28 6 -8 -4 -9 -3 -5 4
6 11 -6 16 -26 13 -5 0 -8 4 -8 10 0 5 -4 7 -10 4 -5 -3 -10 -1 -10 4 0 6 -7
11 -15 11 -18 0 -20 -16 -2 -23 6 -2 14 -4 17 -4 6 1 45 -30 72 -58 25 -25 52
-78 69 -133 8 -28 17 -41 26 -38 14 6 18 -6 6 -18 -4 -4 -8 -28 -9 -54 -1 -26
-5 -59 -8 -74 -3 -16 -8 -40 -11 -55 -23 -119 -99 -244 -166 -273 -13 -5 -39
-19 -57 -30 -29 -18 -71 -25 -126 -21 -36 2 -5 16 40 18 81 3 182 76 226 163
30 57 62 183 61 235 -3 112 -37 197 -103 259 -65 61 -133 82 -262 79 l-96 -1
5 66 c5 74 10 98 20 89 3 -4 12 -2 19 4 9 7 20 6 38 -6 14 -10 26 -15 26 -11
0 13 -5 21 -12 19 -5 -2 -8 1 -8 6 0 4 20 7 45 5 24 -2 47 1 50 5 3 5 14 7 25
4 11 -3 17 -10 14 -15z m-1594 -3 c25 -5 48 -8 53 -7 4 1 7 -6 8 -15 7 -124 7
-134 -10 -127 -53 22 -139 25 -211 6 -85 -22 -210 -110 -210 -149 0 -7 -4 -13
-8 -13 -8 0 -32 -74 -40 -120 -4 -29 -4 -119 1 -140 22 -93 69 -177 130 -229
56 -49 128 -81 184 -81 28 0 54 -4 58 -9 6 -10 -107 -81 -128 -81 -7 1 -1 7
12 14 23 13 23 14 5 24 -10 6 -14 12 -8 12 5 0 15 -5 22 -12 6 -6 14 -10 16
-7 3 3 -30 26 -73 52 -179 109 -256 230 -262 409 -1 32 -6 55 -10 52 -4 -2
-10 0 -13 5 -4 5 -2 13 4 16 16 10 60 82 60 98 0 7 14 29 31 48 17 19 38 43
47 54 10 11 38 31 65 45 26 14 47 29 47 33 0 5 6 5 13 1 9 -5 9 -4 1 5 -13 14
-77 3 -67 -12 4 -6 0 -8 -10 -4 -9 3 -27 -4 -44 -19 -15 -13 -43 -30 -60 -36
-18 -7 -33 -16 -33 -21 0 -4 5 -5 12 -1 7 4 8 3 4 -5 -4 -6 -12 -9 -17 -5 -5
3 -16 1 -23 -5 -10 -9 -15 -8 -19 3 -4 9 -1 13 7 10 11 -4 18 6 45 61 3 6 -3
4 -12 -4 -9 -7 -14 -17 -11 -22 3 -5 0 -9 -6 -9 -26 0 -77 -69 -101 -136 -22
-62 -25 -87 -24 -180 1 -82 7 -123 22 -166 20 -53 74 -143 97 -161 7 -5 5 -7
-4 -5 -24 7 -97 124 -116 186 -22 74 -26 232 -7 292 8 25 16 53 18 64 10 45
81 144 132 186 24 19 49 40 56 45 29 24 69 46 74 41 3 -3 15 -1 26 5 10 6 38
13 61 16 22 2 42 5 43 7 5 5 132 -2 173 -9z m1735 -15 c-3 -5 -12 -10 -18 -10
-7 0 -6 4 3 10 19 12 23 12 15 0z m-1332 -135 c20 -44 34 -81 32 -83 -1 -2
-35 29 -75 68 -39 40 -70 73 -68 75 3 3 72 23 75 21 0 -1 17 -37 36 -81z m38
68 c1 -10 1 -21 0 -25 -1 -11 11 -10 28 1 12 8 12 12 2 25 -12 14 -11 16 6 16
20 0 41 -33 49 -79 3 -13 11 -35 18 -50 8 -14 19 -60 26 -101 7 -41 15 -82 18
-90 3 -8 6 -24 7 -35 1 -11 7 -36 12 -55 5 -19 10 -73 11 -120 l1 -85 -18 101
c-10 56 -21 106 -24 111 -3 5 -8 31 -12 58 -3 27 -10 52 -16 56 -7 4 -8 9 -1
13 14 9 3 46 -14 46 -17 0 -19 -20 -1 -21 9 0 9 -2 0 -6 -10 -3 -8 -14 5 -41
19 -39 28 -102 14 -102 -6 0 -53 126 -67 180 -14 51 -21 71 -37 104 -11 21
-26 56 -34 78 -12 36 -12 38 6 38 12 0 20 -7 21 -17z m544 7 c4 -6 1 -9 -7 -8
-8 2 -12 -4 -10 -14 2 -10 -2 -18 -8 -18 -6 0 -8 -4 -5 -10 3 -5 1 -10 -5 -10
-8 0 -8 -6 0 -20 9 -16 8 -20 -5 -20 -8 0 -15 -4 -15 -10 0 -29 29 -2 60 55
19 36 38 65 43 65 12 0 8 -9 -18 -48 -14 -20 -25 -41 -25 -47 0 -6 -10 -22
-22 -35 -13 -14 -22 -25 -20 -25 3 0 -20 -59 -44 -110 -19 -41 -54 -154 -54
-174 0 -9 -5 -23 -10 -31 -12 -18 -4 73 9 105 5 11 16 38 25 60 9 22 17 43 17
47 -1 5 9 25 20 45 12 20 22 45 24 55 7 32 -14 19 -35 -22 -11 -22 -18 -40
-14 -40 4 0 1 -7 -6 -15 -7 -8 -9 -15 -5 -15 4 0 1 -7 -6 -16 -7 -9 -14 -21
-15 -28 -1 -6 -10 -27 -19 -46 l-16 -35 4 45 c4 38 63 205 108 303 12 27 42
36 54 17z m138 -5 c10 -4 -9 -29 -62 -84 -42 -43 -78 -77 -79 -76 -2 2 18 40
45 84 46 77 61 89 96 76z m85 -48 c11 -12 27 -38 36 -57 l14 -34 -53 -31 c-56
-32 -126 -93 -186 -165 -41 -47 -108 -174 -115 -217 -10 -60 -25 -92 -40 -86
-9 3 -11 9 -6 17 5 6 12 28 16 49 9 49 66 174 104 229 41 58 155 168 174 168
5 0 7 4 3 9 -3 5 3 12 14 16 11 3 25 13 33 22 12 15 11 15 -12 3 -14 -8 -29
-13 -34 -12 -17 5 -66 -20 -66 -34 0 -8 -3 -13 -7 -12 -5 1 -18 -3 -29 -10
-12 -6 -25 -8 -29 -4 -5 4 -5 1 -1 -5 4 -8 1 -13 -8 -13 -14 0 -20 -12 -17
-32 0 -5 -6 -8 -14 -8 -8 0 -19 -9 -25 -19 -5 -11 -16 -25 -23 -33 -7 -7 -23
-35 -36 -61 -13 -26 -25 -46 -28 -43 -9 8 43 109 85 166 77 104 93 122 138
157 16 12 40 31 54 42 32 26 32 26 58 -2z m-898 -21 c19 -18 51 -52 70 -75 19
-23 43 -51 52 -63 10 -11 20 -30 24 -41 4 -12 12 -27 20 -34 7 -7 27 -51 44
-98 18 -46 37 -82 42 -79 6 4 7 -2 3 -15 -4 -12 -3 -27 3 -34 5 -7 10 -37 11
-67 2 -30 5 -58 7 -61 6 -10 -24 -19 -40 -13 -8 3 -18 20 -22 37 -3 18 -13 45
-21 60 -8 16 -16 37 -18 46 -6 33 -100 175 -155 235 -30 32 -75 75 -100 95
-30 24 -44 42 -42 54 4 17 5 17 30 1 38 -24 140 -129 188 -194 23 -30 63 -100
89 -155 37 -76 50 -95 55 -80 7 19 -9 86 -28 122 -6 10 -10 20 -9 23 1 9 -42
94 -68 135 -13 22 -28 47 -32 55 -15 32 -121 143 -159 167 -19 12 -18 12 1 12
11 1 36 -14 55 -33z m1715 -175 c-3 -2 0 -12 6 -23 20 -37 29 -159 19 -253 -8
-75 -106 -264 -137 -265 -6 0 -21 -13 -32 -29 -23 -32 -118 -81 -147 -77 -11
2 -27 -3 -36 -12 -10 -8 -18 -10 -18 -5 0 11 18 22 32 19 3 0 17 9 30 22 14
12 27 19 31 16 7 -7 67 18 67 28 0 5 6 8 13 8 12 0 42 31 97 102 18 23 50 88
75 153 27 69 21 210 -13 310 -19 55 -19 57 -2 35 10 -14 17 -26 15 -29z m-115
-121 c-8 -5 -17 -7 -19 -4 -3 3 1 9 9 14 8 5 17 7 19 4 3 -3 -1 -9 -9 -14z
m-1343 -52 c-3 -8 -6 -5 -6 6 -1 11 2 17 5 13 3 -3 4 -12 1 -19z m-360 -1 c7
-5 22 -10 33 -12 55 -11 131 -67 185 -136 34 -44 20 -36 -31 17 -52 53 -102
86 -169 110 -20 7 -44 11 -95 13 -37 2 -9 16 32 16 18 0 39 -4 45 -8z m-165
-19 c-5 -5 -22 -11 -37 -13 -16 -1 -36 -13 -46 -26 -10 -13 -20 -21 -24 -18
-11 11 31 52 66 64 36 12 57 9 41 -7z m58 17 c0 -7 -30 -13 -34 -7 -3 4 4 9
15 9 10 1 19 0 19 -2z m1204 -6 c3 -3 -22 -6 -56 -7 -33 -1 -66 -6 -73 -12 -9
-8 -15 -8 -20 0 -10 16 28 25 101 25 23 0 45 -2 48 -6z m77 -13 c46 -20 87
-58 109 -100 26 -51 10 -44 -27 13 -22 35 -45 55 -85 74 -56 27 -54 37 3 13z
m-241 -16 c0 -5 -4 -10 -10 -10 -5 0 -10 5 -10 10 0 6 5 10 10 10 6 0 10 -4
10 -10z m-287 -33 c7 4 8 0 2 -13 -4 -10 -10 -31 -13 -47 -9 -53 -24 -41 -18
14 6 67 6 67 13 51 2 -6 10 -9 16 -5z m228 -1 c-1 -3 -4 -7 -8 -8 -13 -5 -70
-72 -86 -103 -9 -16 -16 -25 -16 -20 0 15 20 47 63 98 35 41 49 51 47 33z
m-1157 -34 c-6 -4 -18 -28 -27 -54 -17 -53 -10 -98 25 -155 11 -18 15 -33 9
-33 -6 0 -11 4 -11 10 0 5 -6 9 -12 7 -7 -1 -12 4 -10 11 1 7 -3 22 -9 34 -7
12 -13 35 -14 52 -5 52 36 158 54 141 3 -3 1 -9 -5 -13z m913 -92 c1 -11 -2
-20 -5 -20 -4 0 -8 9 -9 20 -1 11 2 20 5 20 4 0 8 -9 9 -20z m-217 -82 c0 -30
0 -31 -20 -13 -24 22 -74 14 -107 -17 -13 -12 -25 -19 -28 -16 -10 10 70 63
105 69 19 3 38 7 43 8 4 0 7 -13 7 -31z m274 11 c15 -12 25 -24 22 -26 -3 -3
-12 2 -21 11 -18 18 -35 21 -35 6 0 -5 -9 -14 -20 -20 -18 -10 -20 -8 -20 20
0 25 4 30 24 30 13 0 35 -10 50 -21z m700 9 c-3 -4 -11 -5 -19 -1 -8 3 -15 0
-15 -7 0 -6 -5 -8 -11 -4 -8 4 -7 9 2 14 16 10 49 9 43 -2z m-87 -43 c0 -8 -4
-15 -9 -15 -4 0 -8 7 -8 15 0 8 4 15 8 15 5 0 9 -7 9 -15z m-892 -25 c-3 -6
-17 -10 -29 -10 -13 0 -37 -7 -52 -15 -16 -8 -35 -15 -42 -15 -21 0 -3 21 30
34 36 16 101 19 93 6z m268 -2 c15 -7 27 -17 27 -21 0 -4 -9 -3 -19 3 -11 5
-31 10 -45 10 -14 0 -26 5 -26 10 0 14 31 13 63 -2z m607 -17 c0 -5 -7 -11
-14 -14 -10 -4 -13 -1 -9 9 6 15 23 19 23 5z m-1897 -32 c20 -19 24 -27 12
-21 -22 11 -62 52 -51 52 4 0 21 -14 39 -31z m1022 12 c-6 -4 -32 -11 -60 -14
-46 -6 -48 -5 -31 8 21 16 107 22 91 6z m285 -8 c30 -20 40 -33 39 -53 0 -9
-5 -5 -13 9 -15 28 -38 39 -78 40 -16 1 -28 6 -28 11 0 16 53 11 80 -7z m60 7
c0 -5 -4 -10 -10 -10 -5 0 -10 5 -10 10 0 6 5 10 10 10 6 0 10 -4 10 -10z
m503 -24 c3 -8 -2 -16 -14 -19 -16 -4 -17 -2 -8 14 12 23 15 23 22 5z m-976
-36 c-7 -17 -13 -26 -15 -21 -3 10 15 51 22 51 3 0 -1 -14 -7 -30z m117 4 c28
-11 17 -19 -25 -20 -40 -1 -40 0 -18 12 29 16 24 15 43 8z m-890 -17 c3 3 6 1
6 -5 0 -16 -12 -15 -36 4 -18 15 -18 15 2 5 12 -6 24 -7 28 -4z m1172 -8 c8
-6 23 -9 34 -6 23 6 26 -5 6 -22 -14 -12 -46 -5 -46 9 0 5 -13 11 -30 15 -16
4 -30 11 -30 16 0 12 47 4 66 -12z m-356 -19 c0 -5 -8 -10 -17 -10 -15 0 -16
2 -3 10 19 12 20 12 20 0z m69 -67 c-5 -21 -11 -45 -13 -53 -11 -43 -56 -120
-92 -156 -87 -88 -158 -99 -261 -39 -51 31 -72 69 -69 132 2 33 -1 40 -11 31
-7 -5 -10 -14 -7 -19 3 -5 0 -9 -5 -9 -6 0 -11 -13 -11 -29 0 -20 -8 -34 -25
-45 -24 -16 -25 -16 -25 4 0 50 34 103 94 148 42 31 49 28 31 -14 -26 -63 -20
-106 23 -154 34 -39 43 -43 92 -47 71 -5 89 6 70 42 -13 24 -13 28 5 41 23 17
13 28 -28 30 -17 1 -33 6 -35 13 -2 6 -9 11 -17 11 -7 0 -19 8 -26 18 -12 15
-12 16 2 5 9 -7 19 -10 23 -6 4 4 11 1 15 -6 16 -26 88 -16 126 17 14 12 25
18 25 14 0 -14 46 -31 59 -22 10 5 9 9 -4 13 -11 5 -14 3 -9 -6 4 -6 4 -9 0
-5 -10 8 -8 23 2 23 14 0 39 30 47 55 7 23 23 50 30 50 2 0 -1 -17 -6 -37z
m258 -76 c20 -75 145 -187 208 -187 12 0 30 7 41 16 19 15 19 16 -1 9 -16 -5
-17 -4 -8 6 10 10 15 9 27 0 12 -10 19 -9 37 8 13 12 19 21 13 21 -5 0 -2 5 6
10 11 7 17 5 21 -8 5 -13 9 -10 23 16 18 34 24 100 11 124 -3 7 1 4 9 -6 28
-34 15 -126 -23 -170 -20 -23 -100 -61 -126 -60 -24 1 -61 11 -95 27 -33 15
-100 74 -92 81 3 3 1 6 -5 6 -11 0 -45 65 -62 118 -5 17 -7 32 -3 32 5 0 13
-19 19 -43z m323 -1 c0 -8 -7 -16 -15 -20 -12 -4 -13 -2 -2 14 14 24 17 25 17
6z m-185 -46 c3 -6 -1 -7 -9 -4 -18 7 -21 14 -7 14 6 0 13 -4 16 -10z m159 2
c-6 -4 -13 -14 -16 -23 -5 -11 -16 -14 -45 -12 -21 3 -43 5 -50 5 -7 1 -10 5
-7 9 3 5 17 6 32 3 15 -2 38 2 52 10 26 15 53 21 34 8z m-760 -34 c-3 -5 -19
-15 -35 -23 -22 -12 -29 -12 -27 -3 2 7 10 18 18 25 17 13 52 14 44 1z m-11
-61 c3 -8 -1 -14 -9 -14 -15 0 -18 9 -7 20 9 9 10 9 16 -6z m235 -32 c2 -28
-29 -105 -49 -121 -8 -6 -24 -14 -36 -16 -21 -6 -21 -5 -6 18 8 13 18 24 22
24 7 0 51 93 51 109 0 22 16 10 18 -14z m278 -10 c10 -19 22 -35 26 -35 5 0 8
-6 8 -12 -1 -15 -70 57 -70 72 0 21 18 9 36 -25z m-49 -32 c9 -21 17 -44 17
-51 1 -7 7 -17 15 -21 8 -5 9 -11 3 -15 -13 -8 -37 22 -51 63 -22 66 -11 83
16 24z m-313 -33 c-21 -34 -87 -84 -105 -78 -6 2 7 16 28 30 22 15 51 40 64
56 30 37 37 33 13 -8z m388 -13 c18 -19 42 -38 53 -45 34 -18 11 -22 -25 -4
-19 9 -43 32 -53 50 -24 41 -18 41 25 -1z m38 16 c0 -11 58 -43 76 -43 8 0 14
-4 14 -10 0 -15 -7 -13 -61 18 -46 25 -61 42 -39 42 6 0 10 -3 10 -7z m340
-14 c-7 -11 -14 -18 -17 -15 -3 3 0 12 7 21 18 21 23 19 10 -6z m-1100 -21 c0
-12 -6 -9 -26 13 -19 22 -19 22 4 8 12 -8 22 -17 22 -21z m224 -13 c-10 -8
-28 -14 -39 -15 -18 0 -17 2 5 14 35 19 60 20 34 1z m836 0 c-7 -8 -17 -15
-23 -15 -6 0 -2 7 9 15 25 19 30 19 14 0z m-1010 -5 c8 -5 11 -10 5 -10 -5 0
-17 5 -25 10 -8 5 -10 10 -5 10 6 0 17 -5 25 -10z m834 -12 c-3 -4 -9 -8 -15
-8 -5 0 -9 4 -9 8 0 5 7 9 15 9 8 0 12 -4 9 -9z m102 -9 c3 -5 2 -9 -3 -10 -4
0 -18 -2 -30 -3 -13 -2 -23 3 -23 9 0 14 48 17 56 4z m-721 -89 c3 -6 -1 -7
-9 -4 -18 7 -21 14 -7 14 6 0 13 -4 16 -10z m181 -13 c1 -9 -2 -15 -7 -11 -5
3 -7 9 -4 13 2 5 -6 9 -20 9 -14 0 -22 -4 -19 -9 3 -5 -3 -9 -14 -9 -10 0 -19
6 -19 13 0 8 14 13 40 12 30 0 41 -4 43 -18z m1 -44 c0 -6 -8 -11 -18 -10 -10
1 -15 5 -12 11 4 5 -1 7 -11 3 -9 -4 -15 -3 -12 2 8 13 53 8 53 -6z"/>
<path d="M1386 2735 c4 -8 10 -12 15 -9 11 6 2 24 -11 24 -5 0 -7 -7 -4 -15z"/>
<path d="M1385 2270 c3 -5 8 -10 11 -10 2 0 4 5 4 10 0 6 -5 10 -11 10 -5 0
-7 -4 -4 -10z"/>
<path d="M1156 2195 c-3 -8 -1 -15 4 -15 6 0 10 7 10 15 0 8 -2 15 -4 15 -2 0
-6 -7 -10 -15z"/>
<path d="M1325 2030 c-4 -6 1 -7 11 -3 14 5 15 3 4 -17 -7 -12 -7 -20 -2 -16
6 3 12 2 14 -4 2 -6 8 -6 18 0 13 8 12 10 -2 10 -10 0 -18 4 -18 9 0 5 9 7 20
4 11 -3 20 0 20 6 0 5 -6 8 -14 5 -8 -3 -17 -1 -21 5 -8 14 -22 14 -30 1z"/>
<path d="M1265 2010 c-18 -19 -17 -20 6 -19 13 0 18 3 11 6 -10 4 -10 8 -1 19
18 22 4 17 -16 -6z"/>
<path d="M1675 2300 c3 -5 8 -10 11 -10 2 0 4 5 4 10 0 6 -5 10 -11 10 -5 0
-7 -4 -4 -10z"/>
<path d="M1763 2185 c0 -8 4 -12 9 -9 5 3 6 10 3 15 -9 13 -12 11 -12 -6z"/>
<path d="M1785 2170 c-3 -5 -3 -10 2 -11 4 0 -3 -5 -16 -10 -19 -8 -21 -12
-11 -24 7 -9 16 -13 19 -9 3 4 0 9 -8 12 -9 3 -4 9 15 18 16 7 23 13 16 13 -7
1 -10 6 -7 11 3 6 4 10 1 10 -3 0 -8 -4 -11 -10z"/>
<path d="M1717 2153 c-7 -16 -2 -36 11 -41 11 -3 12 0 3 16 -8 15 -8 22 2 25
9 4 9 6 0 6 -6 1 -14 -2 -16 -6z"/>
<path d="M1579 2096 c6 -7 9 -20 6 -28 -3 -8 1 -21 10 -28 9 -7 15 -8 15 -2 0
6 -6 12 -12 15 -10 3 -10 8 1 21 13 15 13 19 0 27 -21 13 -33 11 -20 -5z"/>
<path d="M1713 2085 c0 -9 4 -14 9 -13 5 2 10 8 10 13 0 5 -5 11 -10 13 -5 1
-9 -4 -9 -13z"/>
<path d="M1768 2083 c-3 -12 0 -20 8 -20 16 0 17 6 5 25 -6 11 -9 9 -13 -5z"/>
<path d="M1762 2053 c-10 -4 -10 -8 -1 -19 15 -18 25 -18 32 0 6 16 -11 26
-31 19z"/>
<path d="M2326 1765 c-3 -8 -1 -15 4 -15 6 0 10 7 10 15 0 8 -2 15 -4 15 -2 0
-6 -7 -10 -15z"/>
<path d="M2415 1640 c-4 -6 -11 -8 -16 -5 -5 4 -9 2 -9 -3 0 -5 11 -9 24 -9
17 0 23 4 19 13 -6 17 -10 17 -18 4z"/>
<path d="M628 1682 c-10 -2 -18 -7 -18 -11 0 -8 47 -7 55 1 8 8 -17 15 -37 10z"/>
<path d="M1230 1630 c0 -11 5 -20 11 -20 5 0 7 -4 4 -10 -3 -5 -1 -10 5 -10 7
0 10 -6 7 -14 -3 -8 1 -20 9 -26 8 -7 14 -19 14 -26 0 -8 5 -14 11 -14 5 0 8
3 6 8 -10 19 -20 49 -22 67 -4 38 -16 65 -31 65 -8 0 -14 -9 -14 -20z"/>
<path d="M1125 570 c-3 -6 1 -7 9 -4 18 7 21 14 7 14 -6 0 -13 -4 -16 -10z"/>
</g>
</svg>
