<?xml version="1.0" standalone="no"?>
<!DOCTYPE svg PUBLIC "-//W3C//DTD SVG 20010904//EN"
 "http://www.w3.org/TR/2001/REC-SVG-20010904/DTD/svg10.dtd">
<svg version="1.0" xmlns="http://www.w3.org/2000/svg"
 width="300.000000pt" height="300.000000pt" viewBox="0 0 300.000000 300.000000"
 preserveAspectRatio="xMidYMid meet">
<metadata>
Created by potrace 1.11, written by Peter Selinger 2001-2013
</metadata>
<g transform="translate(0.000000,300.000000) scale(0.100000,-0.100000)"
fill="#000000" stroke="none">
<path d="M2125 2714 c164 -43 275 -93 386 -175 241 -178 415 -498 422 -775 3
-109 19 -51 19 68 0 151 -21 242 -89 388 -130 277 -401 471 -693 494 -36 3
-56 3 -45 0z"/>
<path d="M2220 2507 c41 -13 95 -34 120 -46 217 -112 384 -349 414 -590 10
-78 18 -59 13 29 -6 94 -11 124 -33 188 -79 237 -296 415 -530 437 l-59 6 75
-24z"/>
<path d="M2210 2346 c213 -69 381 -299 384 -528 1 -63 13 -32 15 39 4 164 -87
340 -221 428 -56 36 -162 76 -196 74 -10 -1 -1 -6 18 -13z"/>
<path d="M1347 2304 c-1 -1 -54 -5 -117 -8 -113 -7 -171 -12 -240 -22 -19 -3
-55 -7 -78 -10 -24 -2 -94 -15 -155 -29 -316 -68 -498 -180 -615 -375 -108
-181 -114 -353 -16 -525 18 -33 42 -70 53 -83 52 -61 239 -39 363 43 22 15 41
25 43 23 2 -2 -15 -47 -37 -101 l-40 -97 52 -142 c48 -131 75 -205 186 -508
57 -155 91 -178 274 -182 75 -2 216 8 230 17 3 1 32 6 65 9 33 4 67 9 75 11 8
2 33 6 55 10 22 3 51 8 65 10 14 2 106 18 205 34 184 31 680 117 725 126 32 7
75 43 84 72 15 48 14 68 -10 161 -43 166 -124 350 -198 451 -36 49 -160 161
-190 172 -23 8 -36 19 -36 31 0 25 1 19 -21 100 -11 40 -28 81 -36 91 -18 20
-7 22 34 6 15 -6 42 -13 58 -16 17 -2 44 -8 60 -12 47 -12 190 -13 233 -2 65
18 77 40 76 135 -4 186 -77 342 -199 426 -181 125 -425 181 -798 184 -81 1
-149 1 -150 0z m183 -48 c14 -3 39 -8 55 -10 66 -8 115 -19 115 -25 0 -4 -24
-4 -52 0 -57 8 -427 5 -468 -4 -23 -5 -47 -9 -145 -22 -57 -8 -124 -19 -180
-31 -28 -5 -29 -5 -10 9 38 27 201 71 335 90 40 6 323 0 350 -7z m207 -42 c-3
-3 -12 -4 -19 -1 -8 3 -5 6 6 6 11 1 17 -2 13 -5z m173 -220 c10 -26 4 -74
-10 -74 -4 0 -13 -13 -19 -30 -5 -16 -12 -30 -15 -30 -6 0 -21 55 -31 112 -6
33 -5 37 17 41 44 8 49 7 58 -19z m-410 -46 c0 -92 3 -86 -37 -92 -21 -3 -69
-8 -108 -12 -38 -3 -83 -8 -100 -10 -16 -2 -57 -6 -90 -10 -33 -4 -63 -8 -66
-10 -7 -4 -33 105 -27 111 4 4 73 10 238 21 52 3 96 7 97 8 6 6 93 0 93 -6z
m-691 -65 c-6 -15 -16 -41 -24 -58 -7 -16 -16 -39 -19 -49 -6 -18 -10 -16 -41
14 -32 31 -34 36 -21 54 17 28 74 66 97 66 16 0 17 -4 8 -27z m1257 -159 c93
-31 135 -36 286 -38 64 0 114 -4 112 -7 -3 -6 -56 -21 -119 -35 -11 -3 -54 -5
-96 -5 -126 -2 -239 42 -314 122 l-30 31 42 -21 c23 -11 76 -32 119 -47z
m-1371 -91 c-58 -153 -147 -257 -265 -308 -33 -15 -67 -20 -137 -20 -50 0 -97
5 -102 10 -7 7 -3 11 13 13 49 4 184 53 222 80 64 46 240 229 267 278 4 8 12
14 17 14 6 0 -2 -30 -15 -67z m1805 -928 c0 -77 -45 -148 -104 -161 -41 -9
-119 -13 -130 -6 -5 3 14 14 41 26 28 11 68 34 91 50 41 28 82 94 82 132 0 16
2 17 10 4 5 -8 10 -29 10 -45z"/>
</g>
</svg>
