<?xml version="1.0" standalone="no"?>
<!DOCTYPE svg PUBLIC "-//W3C//DTD SVG 20010904//EN"
 "http://www.w3.org/TR/2001/REC-SVG-20010904/DTD/svg10.dtd">
<svg version="1.0" xmlns="http://www.w3.org/2000/svg"
 width="300.000000pt" height="300.000000pt" viewBox="0 0 300.000000 300.000000"
 preserveAspectRatio="xMidYMid meet">
<metadata>
Created by potrace 1.11, written by Peter Selinger 2001-2013
</metadata>
<g transform="translate(0.000000,300.000000) scale(0.100000,-0.100000)"
fill="#000000" stroke="none">
<path d="M1318 2145 c-1 -1 -34 -6 -73 -9 -74 -7 -111 -11 -160 -20 -16 -3
-46 -8 -65 -11 -19 -3 -78 -16 -130 -30 -52 -14 -102 -27 -110 -29 -41 -11
-163 -60 -225 -93 -159 -82 -265 -176 -318 -283 -28 -56 -32 -75 -32 -145 0
-70 4 -89 32 -145 92 -188 383 -354 748 -426 11 -2 31 -6 45 -9 129 -27 269
-39 475 -39 143 -1 295 7 350 18 11 2 42 7 68 10 216 32 502 131 631 219 122
84 190 157 231 252 59 132 -1 315 -136 420 -21 17 -51 40 -66 53 -36 30 -230
125 -308 151 -95 31 -164 50 -245 67 -80 17 -83 18 -175 29 -33 4 -69 9 -80
12 -23 5 -451 13 -457 8z"/>
</g>
</svg>
