<?xml version="1.0" standalone="no"?>
<!DOCTYPE svg PUBLIC "-//W3C//DTD SVG 20010904//EN"
 "http://www.w3.org/TR/2001/REC-SVG-20010904/DTD/svg10.dtd">
<svg version="1.0" xmlns="http://www.w3.org/2000/svg"
 width="300.000000pt" height="300.000000pt" viewBox="0 0 300.000000 300.000000"
 preserveAspectRatio="xMidYMid meet">
<metadata>
Created by potrace 1.11, written by Peter Selinger 2001-2013
</metadata>
<g transform="translate(0.000000,300.000000) scale(0.100000,-0.100000)"
fill="#000000" stroke="none">
<path d="M250 2940 c-109 -32 -179 -116 -188 -225 -7 -87 14 -145 93 -258 109
-158 180 -319 225 -509 28 -121 31 -139 45 -293 7 -69 6 -279 0 -340 -37 -337
-117 -567 -276 -792 -69 -97 -94 -170 -86 -253 6 -69 25 -109 78 -160 52 -50
122 -74 198 -67 73 6 126 30 223 100 178 127 437 222 693 252 33 4 69 9 80 11
11 2 81 4 155 4 170 0 270 -8 385 -30 28 -6 59 -12 70 -14 167 -32 352 -110
499 -210 151 -102 168 -110 261 -110 90 -1 130 14 184 66 49 48 74 105 77 171
4 92 -14 133 -129 301 -96 141 -189 390 -213 571 -3 28 -8 52 -9 55 -15 25
-24 349 -13 455 13 128 18 161 34 235 3 14 7 36 10 50 10 55 69 220 106 300
21 47 73 135 114 196 84 125 102 172 99 259 -3 96 -51 170 -140 218 -30 16
-58 21 -115 21 -90 0 -131 -17 -244 -98 -129 -93 -379 -201 -514 -222 -20 -3
-40 -8 -43 -10 -4 -2 -24 -6 -45 -9 -22 -3 -48 -7 -59 -9 -123 -23 -456 -24
-572 -2 -12 3 -43 8 -70 12 -26 5 -50 8 -53 9 -201 42 -410 132 -570 245 -47
33 -101 65 -120 71 -44 14 -137 19 -170 9z m1263 -720 c5 0 42 34 84 75 l76
75 50 -51 50 -51 -79 -79 -79 -79 380 -380 380 -380 -50 -50 -49 -50 -82 81
-81 81 0 -321 c0 -177 -3 -325 -7 -328 -3 -4 -122 -7 -264 -7 l-257 -1 0 -62
c0 -34 -3 -65 -7 -69 -5 -4 -24 -7 -43 -7 -19 1 -48 2 -64 2 l-30 1 2 61 c2
33 -2 64 -8 69 -5 4 -118 8 -250 8 -132 0 -247 0 -255 1 -13 1 -15 42 -14 313
0 172 -2 317 -4 322 -2 4 -39 -26 -82 -69 l-77 -76 -46 45 c-26 25 -47 49 -47
54 0 5 169 179 377 386 l376 377 -79 80 -78 79 49 50 49 50 76 -75 c41 -41 79
-75 83 -75z"/>
<path d="M1225 1720 c-159 -159 -285 -290 -280 -291 6 -1 34 -1 63 0 l52 1 0
-264 0 -263 190 0 c134 -1 190 3 191 11 0 6 1 124 2 263 l0 251 319 -1 c175 0
320 2 323 4 2 3 -125 134 -283 292 l-287 287 -290 -290z"/>
<path d="M1591 1275 c-4 -5 -7 -91 -7 -190 l1 -180 191 -2 191 -1 -1 190 -1
191 -183 1 c-112 1 -187 -3 -191 -9z"/>
</g>
</svg>
