<?xml version="1.0" standalone="no"?>
<!DOCTYPE svg PUBLIC "-//W3C//DTD SVG 20010904//EN"
 "http://www.w3.org/TR/2001/REC-SVG-20010904/DTD/svg10.dtd">
<svg version="1.0" xmlns="http://www.w3.org/2000/svg"
 width="300.000000pt" height="300.000000pt" viewBox="0 0 300.000000 300.000000"
 preserveAspectRatio="xMidYMid meet">
<metadata>
Created by potrace 1.11, written by Peter Selinger 2001-2013
</metadata>
<g transform="translate(0.000000,300.000000) scale(0.100000,-0.100000)"
fill="#000000" stroke="none">
<path d="M0 2513 l0 -488 258 0 c285 0 343 -8 414 -55 79 -52 114 -152 87
-247 -15 -54 -90 -138 -133 -149 -34 -8 -33 -30 2 -38 37 -9 123 -69 148 -103
43 -58 55 -93 55 -161 0 -148 -87 -248 -252 -287 -48 -11 -127 -15 -321 -15
l-258 0 0 -485 0 -485 1500 0 1500 0 0 689 c0 651 -1 689 -17 686 -10 -2 -39
-7 -65 -10 l-48 -6 -2 -187 -3 -187 -60 -13 c-90 -20 -313 -27 -387 -12 -81
15 -189 66 -255 119 -67 54 -135 157 -162 245 -31 100 -29 249 3 345 96 283
386 427 736 367 145 -25 131 -9 128 -149 l-3 -122 -37 -3 c-32 -3 -38 0 -42
20 -2 13 -10 55 -18 93 l-13 70 -65 17 c-242 61 -459 -47 -536 -267 -25 -71
-25 -260 0 -335 48 -143 132 -247 246 -303 62 -30 70 -32 181 -32 83 0 121 4
133 14 13 11 16 37 16 166 l0 153 -31 6 c-17 3 -44 6 -59 6 -16 0 -35 3 -44 6
-19 7 -22 54 -3 54 6 1 101 1 210 1 l197 0 0 785 0 784 -1500 0 -1500 0 0
-487z m1457 -493 c102 -14 195 -59 239 -117 72 -94 68 -221 -8 -308 -42 -47
-129 -105 -160 -105 -26 0 -22 -13 11 -38 48 -35 83 -91 204 -325 22 -43 47
-81 54 -84 7 -3 37 -8 66 -12 47 -5 52 -8 52 -31 l0 -25 -131 -3 -130 -3 -86
178 c-54 111 -101 196 -127 225 -48 54 -111 88 -164 88 l-37 0 0 -204 c0 -142
3 -207 11 -212 7 -4 42 -9 80 -12 55 -4 70 -8 74 -23 4 -10 3 -23 0 -29 -10
-16 -452 -13 -458 3 -11 33 4 44 70 50 36 2 69 9 74 14 5 5 8 193 7 453 -3
499 5 455 -90 465 -59 7 -79 25 -57 51 14 17 383 20 506 4z"/>
<path d="M1240 1739 l0 -211 103 4 c80 3 111 9 144 26 86 45 123 148 89 250
-32 95 -119 142 -263 142 l-73 0 0 -211z"/>
<path d="M0 1497 l0 -473 65 7 c36 5 70 11 75 14 12 7 14 884 2 901 -4 6 -37
14 -74 18 l-68 7 0 -474z"/>
<path d="M290 1760 c0 -145 3 -190 13 -191 35 -4 127 3 168 12 55 12 116 60
135 105 22 53 18 135 -8 174 -47 69 -100 89 -230 90 l-78 0 0 -190z"/>
<path d="M292 1274 l3 -229 80 0 c159 1 237 32 275 111 26 53 27 154 1 209
-42 91 -110 126 -259 133 l-102 5 2 -229z"/>
</g>
</svg>
