<?xml version="1.0" standalone="no"?>
<!DOCTYPE svg PUBLIC "-//W3C//DTD SVG 20010904//EN"
 "http://www.w3.org/TR/2001/REC-SVG-20010904/DTD/svg10.dtd">
<svg version="1.0" xmlns="http://www.w3.org/2000/svg"
 width="300.000000pt" height="300.000000pt" viewBox="0 0 300.000000 300.000000"
 preserveAspectRatio="xMidYMid meet">
<metadata>
Created by potrace 1.11, written by Peter Selinger 2001-2013
</metadata>
<g transform="translate(0.000000,300.000000) scale(0.100000,-0.100000)"
fill="#000000" stroke="none">
<path d="M117 2469 c-42 -11 -67 -29 -82 -59 -13 -26 -15 -138 -13 -926 l3
-896 33 -29 32 -29 1401 0 c1542 0 1442 -4 1470 62 11 27 14 192 14 903 1 490
-3 882 -8 898 -5 15 -25 39 -43 54 l-35 26 -1375 1 c-756 1 -1385 -2 -1397 -5z
m2785 -71 c13 -13 18 -33 18 -81 0 -34 1 -431 1 -882 l0 -820 -22 -17 c-20
-17 -102 -18 -1403 -18 -759 0 -1386 4 -1392 8 -6 4 -15 16 -21 27 -6 13 -9
334 -9 891 1 820 2 873 19 891 17 20 40 20 1404 20 1335 0 1387 -1 1405 -19z"/>
<path d="M181 2344 c-62 -26 -60 -3 -60 -858 l0 -776 35 -35 34 -35 1296 0
c1436 0 1341 -5 1370 65 12 29 14 160 14 794 0 484 -4 769 -10 786 -12 33 -31
52 -62 64 -13 4 -600 8 -1304 8 -1041 0 -1288 -2 -1313 -13z"/>
</g>
</svg>
