<?xml version="1.0" standalone="no"?>
<!DOCTYPE svg PUBLIC "-//W3C//DTD SVG 20010904//EN"
 "http://www.w3.org/TR/2001/REC-SVG-20010904/DTD/svg10.dtd">
<svg version="1.0" xmlns="http://www.w3.org/2000/svg"
 width="300.000000pt" height="300.000000pt" viewBox="0 0 300.000000 300.000000"
 preserveAspectRatio="xMidYMid meet">
<metadata>
Created by potrace 1.11, written by Peter Selinger 2001-2013
</metadata>
<g transform="translate(0.000000,300.000000) scale(0.100000,-0.100000)"
fill="#000000" stroke="none">
<path d="M1490 2876 c0 -2 9 -26 21 -53 42 -99 91 -270 104 -363 25 -184 25
-401 0 -532 -3 -16 -7 -38 -9 -50 -25 -131 -70 -288 -111 -383 -40 -94 -99
-222 -109 -235 -7 -8 -22 -35 -35 -60 -24 -45 -129 -210 -141 -220 -5 -5 -38
-54 -43 -65 -1 -3 41 -8 93 -10 86 -4 131 -9 257 -30 l42 -7 84 83 c87 87 139
158 199 269 33 62 76 166 83 203 2 9 6 21 9 25 3 5 8 28 11 53 3 24 8 53 10
64 2 11 4 41 4 66 l1 46 43 -3 c168 -9 281 -54 318 -126 72 -142 74 -326 3
-536 -47 -140 -125 -272 -207 -351 l-29 -27 39 -29 c42 -32 91 -82 150 -151
l39 -45 45 49 c88 98 103 116 154 193 77 115 150 271 181 384 22 85 26 122 28
245 1 165 -3 199 -39 325 -27 95 -113 281 -167 362 -135 203 -318 397 -555
588 -7 6 -18 15 -25 20 -73 59 -197 148 -304 219 -122 80 -144 93 -144 82z
m457 -580 c48 -50 113 -127 143 -171 55 -80 173 -305 165 -313 -2 -3 -16 3
-30 12 -39 25 -139 55 -209 62 -68 7 -69 7 -72 32 -2 9 -6 33 -9 52 -4 19 -9
45 -11 56 -12 66 -58 225 -88 303 l-34 91 28 -17 c16 -9 68 -57 117 -107z"/>
<path d="M1337 2473 c-2 -5 -12 -32 -22 -62 -9 -29 -24 -65 -31 -80 -8 -14
-14 -30 -14 -34 0 -19 -120 -288 -210 -472 -209 -425 -414 -743 -649 -1005
-42 -47 -85 -93 -96 -102 -19 -16 -1 -17 356 -18 l377 0 11 63 c12 69 21 119
26 157 2 14 11 63 19 110 8 47 18 105 21 130 4 25 10 63 15 85 5 22 11 60 15
85 3 25 8 56 10 70 3 14 7 40 10 58 3 17 8 47 11 65 3 17 7 43 9 57 5 35 14
86 25 145 11 61 21 121 25 155 1 14 5 39 8 55 4 17 9 46 12 65 3 19 8 47 11
62 3 15 7 40 10 57 2 17 6 43 8 59 3 15 8 47 11 72 3 25 8 52 11 60 3 8 8 33
11 55 2 22 8 57 13 78 7 35 6 46 -3 30z"/>
<path d="M1198 585 c-2 -2 -30 -6 -63 -9 -96 -10 -126 -16 -195 -36 -79 -24
-128 -53 -139 -82 -8 -22 -11 -22 -232 -23 l-224 0 3 -50 c2 -27 7 -66 12 -85
5 -19 9 -37 8 -40 -5 -12 46 -87 70 -105 26 -19 45 -20 712 -21 l685 -1 148
146 c81 80 147 148 147 152 0 3 -62 5 -137 5 -135 -1 -163 5 -163 35 0 14
-135 75 -185 84 -127 23 -176 28 -312 30 -73 1 -134 1 -135 0z"/>
</g>
</svg>
