<?xml version="1.0" standalone="no"?>
<!DOCTYPE svg PUBLIC "-//W3C//DTD SVG 20010904//EN"
 "http://www.w3.org/TR/2001/REC-SVG-20010904/DTD/svg10.dtd">
<svg version="1.0" xmlns="http://www.w3.org/2000/svg"
 width="300.000000pt" height="300.000000pt" viewBox="0 0 300.000000 300.000000"
 preserveAspectRatio="xMidYMid meet">
<metadata>
Created by potrace 1.11, written by Peter Selinger 2001-2013
</metadata>
<g transform="translate(0.000000,300.000000) scale(0.100000,-0.100000)"
fill="#000000" stroke="none">
<path d="M1475 2858 c-2 -7 -16 -47 -31 -88 -14 -41 -32 -80 -40 -86 -12 -10
-9 -12 15 -16 36 -5 65 7 39 17 -13 5 -15 12 -6 36 14 40 59 41 77 2 11 -23
10 -29 -4 -39 -13 -10 -12 -12 12 -16 16 -2 39 -1 53 2 21 5 22 8 9 16 -9 5
-29 47 -46 94 -24 67 -35 86 -52 88 -12 2 -23 -3 -26 -10z m34 -80 c1 -5 -8
-8 -19 -8 -23 0 -24 4 -8 33 11 21 11 21 19 2 4 -11 8 -23 8 -27z"/>
<path d="M1195 2836 c-49 -15 -52 -16 -67 -16 -8 0 -6 -5 4 -10 10 -6 23 -40
34 -85 17 -73 17 -75 -2 -90 -24 -18 -14 -18 61 0 32 8 61 12 63 10 2 -2 10 1
16 8 14 12 9 57 -6 57 -5 0 -7 -4 -4 -8 9 -15 -11 -33 -39 -35 -23 -2 -29 3
-36 25 -9 36 13 58 42 40 10 -7 21 -12 24 -12 4 0 -13 46 -22 59 -1 2 -9 -4
-18 -13 -22 -22 -42 -20 -48 4 -3 11 -1 20 4 20 5 0 9 5 9 11 0 5 -4 7 -10 4
-5 -3 -10 -4 -10 0 0 3 12 10 26 15 21 8 29 7 41 -7 13 -17 13 -16 11 7 -4 30
-19 33 -73 16z"/>
<path d="M1764 2834 c8 -22 -44 -164 -60 -164 -26 0 -5 -18 26 -22 28 -4 43 6
20 14 -7 2 -4 22 7 53 l17 50 8 -35 c4 -19 8 -49 10 -67 2 -32 22 -51 33 -32
4 5 10 7 15 4 5 -3 12 0 16 6 4 8 3 9 -4 5 -16 -10 -14 5 3 28 7 10 18 15 24
11 6 -3 9 0 5 8 -3 8 3 20 12 28 15 12 16 12 11 -6 -3 -11 -9 -37 -13 -57 -4
-25 -12 -38 -22 -38 -24 0 -4 -14 39 -26 36 -11 53 -4 28 11 -6 4 -7 14 -4 24
4 9 10 34 12 56 3 22 8 42 12 45 4 3 6 12 6 20 0 8 6 18 15 21 11 5 8 9 -13
18 -25 10 -30 7 -65 -31 -20 -22 -42 -48 -49 -57 -15 -21 -20 -15 -27 39 -13
89 -16 98 -42 103 -18 3 -24 1 -20 -9z"/>
<path d="M915 2739 c-38 -21 -74 -40 -79 -42 -10 -4 2 -47 14 -47 4 0 7 8 6
17 0 9 10 22 23 29 23 12 25 10 58 -58 23 -49 31 -74 23 -82 -15 -15 -12 -22
9 -22 11 0 17 4 15 8 -4 7 5 10 26 10 3 0 14 9 25 20 15 15 16 19 5 18 -30 -4
-38 0 -48 28 -5 15 -9 29 -8 32 0 3 -9 21 -21 41 l-23 36 25 13 c22 12 28 11
47 -6 l21 -19 -18 33 c-11 17 -22 31 -25 31 -3 -1 -36 -19 -75 -40z"/>
<path d="M2145 2581 c-7 -12 12 -24 25 -16 11 7 4 25 -10 25 -5 0 -11 -4 -15
-9z"/>
<path d="M2424 2503 c10 -25 -102 -137 -121 -121 -7 6 -15 9 -18 7 -2 -3 21
-31 52 -63 44 -46 60 -57 71 -49 24 15 26 32 4 26 -12 -3 -28 4 -41 19 l-22
23 26 23 c22 18 30 20 42 11 8 -7 12 -21 10 -31 -7 -25 5 -22 34 8 l24 26 -23
-6 c-32 -10 -46 30 -20 56 20 20 33 24 22 6 -4 -6 -3 -8 3 -5 16 10 34 -18 26
-39 -6 -18 -5 -18 16 0 l22 20 -53 53 c-56 57 -64 62 -54 36z"/>
<path d="M574 2495 c-33 -14 -139 -121 -110 -111 25 9 132 -98 128 -128 -3
-19 -1 -18 28 9 18 17 45 47 60 67 15 21 30 35 32 32 7 -6 -8 74 -17 98 -6 14
-52 40 -81 44 -6 1 -24 -4 -40 -11z m85 -64 c31 -43 31 -66 0 -105 l-22 -28
-63 63 c-61 61 -63 64 -46 82 38 43 96 38 131 -12z"/>
<path d="M2566 2278 c-9 -12 -16 -41 -16 -65 0 -44 -21 -76 -44 -67 -17 7 -28
46 -20 68 3 9 1 16 -4 16 -37 0 -21 -75 21 -100 25 -15 34 -17 51 -7 12 6 23
11 26 10 6 -2 8 13 14 95 4 40 12 49 34 35 10 -6 16 -22 15 -38 -2 -32 20 -29
25 3 4 26 -39 72 -67 72 -11 0 -27 -10 -35 -22z"/>
<path d="M350 2245 c-8 -17 -16 -33 -18 -37 -2 -3 5 -4 15 -2 10 3 38 -6 62
-20 l44 -24 -39 -11 c-21 -5 -61 -15 -87 -22 -37 -9 -51 -18 -63 -42 -15 -28
-15 -29 1 -23 20 7 144 -59 152 -82 5 -11 10 -10 24 9 24 31 24 42 -1 34 -13
-4 -30 1 -46 14 -15 12 -32 21 -39 21 -7 0 -17 6 -23 13 -9 10 -6 13 11 14 29
2 49 7 65 16 7 5 12 3 12 -5 0 -10 2 -10 8 -1 4 6 19 14 34 17 26 4 68 23 68
31 0 2 -36 23 -80 46 -54 29 -80 49 -82 63 -3 18 -5 17 -18 -9z"/>
<path d="M2700 2090 c-12 -8 -11 -10 6 -10 13 0 25 -10 33 -26 6 -15 10 -27 9
-28 -2 -1 -35 -15 -75 -31 -60 -23 -75 -26 -88 -15 -20 16 -19 12 5 -43 23
-52 39 -68 33 -33 -5 23 19 42 38 30 5 -3 9 0 9 6 0 7 7 9 16 6 8 -3 12 -2 9
4 -3 5 7 12 22 16 15 4 33 11 39 16 8 6 15 -1 23 -22 8 -25 7 -32 -4 -37 -8
-3 -15 -9 -15 -15 0 -5 13 -1 29 8 26 16 28 19 15 43 -7 14 -25 52 -39 84 -27
57 -37 65 -65 47z"/>
<path d="M1826 2053 c-1 -2 -97 -4 -212 -6 -221 -3 -213 -1 -205 -44 1 -5 25
-9 55 -9 30 -1 65 -4 80 -8 53 -13 54 -25 54 -481 0 -231 -4 -427 -9 -437 -17
-32 -107 -65 -186 -67 -28 -1 -33 -5 -33 -26 0 -23 3 -24 50 -22 28 1 50 -2
50 -6 0 -5 5 -5 12 -1 16 10 148 11 148 1 0 -5 5 -5 12 -1 16 10 148 11 148 1
0 -4 8 -4 18 0 9 5 87 8 174 8 93 0 154 3 151 9 -4 5 3 7 15 4 14 -4 20 -2 15
5 -4 6 2 8 15 5 12 -3 22 -2 24 4 2 5 10 10 18 12 8 1 25 7 36 14 12 6 25 8
29 4 5 -4 5 -1 1 6 -4 6 -3 12 2 12 9 0 94 79 102 95 3 6 9 9 13 7 5 -1 6 2 3
7 -8 12 4 72 13 67 4 -3 6 30 5 73 -2 61 -8 89 -27 128 -28 53 -87 117 -146
154 l-37 23 33 23 c19 13 39 20 45 17 7 -4 8 -2 4 4 -4 7 -2 12 5 12 7 0 9 3
6 6 -4 4 1 14 11 23 16 14 33 45 33 61 1 3 4 10 8 15 15 20 5 101 -18 148 -51
106 -173 154 -405 160 -59 2 -108 2 -110 0z m78 -74 c-5 -8 -1 -8 13 0 11 6
22 9 24 7 2 -2 26 -7 53 -10 91 -13 137 -70 139 -174 1 -70 -30 -132 -82 -165
-30 -18 -51 -21 -130 -22 l-95 0 -1 168 c0 93 2 173 5 177 3 5 18 11 34 14 16
3 31 8 34 11 9 9 13 5 6 -6z m-5 -453 c10 -6 12 -5 7 2 -9 15 104 6 119 -9 5
-5 16 -9 25 -9 25 0 89 -59 111 -103 42 -82 34 -223 -17 -300 -48 -73 -151
-97 -234 -54 -60 29 -86 71 -84 129 1 25 5 51 8 57 4 6 4 11 -1 11 -9 0 -9
213 1 228 3 6 2 13 -3 16 -5 3 -7 15 -4 25 5 20 44 24 72 7z"/>
<path d="M696 2042 c-3 -3 -6 -15 -6 -27 0 -18 7 -24 39 -29 26 -4 47 -15 60
-32 20 -26 21 -37 21 -443 0 -395 -1 -418 -20 -448 -14 -23 -29 -34 -57 -39
-21 -5 -44 -7 -50 -6 -18 4 -20 -47 -3 -58 5 -3 43 -4 84 -3 56 1 74 -2 69
-10 -5 -9 -3 -9 8 -1 8 5 29 11 48 13 26 2 31 0 25 -11 -6 -10 -5 -11 7 -2 8
7 59 11 131 10 121 -2 130 1 124 40 -2 12 -12 20 -27 22 -54 7 -90 25 -104 51
-11 22 -11 31 -2 41 8 8 8 11 1 7 -14 -8 -16 41 -2 49 5 4 5 10 0 17 -12 14
-10 67 2 86 6 9 5 12 -1 8 -6 -4 -11 4 -10 18 0 14 4 28 9 31 5 4 5 10 0 17
-6 7 -9 35 -8 62 l1 50 75 1 c41 0 81 -5 89 -10 11 -8 13 -8 8 0 -7 13 211 13
232 0 9 -6 12 -5 7 2 -4 7 9 10 43 8 l49 -3 -2 51 -1 51 -240 2 c-131 2 -243
4 -249 6 -14 5 -16 37 -3 37 8 0 8 3 2 8 -14 10 -15 56 -1 64 8 6 8 8 0 8 -14
0 -13 152 1 162 6 5 6 8 -1 8 -6 0 -10 15 -8 38 3 54 3 54 14 47 6 -3 7 1 4
10 -5 11 0 18 15 22 11 3 21 8 21 12 0 4 12 8 27 9 34 3 46 14 41 38 -3 18
-18 19 -230 21 -125 0 -229 -1 -232 -5z"/>
<path d="M199 1925 c-13 -22 -19 -65 -9 -65 5 0 10 4 10 10 0 5 10 8 23 6 12
-3 22 -5 22 -6 0 -1 13 -4 28 -6 62 -10 77 -22 77 -58 0 -32 -20 -66 -40 -66
-34 0 -117 25 -127 38 -16 20 -20 16 -29 -33 -6 -36 -5 -39 9 -27 9 8 18 9 21
3 4 -5 15 -8 26 -6 11 2 20 -1 20 -6 0 -6 4 -8 9 -5 5 4 21 2 36 -4 19 -7 33
-7 48 2 12 7 26 11 30 10 5 -1 6 2 3 7 -3 5 0 21 8 36 8 15 13 34 11 43 -2 9
-4 24 -4 32 -1 21 -45 45 -108 60 -34 8 -53 17 -55 28 -2 10 -6 13 -9 7z"/>
<path d="M2655 1774 c-18 -18 -10 -32 21 -38 24 -5 30 26 9 44 -10 8 -17 6
-30 -6z"/>
<path d="M2680 1510 c0 -48 4 -61 19 -70 13 -7 22 -7 26 0 3 5 2 10 -3 10 -6
0 -12 18 -14 40 -2 22 -1 40 2 40 3 0 22 -16 40 -35 19 -20 48 -43 64 -51 16
-8 27 -11 23 -8 -7 8 33 40 45 37 13 -4 -14 72 -30 85 -31 24 -46 13 -17 -14
26 -24 26 -26 10 -44 -26 -29 -68 -15 -118 39 -16 17 -33 31 -38 31 -5 0 -9
-27 -9 -60z"/>
<path d="M179 1545 c-26 -14 -34 -26 -49 -76 -9 -29 15 -94 41 -116 18 -15
101 -34 93 -22 -3 5 1 9 9 9 8 0 20 7 27 15 7 8 16 13 19 10 4 -2 8 1 9 8 1 7
4 31 7 53 15 95 -75 163 -156 119z m107 -38 c17 6 37 -43 30 -71 -15 -60 -112
-79 -154 -31 -24 28 -23 56 3 84 16 17 75 30 95 21 8 -4 20 -6 26 -3z"/>
<path d="M2715 1362 c-30 -6 -55 -32 -55 -57 0 -33 40 -64 94 -71 53 -8 88 6
104 40 22 48 -70 105 -143 88z m70 -41 c6 -3 19 -7 30 -8 23 -4 38 -24 25 -37
-14 -14 -72 -13 -117 2 -46 15 -58 26 -48 42 7 11 92 12 110 1z"/>
<path d="M269 1196 c-13 -15 -28 -22 -40 -19 -24 7 -49 -13 -49 -38 0 -29 32
-139 41 -139 4 0 5 10 2 23 -3 12 -3 19 1 15 5 -3 27 1 49 11 70 30 108 34
123 14 13 -16 14 -16 11 7 -2 14 -9 38 -16 55 -7 16 -10 37 -8 47 3 10 1 16
-4 13 -4 -3 -14 3 -21 15 -18 28 -63 26 -89 -4z m91 -36 c8 -16 6 -22 -12 -34
-40 -25 -62 -24 -64 4 -4 45 55 69 76 30z m-102 -32 c17 -17 15 -23 -14 -37
-30 -13 -44 -7 -44 19 0 16 9 22 41 29 3 0 10 -4 17 -11z"/>
<path d="M2622 1131 c-15 -49 -15 -56 1 -43 13 11 141 -24 133 -37 -3 -4 8 -5
25 -3 34 5 34 4 14 42 -16 31 -32 42 -21 15 7 -19 6 -19 -70 7 -53 18 -63 25
-58 40 3 10 1 18 -4 18 -5 0 -14 -17 -20 -39z"/>
<path d="M2560 978 c-26 -28 -26 -68 1 -102 18 -22 26 -26 51 -21 23 6 33 3
44 -13 9 -13 21 -18 33 -15 26 7 44 58 30 84 -14 28 -22 23 -14 -10 4 -20 2
-30 -9 -34 -18 -7 -46 17 -46 39 0 8 -4 14 -10 14 -5 0 -10 -7 -10 -15 0 -23
-36 -18 -60 7 l-21 23 25 20 c26 21 35 45 16 45 -5 0 -18 -10 -30 -22z"/>
<path d="M414 965 c-18 -14 -18 -14 7 -15 18 0 29 -8 38 -26 6 -15 10 -27 9
-28 -2 -1 -15 -10 -30 -19 -23 -14 -28 -14 -38 -2 -7 8 -10 24 -7 35 6 25 -1
25 -33 -1 -14 -11 -20 -18 -13 -15 6 4 19 -4 27 -16 15 -21 15 -24 -6 -40 -30
-23 -32 -22 -48 7 -11 20 -11 27 0 40 15 18 0 20 -23 3 -15 -12 -14 -18 16
-75 17 -35 36 -63 40 -63 5 0 6 7 3 15 -4 11 3 19 22 26 15 6 28 9 30 7 2 -2
8 5 13 15 6 9 14 15 20 12 5 -4 9 -2 9 3 0 5 11 14 24 20 19 9 27 8 37 -4 6
-8 14 -13 16 -11 5 6 -77 147 -86 147 -4 0 -16 -7 -27 -15z"/>
<path d="M573 757 c5 -13 -6 -32 -41 -70 -55 -60 -63 -67 -74 -61 -15 9 -8
-13 7 -26 16 -13 76 -20 69 -8 -5 7 84 43 91 37 2 -2 -9 -34 -24 -71 -28 -66
-28 -67 -9 -88 10 -11 24 -18 30 -14 7 4 6 9 -2 14 -9 5 -9 9 -1 14 6 4 16 4
23 0 6 -4 8 -3 5 3 -8 13 39 57 52 49 7 -4 9 -1 5 8 -7 18 28 38 53 29 13 -4
9 3 -11 25 -32 35 -41 40 -33 18 3 -8 -11 -29 -34 -50 -22 -21 -39 -31 -39
-23 0 7 3 17 8 21 4 4 7 13 7 19 0 7 5 12 12 12 6 0 15 4 20 9 5 5 3 6 -4 2
-16 -9 -17 8 -3 35 16 30 -7 32 -74 9 -71 -24 -72 -24 -56 -5 7 8 17 12 23 8
5 -3 7 -2 4 4 -8 13 35 51 51 45 21 -7 2 22 -31 48 -25 20 -30 21 -24 7z"/>
<path d="M2442 668 c6 -18 28 -21 28 -4 0 9 -7 16 -16 16 -9 0 -14 -5 -12 -12z"/>
<path d="M2180 538 c-29 -20 -37 -28 -22 -25 20 5 31 -5 72 -61 l49 -66 -27
-18 c-19 -12 -30 -14 -39 -6 -19 15 -16 4 5 -18 20 -22 43 -29 36 -11 -3 8 8
20 23 28 15 8 30 16 33 19 21 22 64 49 72 44 5 -4 2 8 -6 25 -18 34 -31 42
-21 12 4 -13 -2 -23 -19 -35 -24 -15 -26 -15 -37 7 -7 12 -15 24 -19 27 -3 3
-18 23 -33 44 -20 30 -24 43 -15 53 17 21 -4 14 -52 -19z"/>
<path d="M852 473 c-43 -22 -62 -51 -62 -95 0 -34 6 -47 36 -74 19 -19 45 -34
57 -35 12 0 35 -2 50 -3 19 -1 32 4 38 16 6 10 14 16 20 13 5 -4 9 -3 8 2 -1
4 3 21 9 36 18 42 7 78 -33 113 -42 37 -85 46 -123 27z m101 -30 c29 -33 26
-81 -9 -122 -45 -54 -114 -32 -114 36 0 20 4 32 10 28 6 -3 7 1 4 10 -7 17 14
48 27 39 5 -3 6 2 3 10 -9 23 58 22 79 -1z"/>
<path d="M2016 441 c-4 -5 -20 -12 -36 -16 -31 -7 -42 -25 -15 -25 14 0 35
-37 35 -60 0 -4 -20 -15 -44 -23 l-45 -15 -10 30 c-15 41 -14 48 5 48 8 0 13
4 10 9 -6 10 -96 -20 -96 -31 0 -5 6 -8 13 -8 16 0 70 -141 61 -163 -6 -16 -4
-16 32 -1 50 20 64 34 37 34 -15 0 -24 10 -32 31 -6 18 -11 33 -11 35 0 1 15
6 33 9 17 4 37 11 43 16 14 11 39 -43 30 -66 -6 -18 1 -19 43 -4 31 11 43 29
18 29 -17 0 -68 145 -55 158 6 6 6 12 0 16 -6 3 -13 2 -16 -3z"/>
<path d="M1152 359 c16 -13 16 -19 1 -84 -8 -38 -22 -76 -31 -82 -9 -7 -14
-13 -11 -14 2 0 11 -2 19 -4 57 -13 84 -16 69 -6 -9 6 -15 20 -13 33 1 13 3
29 3 36 1 6 8 12 17 12 8 0 13 -3 11 -7 -3 -5 11 -8 31 -8 35 0 37 -2 34 -30
-2 -16 -10 -35 -18 -42 -19 -14 -8 -21 42 -29 32 -5 36 -4 26 8 -6 8 -9 25 -7
39 3 13 7 35 10 49 11 55 23 85 34 83 6 -2 11 1 11 5 0 5 -20 13 -45 19 -40 9
-60 3 -36 -11 5 -3 5 -20 2 -38 -8 -34 -17 -37 -78 -23 -23 5 -34 45 -13 45 5
0 7 7 4 15 -4 11 1 15 17 15 40 0 7 18 -46 25 -43 6 -48 5 -33 -6z"/>
<path d="M1645 333 c-66 -8 -75 -13 -75 -38 0 -14 5 -25 12 -25 6 0 8 3 5 7
-4 3 -2 12 4 20 14 17 69 17 69 1 0 -7 3 -23 6 -34 7 -26 -29 -39 -50 -18 -22
21 -27 17 -15 -13 6 -16 10 -29 10 -30 -4 -13 1 -12 15 1 16 17 43 22 45 9 7
-45 3 -58 -20 -61 -15 -3 -30 3 -38 14 -12 17 -13 17 -13 -2 0 -20 36 -59 42
-44 3 7 58 18 96 20 18 0 15 20 -3 20 -11 0 -14 7 -11 25 3 14 1 25 -3 25 -4
0 -8 21 -10 47 -1 26 -4 50 -7 55 -3 4 5 12 18 17 20 9 19 10 -12 9 -19 -1
-48 -3 -65 -5z"/>
</g>
</svg>
