<?xml version="1.0" standalone="no"?>
<!DOCTYPE svg PUBLIC "-//W3C//DTD SVG 20010904//EN"
 "http://www.w3.org/TR/2001/REC-SVG-20010904/DTD/svg10.dtd">
<svg version="1.0" xmlns="http://www.w3.org/2000/svg"
 width="300.000000pt" height="300.000000pt" viewBox="0 0 300.000000 300.000000"
 preserveAspectRatio="xMidYMid meet">
<metadata>
Created by potrace 1.11, written by Peter Selinger 2001-2013
</metadata>
<g transform="translate(0.000000,300.000000) scale(0.100000,-0.100000)"
fill="#000000" stroke="none">
<path d="M400 2553 c0 -379 6 -457 26 -370 13 52 16 60 60 154 59 125 154 236
286 334 51 39 236 137 288 153 14 5 27 9 30 10 16 7 182 58 197 61 10 2 55 11
100 20 95 19 115 23 126 24 4 1 7 5 7 9 0 5 -252 9 -560 9 l-560 0 0 -404z"/>
<path d="M2032 2761 c-64 -108 -119 -198 -123 -201 -3 -3 -8 -12 -12 -20 -4
-8 -11 -22 -17 -30 -14 -22 -110 -179 -131 -216 -9 -18 -40 -69 -68 -114 -28
-45 -51 -83 -51 -84 0 -5 -289 -481 -300 -493 -5 -7 -10 -14 -10 -17 0 -3 -70
-121 -156 -263 -86 -142 -173 -286 -193 -319 -31 -53 -238 -395 -309 -512 -13
-20 -25 -45 -29 -54 -3 -10 -9 -18 -13 -18 -5 0 -12 -10 -16 -22 -3 -12 -11
-26 -16 -32 -23 -26 -186 -310 -182 -317 2 -4 102 -6 221 -6 l216 2 78 130
c43 72 81 135 86 141 4 5 15 23 24 40 9 16 67 112 129 214 62 102 124 205 138
230 14 25 33 56 44 69 10 13 18 28 18 33 0 5 13 28 28 51 16 23 114 184 217
357 104 173 192 317 195 320 4 3 13 19 22 35 8 17 106 181 218 365 111 184
259 430 328 545 70 116 130 212 134 213 4 2 8 9 8 15 0 7 18 40 40 75 22 34
40 66 40 71 0 4 -99 8 -220 8 l-221 0 -117 -196z"/>
<path d="M2555 793 c-10 -32 -22 -65 -26 -73 -4 -8 -18 -37 -31 -65 -22 -45
-44 -84 -73 -124 -15 -21 -156 -163 -185 -186 -71 -57 -180 -115 -304 -165
-75 -29 -231 -77 -283 -86 -15 -3 -35 -7 -43 -9 -8 -3 -33 -7 -55 -10 -191
-27 -101 -33 480 -31 l550 1 1 403 c1 221 -2 402 -6 402 -4 0 -15 -26 -25 -57z"/>
</g>
</svg>
