<?xml version="1.0" standalone="no"?>
<!DOCTYPE svg PUBLIC "-//W3C//DTD SVG 20010904//EN"
 "http://www.w3.org/TR/2001/REC-SVG-20010904/DTD/svg10.dtd">
<svg version="1.0" xmlns="http://www.w3.org/2000/svg"
 width="300.000000pt" height="300.000000pt" viewBox="0 0 300.000000 300.000000"
 preserveAspectRatio="xMidYMid meet">
<metadata>
Created by potrace 1.11, written by Peter Selinger 2001-2013
</metadata>
<g transform="translate(0.000000,300.000000) scale(0.100000,-0.100000)"
fill="#000000" stroke="none">
<path d="M393 2774 c4 -7 0 -14 -7 -17 -8 -3 -17 -1 -20 6 -2 7 -5 4 -5 -6 -1
-10 -5 -16 -10 -12 -6 3 -20 -5 -32 -17 -12 -13 -19 -16 -15 -8 4 8 -1 4 -11
-10 -10 -13 -25 -32 -34 -41 -9 -8 -15 -23 -13 -32 1 -10 -2 -15 -7 -11 -11 7
-12 3 -14 -73 -1 -39 2 -60 8 -56 6 3 7 1 3 -6 -4 -6 -2 -19 6 -28 11 -14 11
-16 -2 -8 -12 7 -13 6 -3 -7 7 -8 9 -19 5 -23 -4 -5 -1 -5 6 -1 10 6 18 -7 10
-17 -2 -2 4 -10 12 -19 8 -9 22 -26 30 -38 8 -12 20 -28 27 -35 7 -7 9 -15 6
-19 -4 -3 -1 -6 6 -6 7 0 10 -4 7 -9 -3 -5 0 -11 8 -14 8 -3 20 -22 27 -41 7
-20 17 -36 21 -36 4 0 8 -9 8 -20 0 -11 5 -20 12 -20 6 0 8 -3 5 -7 -4 -3 1
-15 10 -26 13 -15 14 -18 3 -12 -12 6 -13 5 -2 -6 6 -7 12 -21 12 -31 0 -10 5
-18 11 -18 5 0 7 -4 4 -10 -3 -5 0 -10 7 -10 9 0 9 -3 -2 -10 -8 -5 -10 -10
-4 -10 7 0 15 -7 18 -16 4 -10 2 -13 -7 -8 -9 6 -9 5 0 -8 7 -8 10 -18 6 -21
-3 -4 -1 -7 4 -7 6 0 10 -11 9 -25 -2 -13 1 -22 5 -19 8 5 14 -33 10 -63 -1
-7 3 -13 9 -13 6 0 10 -6 9 -12 -5 -38 2 -69 14 -62 9 6 9 4 -1 -7 -13 -14
-17 -43 -4 -35 4 2 8 -4 8 -14 0 -10 -3 -17 -6 -15 -3 2 -6 -5 -6 -15 0 -10 4
-16 9 -13 5 3 6 -4 2 -17 -5 -16 -4 -20 5 -15 9 6 9 3 1 -14 -9 -16 -9 -21 1
-21 9 0 9 -3 -2 -10 -8 -5 -10 -10 -5 -10 10 0 11 -159 1 -186 -3 -8 -1 -14 4
-14 5 0 7 -7 4 -15 -4 -8 -11 -12 -18 -8 -6 3 -6 1 2 -8 13 -14 17 -33 5 -26
-5 3 -9 -27 -10 -66 -1 -39 -6 -73 -11 -76 -5 -3 -8 -21 -7 -38 1 -18 -3 -33
-9 -33 -6 0 -4 -5 4 -10 12 -8 12 -10 1 -10 -8 0 -11 -7 -8 -20 3 -11 1 -18
-4 -14 -8 5 -13 -18 -12 -53 1 -7 -3 -10 -8 -7 -6 3 -8 -6 -5 -20 3 -15 1 -24
-4 -21 -10 6 -22 -23 -14 -36 3 -5 0 -9 -6 -9 -6 0 -8 -5 -5 -10 3 -6 1 -10
-5 -10 -6 0 -8 -4 -5 -10 3 -6 1 -10 -5 -10 -6 0 -9 -4 -5 -9 3 -5 1 -12 -5
-16 -5 -3 -10 -15 -10 -26 0 -10 -3 -19 -8 -19 -4 0 -15 -17 -24 -39 -9 -21
-24 -45 -32 -54 -8 -8 -17 -21 -18 -28 -2 -8 -13 -24 -26 -36 -13 -13 -19 -23
-15 -23 4 0 3 -4 -3 -8 -17 -11 -55 -91 -49 -102 3 -6 3 -10 -2 -10 -12 0 -14
-78 -3 -85 6 -3 10 -12 10 -18 0 -7 -4 -6 -11 3 -8 11 -9 9 -3 -10 4 -14 11
-26 15 -28 5 -2 9 -10 9 -18 0 -8 4 -14 10 -14 5 0 7 -7 4 -15 -4 -9 0 -15 10
-15 9 0 16 -7 16 -16 0 -10 5 -14 16 -10 8 3 13 2 10 -3 -10 -15 86 -38 151
-35 68 3 155 36 192 73 12 12 21 18 21 14 0 -5 4 -3 8 2 7 10 31 25 87 54 16
9 33 20 36 24 3 5 9 8 13 8 19 -3 27 0 22 7 -3 5 1 9 9 10 8 1 22 3 30 4 8 1
15 5 15 10 0 5 4 7 9 3 5 -3 13 0 17 6 4 8 9 7 15 -2 7 -11 9 -9 9 5 0 11 3
16 7 13 3 -4 15 1 25 10 18 16 19 16 13 -3 -6 -18 -6 -18 8 -2 8 10 17 15 20
11 4 -3 14 0 24 8 15 12 16 12 8 -1 -7 -13 -6 -13 7 -2 9 7 27 15 40 16 13 2
31 7 41 11 9 4 24 5 32 1 8 -3 15 -1 15 3 0 5 8 8 18 6 9 -1 23 3 31 9 12 9
13 8 6 -3 -6 -11 -5 -12 6 -5 23 14 51 15 44 2 -4 -7 1 -4 9 6 12 15 16 16 16
5 0 -9 3 -10 8 -3 6 9 295 13 327 4 6 -1 18 -2 27 -1 10 1 26 -2 36 -8 13 -7
22 -7 31 2 9 9 14 9 21 -3 5 -8 12 -11 16 -8 4 4 15 3 25 -3 13 -7 19 -6 19 1
0 6 5 8 10 5 6 -4 7 -12 3 -18 -5 -9 -3 -9 8 0 9 7 20 8 29 3 8 -5 18 -6 22
-4 4 3 8 0 8 -5 0 -6 5 -11 11 -11 5 0 7 6 3 13 -4 6 2 4 14 -6 11 -11 25 -16
31 -13 5 4 12 2 16 -3 3 -6 12 -8 19 -5 8 3 17 1 21 -5 3 -6 15 -11 26 -11 10
0 19 -5 19 -10 0 -6 3 -9 8 -9 21 4 43 -2 38 -10 -3 -5 6 -8 20 -8 15 0 30 -7
35 -14 5 -8 9 -9 9 -4 0 6 4 4 8 -3 5 -7 18 -14 30 -17 12 -2 42 -20 68 -39
26 -20 51 -33 57 -29 5 3 7 1 4 -4 -4 -7 21 -25 61 -44 55 -27 80 -33 142 -35
41 -1 80 1 85 4 6 4 15 7 21 8 6 1 20 9 30 18 11 8 28 23 39 32 11 8 14 12 6
8 -8 -4 -2 9 13 29 19 25 28 48 29 81 1 28 5 42 12 39 5 -4 2 3 -8 14 -13 14
-15 23 -7 28 8 5 8 10 0 20 -7 8 -9 19 -6 24 4 5 -2 14 -11 20 -10 5 -17 13
-16 18 2 11 -30 63 -39 63 -4 0 -8 7 -8 15 0 8 -4 15 -10 15 -5 0 -10 7 -10
15 0 8 -4 15 -10 15 -5 0 -10 7 -10 15 0 7 -6 18 -14 22 -8 4 -14 10 -14 13 2
14 -15 50 -23 50 -6 0 -8 4 -4 9 3 5 -2 17 -11 25 -8 9 -13 16 -9 16 3 0 -1
14 -10 30 -9 17 -12 30 -8 30 5 0 2 4 -5 9 -7 4 -14 20 -16 35 -2 16 -7 31
-12 34 -5 4 -9 16 -8 27 0 11 -4 29 -10 40 -6 11 -9 26 -8 33 2 6 -3 12 -10
12 -9 0 -9 3 0 12 9 9 8 16 -6 32 -9 11 -11 16 -4 12 6 -4 12 -2 12 3 0 6 -4
11 -8 11 -5 0 -9 12 -10 28 -3 42 -7 66 -16 80 -4 7 -2 19 4 27 9 11 9 15 1
15 -6 0 -11 7 -11 15 0 8 6 15 13 15 8 0 9 2 1 8 -6 4 -11 24 -10 45 0 20 -3
37 -7 37 -5 0 -5 4 -2 10 3 5 7 70 9 143 1 73 6 138 10 145 4 7 4 12 0 12 -3
0 -2 6 3 13 5 6 9 28 8 49 0 20 3 34 7 32 4 -2 7 4 7 13 0 24 5 45 15 62 6 9
5 12 -1 8 -5 -3 -10 0 -10 8 0 8 4 12 8 9 4 -2 10 0 14 6 3 5 0 10 -7 10 -8 0
-9 3 -3 8 6 4 11 14 13 22 2 8 7 16 12 18 5 2 6 10 3 18 -3 8 3 24 13 36 11
12 13 18 7 14 -7 -4 -13 -2 -13 3 0 6 5 11 11 11 5 0 7 5 4 10 -3 6 -1 10 5
10 6 0 8 5 5 10 -3 6 -1 10 5 10 6 0 9 4 5 9 -3 5 1 15 8 23 8 7 13 21 11 31
-1 9 2 15 7 11 5 -3 9 1 9 9 0 7 8 22 18 33 9 11 18 26 20 34 2 8 10 20 17 26
8 6 12 14 8 17 -3 4 -1 7 6 7 7 0 9 5 6 10 -3 6 -1 10 4 10 6 0 11 7 11 16 0
8 5 12 10 9 6 -3 10 1 10 9 0 9 4 16 9 16 5 0 12 14 16 30 4 17 11 30 16 30 5
0 7 11 5 25 -3 14 0 25 5 25 5 0 7 11 5 25 -3 14 0 25 6 25 7 0 7 4 -1 13 -6
8 -8 17 -4 20 3 4 2 7 -4 7 -6 0 -9 9 -6 20 3 11 0 20 -6 20 -6 0 -11 9 -11
20 0 11 -5 20 -11 20 -5 0 -7 5 -4 10 3 6 -1 10 -9 10 -8 0 -18 9 -21 20 -4
11 -15 20 -26 20 -11 0 -17 5 -14 10 3 6 -3 11 -14 11 -34 2 -39 4 -48 13 -5
6 -2 6 7 1 8 -5 12 -4 7 0 -12 14 -37 15 -37 2 0 -8 -3 -8 -8 -2 -8 12 -65 18
-58 6 3 -5 -6 -7 -19 -5 -14 1 -25 -1 -25 -5 0 -4 -18 -13 -41 -20 -22 -7 -43
-19 -46 -27 -3 -7 -9 -11 -14 -8 -5 3 -9 -2 -9 -11 0 -9 -4 -14 -9 -11 -5 3
-20 -5 -35 -19 -14 -13 -26 -21 -26 -18 0 3 -9 -2 -20 -12 -11 -10 -20 -15
-20 -11 0 4 -7 0 -16 -8 -8 -9 -20 -14 -25 -11 -5 4 -9 2 -9 -4 0 -10 -38 -27
-52 -23 -5 1 -8 -3 -8 -9 0 -5 -4 -8 -9 -5 -5 4 -11 1 -13 -4 -2 -6 -16 -12
-32 -14 -15 -2 -31 -7 -34 -12 -4 -5 -16 -10 -27 -10 -11 0 -19 -5 -18 -11 1
-5 -10 -9 -25 -7 -14 1 -32 -1 -38 -7 -6 -5 -23 -10 -38 -11 -14 -1 -26 -7
-26 -13 0 -5 -4 -4 -9 4 -6 9 -11 10 -15 2 -4 -6 -12 -9 -17 -6 -5 4 -9 2 -9
-3 0 -4 -16 -8 -35 -7 -20 1 -35 -3 -35 -9 0 -6 -5 -4 -10 4 -6 9 -10 10 -10
3 0 -7 -10 -10 -25 -7 -16 3 -25 0 -25 -8 0 -9 -3 -8 -10 2 -7 11 -10 11 -10
2 0 -7 -5 -10 -10 -7 -6 4 -18 1 -27 -7 -9 -7 -14 -8 -10 -2 8 13 -80 13 -101
0 -6 -4 -12 -3 -12 1 0 12 -104 10 -112 -2 -5 -6 -8 -5 -8 3 0 7 -4 11 -9 7
-5 -3 -12 -1 -15 4 -4 6 -18 6 -36 1 -20 -6 -28 -5 -24 1 4 6 -9 9 -35 6 -23
-2 -41 0 -41 6 0 5 -9 7 -20 4 -11 -3 -20 -1 -20 4 0 5 -5 9 -11 9 -5 0 -8 -4
-5 -9 4 -5 -3 -7 -14 -4 -11 3 -20 10 -20 15 0 6 -8 4 -17 -3 -14 -12 -16 -12
-8 0 6 11 4 13 -8 8 -10 -3 -17 -2 -17 3 0 5 -9 7 -20 5 -11 -2 -20 0 -20 5 0
4 -12 7 -26 5 -15 -1 -28 3 -31 12 -3 8 -12 12 -21 8 -8 -3 -19 0 -23 7 -5 7
-14 13 -21 13 -21 0 -88 28 -88 37 0 4 -7 5 -15 2 -8 -4 -15 -1 -15 4 0 9 -40
28 -48 23 -2 -1 -12 8 -23 21 -11 13 -18 16 -14 8 4 -9 -2 -6 -12 5 -10 11
-25 21 -33 23 -8 2 -16 8 -18 13 -2 5 -10 9 -18 9 -9 0 -13 4 -10 9 3 5 -5 12
-19 15 -14 4 -25 11 -25 17 0 6 -4 7 -10 4 -5 -3 -10 -1 -10 4 0 6 -7 11 -16
11 -9 0 -12 5 -8 13 5 8 2 8 -9 -2 -15 -12 -21 -9 -18 11 0 4 -10 3 -23 -2
-13 -5 -27 -6 -30 -3 -3 4 -17 8 -31 9 -17 2 -23 -1 -18 -9 4 -7 -2 -5 -12 3
-10 8 -16 10 -12 4z m1047 -586 c40 -40 62 -56 74 -52 9 3 13 10 10 15 -3 5 2
9 11 9 9 0 15 3 13 8 -4 8 75 86 91 90 6 1 11 -3 11 -9 0 -5 5 -7 10 -4 6 3
10 1 10 -4 0 -6 14 -24 30 -40 l31 -29 -71 -70 c-38 -39 -70 -74 -70 -78 0 -4
2 -5 5 -2 7 7 275 -261 275 -275 0 -6 2 -8 5 -5 3 3 40 -31 83 -76 42 -44 81
-83 85 -85 5 -2 21 -17 35 -34 15 -16 33 -35 39 -41 45 -39 73 -67 73 -72 0
-3 14 -17 30 -31 38 -32 38 -53 0 -82 -17 -12 -28 -25 -26 -29 3 -5 -5 -9 -16
-9 -14 -1 -42 21 -84 65 -63 65 -64 66 -65 37 -4 -84 -1 -174 5 -184 4 -6 3
-11 -2 -11 -11 0 -9 -50 2 -68 4 -7 3 -12 -2 -12 -11 0 -9 -50 2 -68 4 -7 3
-12 -2 -12 -11 0 -9 -50 2 -68 4 -7 3 -12 -3 -12 -10 0 -9 -46 2 -57 4 -3 2
-12 -4 -20 -6 -7 -8 -13 -4 -13 4 0 2 -7 -5 -15 -10 -12 -16 -13 -26 -4 -11 9
-14 8 -14 -2 0 -11 -2 -11 -10 1 -7 11 -10 11 -10 2 0 -8 -5 -10 -12 -5 -19
11 -37 12 -44 2 -3 -6 -11 -5 -20 2 -11 9 -14 8 -14 -2 0 -12 -2 -12 -9 0 -6
9 -10 10 -16 2 -5 -9 -10 -9 -21 0 -11 9 -14 9 -14 -1 0 -10 -3 -10 -15 0 -12
10 -15 10 -15 -1 0 -12 -2 -12 -9 0 -6 9 -10 10 -16 2 -5 -9 -10 -9 -21 0 -11
9 -14 8 -14 -2 0 -11 -2 -11 -10 1 -9 13 -10 13 -10 0 0 -13 -1 -13 -10 0 -7
12 -12 12 -21 3 -9 -9 -16 -10 -26 -2 -9 9 -13 8 -13 0 0 -7 -5 -9 -12 -4 -36
22 -53 2 -52 -58 1 -27 -3 -49 -8 -49 -5 0 -6 -6 -2 -12 4 -7 4 -10 0 -6 -5 4
-19 3 -32 -2 -19 -8 -22 -6 -17 7 5 12 3 14 -8 7 -20 -12 -39 -14 -39 -3 0 5
-6 9 -13 9 -9 0 -13 13 -13 40 0 22 5 40 10 40 5 0 1 8 -10 19 -12 12 -23 15
-31 9 -7 -5 -14 -5 -17 1 -7 10 -31 9 -42 -2 -4 -4 -13 -2 -21 4 -10 9 -13 8
-13 -2 0 -10 -3 -10 -12 -1 -6 6 -18 8 -27 3 -19 -9 -32 -8 -48 2 -8 5 -13 3
-13 -4 0 -8 -4 -8 -15 1 -12 10 -15 10 -15 -1 0 -12 -2 -12 -9 -1 -4 8 -12 14
-16 14 -4 0 -12 -6 -16 -14 -7 -10 -9 -10 -9 0 0 7 -4 10 -10 7 -19 -12 -50
-14 -56 -3 -4 6 -10 5 -15 -3 -7 -12 -9 -12 -9 0 0 11 -3 11 -15 1 -12 -10
-15 -10 -15 1 0 10 -3 11 -8 3 -5 -9 -10 -9 -18 0 -12 13 -13 65 0 85 6 9 5
12 -1 8 -13 -8 -13 71 0 90 4 6 4 14 -1 17 -4 2 -7 83 -7 178 1 95 0 176 -2
181 -2 4 -35 -24 -72 -62 l-68 -70 -32 31 c-17 17 -31 35 -31 40 0 5 -4 7 -9
3 -5 -3 -12 -1 -16 5 -3 5 -2 10 4 10 6 0 9 6 6 13 -2 6 16 28 39 47 24 19 41
38 39 43 -2 4 0 7 5 7 11 0 212 201 212 212 0 5 3 8 8 6 4 -2 46 36 93 84 47
49 85 88 83 88 -1 0 36 37 82 82 46 45 84 87 84 93 0 6 -27 37 -60 68 -34 31
-57 57 -53 57 4 0 1 5 -7 10 -11 7 -11 10 -2 10 7 0 10 5 7 10 -3 6 1 10 9 10
8 0 18 9 21 20 4 11 11 18 16 15 5 -4 12 0 15 9 9 22 31 9 94 -56z"/>
<path d="M1255 1697 c-244 -245 -272 -276 -241 -264 9 4 16 1 16 -6 0 -8 4 -6
10 3 9 13 10 13 10 0 0 -9 3 -11 8 -5 8 12 27 13 38 2 12 -11 11 -387 -1 -387
-6 0 -6 -3 1 -8 6 -4 10 -19 9 -34 -1 -18 4 -28 17 -31 10 -3 18 0 18 6 0 8 4
7 9 -2 7 -11 9 -11 14 0 4 10 6 10 6 2 1 -7 6 -13 12 -13 5 0 8 4 4 9 -6 10
27 7 45 -4 6 -3 10 -1 10 5 0 6 5 8 11 5 16 -10 99 -11 99 -1 0 5 7 3 15 -4
12 -10 15 -10 15 1 0 11 2 11 10 -1 9 -13 10 -13 10 0 0 13 1 13 10 0 7 -11
10 -11 10 -2 0 8 5 10 12 6 8 -5 9 -2 5 9 -4 10 -1 17 6 17 8 0 9 3 1 8 -13 9
-13 104 1 114 7 5 6 8 0 8 -7 0 -11 35 -10 90 0 50 3 90 8 90 4 0 5 6 0 13
-12 18 -11 67 1 67 6 0 6 4 -1 11 -24 24 -3 34 70 33 41 -1 78 3 86 10 12 8
13 8 7 -1 -5 -10 4 -12 36 -11 24 2 49 -1 56 -5 6 -5 12 -5 12 0 0 4 26 7 58
6 31 0 63 4 71 10 11 9 13 9 8 0 -6 -9 10 -12 63 -10 39 1 72 -2 74 -8 3 -5 5
-2 5 8 1 10 -76 95 -179 198 -99 99 -180 185 -180 190 0 5 -3 8 -7 7 -5 -2
-34 23 -66 55 -31 31 -58 57 -60 56 -1 0 -110 -109 -242 -242z"/>
<path d="M1572 1300 c-9 -6 -8 -317 0 -326 11 -10 98 -10 98 1 0 6 5 3 10 -5
7 -11 10 -11 10 -2 0 7 5 10 11 6 16 -10 129 -10 129 0 0 5 6 3 14 -3 11 -9
15 -9 19 1 4 10 6 10 6 1 1 -9 7 -8 20 4 13 10 17 22 13 32 -10 21 -9 42 2 60
5 8 4 16 -5 21 -10 7 -10 11 0 24 9 11 10 16 2 16 -13 0 -10 22 4 32 6 5 5 8
-3 8 -9 0 -10 5 -2 19 7 14 6 21 -3 24 -9 3 -9 7 2 20 11 14 11 17 0 17 -11 0
-11 2 1 10 11 7 12 10 2 10 -8 0 -11 7 -8 18 5 16 -6 17 -155 17 -88 0 -164
-2 -167 -5z"/>
</g>
</svg>
