<?xml version="1.0" standalone="no"?>
<!DOCTYPE svg PUBLIC "-//W3C//DTD SVG 20010904//EN"
 "http://www.w3.org/TR/2001/REC-SVG-20010904/DTD/svg10.dtd">
<svg version="1.0" xmlns="http://www.w3.org/2000/svg"
 width="300.000000pt" height="300.000000pt" viewBox="0 0 300.000000 300.000000"
 preserveAspectRatio="xMidYMid meet">
<metadata>
Created by potrace 1.11, written by Peter Selinger 2001-2013
</metadata>
<g transform="translate(0.000000,300.000000) scale(0.100000,-0.100000)"
fill="#000000" stroke="none">
<path d="M515 2255 c-5 -2 -22 -6 -37 -9 l-28 -6 0 -696 c0 -608 2 -695 15
-700 14 -6 85 -8 168 -5 l37 1 0 168 0 168 60 59 c33 32 63 56 66 52 11 -10
64 -139 64 -154 0 -7 5 -13 10 -13 6 0 10 -7 10 -15 0 -8 12 -40 26 -72 14
-32 30 -67 34 -78 44 -103 51 -115 73 -116 61 -3 179 0 184 5 7 6 -18 76 -53
153 -13 28 -24 55 -24 58 0 4 -16 40 -35 81 -19 40 -35 76 -35 79 0 5 -10 30
-55 130 -29 66 -45 108 -45 120 0 13 17 34 96 117 57 60 78 65 89 21 3 -14 14
-44 25 -67 10 -22 32 -72 49 -109 17 -38 31 -70 31 -72 0 -3 11 -28 24 -57 51
-113 81 -183 81 -188 1 -3 11 -27 24 -55 12 -27 26 -59 31 -70 60 -140 68
-151 108 -146 6 1 12 -5 12 -14 0 -41 25 0 73 115 28 69 57 129 64 133 7 4 13
20 13 35 0 16 4 32 8 38 5 5 15 25 22 44 19 51 62 150 97 227 l17 37 18 -40
c16 -35 39 -91 42 -104 1 -3 11 -25 23 -50 12 -25 38 -85 58 -135 21 -49 48
-112 60 -140 12 -27 29 -67 36 -88 15 -43 25 -54 54 -57 49 -5 56 0 86 68 42
94 44 99 79 177 18 39 38 86 45 105 7 19 29 70 49 113 20 43 36 80 36 82 0 3
12 30 26 62 14 32 32 74 41 93 8 19 23 53 33 75 9 22 25 58 34 80 10 22 22 50
28 63 9 17 9 25 -1 35 -15 15 -162 22 -188 9 -10 -6 -34 -46 -52 -89 -19 -43
-45 -103 -58 -133 -29 -65 -45 -101 -67 -155 -10 -22 -21 -49 -26 -60 -5 -11
-16 -39 -26 -62 -10 -24 -21 -43 -25 -43 -3 0 -12 15 -19 33 -7 17 -19 48 -28
67 -8 19 -15 41 -15 48 0 6 -4 12 -9 12 -4 0 -8 6 -8 13 0 7 -11 37 -25 65
-14 29 -25 58 -25 65 0 7 -4 17 -8 23 -5 5 -14 23 -20 39 -6 17 -17 44 -23 60
-7 17 -13 32 -14 35 -23 70 -46 90 -100 89 -80 -2 -90 -9 -129 -101 -9 -20
-16 -43 -16 -52 0 -9 -4 -16 -10 -16 -5 0 -10 -6 -10 -13 0 -13 -19 -59 -41
-99 -5 -10 -9 -24 -9 -33 0 -8 -9 -19 -20 -25 -11 -6 -17 -16 -14 -25 8 -20
-56 -165 -72 -165 -12 0 -30 37 -26 53 1 4 -3 7 -8 7 -6 0 -10 5 -10 10 0 6
-9 30 -20 52 -11 23 -20 50 -20 59 0 10 -6 24 -13 31 -11 11 -51 94 -53 108 0
6 -38 90 -67 150 -20 41 -26 46 -67 52 -68 10 -161 9 -201 -2 -25 -7 -64 -39
-130 -105 -51 -52 -99 -93 -106 -90 -8 2 -13 -3 -13 -13 0 -23 -75 -96 -89
-88 -8 5 -11 119 -11 372 0 200 -3 365 -7 365 -5 1 -26 3 -49 4 -22 1 -52 5
-65 7 -13 3 -28 5 -34 3z"/>
<path d="M2250 1885 c-10 -12 -10 -15 4 -15 9 0 16 7 16 15 0 8 -2 15 -4 15
-2 0 -9 -7 -16 -15z"/>
<path d="M1065 1440 c-8 -13 5 -13 25 0 13 8 13 10 -2 10 -9 0 -20 -4 -23 -10z"/>
</g>
</svg>
