<?xml version="1.0" standalone="no"?>
<!DOCTYPE svg PUBLIC "-//W3C//DTD SVG 20010904//EN"
 "http://www.w3.org/TR/2001/REC-SVG-20010904/DTD/svg10.dtd">
<svg version="1.0" xmlns="http://www.w3.org/2000/svg"
 width="300.000000pt" height="300.000000pt" viewBox="0 0 300.000000 300.000000"
 preserveAspectRatio="xMidYMid meet">
<metadata>
Created by potrace 1.11, written by Peter Selinger 2001-2013
</metadata>
<g transform="translate(0.000000,300.000000) scale(0.100000,-0.100000)"
fill="#000000" stroke="none">
<path d="M204 2262 c-28 -6 -42 -22 -18 -23 150 -6 184 -34 189 -153 5 -107 5
-956 0 -1071 -6 -167 -21 -197 -103 -205 -49 -5 -71 -14 -60 -25 6 -6 50 -7
273 -6 88 0 202 0 253 0 52 -1 96 2 99 5 12 12 -7 18 -67 22 -33 3 -72 9 -85
14 -34 13 -54 58 -61 137 -11 128 -8 1203 3 1214 16 16 110 18 164 4 87 -23
164 -92 208 -185 23 -49 26 -67 26 -170 0 -102 -3 -120 -24 -163 -31 -59 -95
-129 -140 -152 -33 -16 -71 -26 -116 -29 -23 -1 -38 -18 -24 -27 19 -12 155 2
215 21 142 47 240 142 294 285 19 48 21 65 24 144 6 147 -46 237 -177 310 -20
11 -51 23 -69 26 -17 3 -34 8 -38 10 -17 10 -122 18 -220 17 -212 -2 -357 -2
-441 0 -47 2 -94 1 -105 0z"/>
<path d="M1030 2261 c0 -4 19 -13 43 -20 93 -28 179 -98 218 -180 16 -33 23
-69 25 -131 6 -149 -39 -266 -138 -359 l-53 -50 -1 -233 c-3 -386 -13 -461
-67 -472 -12 -3 -39 -7 -60 -10 -21 -2 -41 -7 -44 -10 -11 -11 37 -21 89 -19
52 2 267 3 398 1 106 -1 122 1 118 14 -3 7 -28 14 -64 16 -122 6 -134 34 -141
350 l-5 232 23 1 c103 5 177 3 195 -4 11 -5 28 -21 37 -37 18 -29 124 -176
215 -298 66 -88 190 -222 205 -222 6 0 18 -7 27 -15 56 -50 381 -50 495 1 227
100 319 389 188 589 -51 77 -156 162 -243 195 -19 7 -39 16 -43 20 -4 4 21 36
56 71 40 41 76 89 97 132 29 59 34 79 33 142 0 126 -65 215 -189 262 -79 30
-125 35 -284 33 -174 -2 -204 -2 -327 3 -56 2 -100 1 -98 -3 2 -3 18 -7 35 -8
18 -1 45 -9 61 -17 16 -9 29 -13 29 -10 0 11 77 -34 106 -62 70 -69 102 -133
110 -220 5 -51 1 -81 -20 -172 -9 -41 -68 -130 -131 -199 -55 -60 -60 -69 -61
-114 0 -27 4 -55 10 -61 6 -7 56 -68 110 -137 54 -69 102 -129 107 -134 4 -4
7 87 7 202 0 116 2 215 5 219 8 12 124 7 175 -7 164 -44 285 -235 276 -435 -3
-72 -8 -94 -27 -132 -73 -139 -215 -150 -342 -26 -55 54 -118 129 -348 413
l-85 105 63 65 c34 36 73 76 85 89 12 13 41 60 63 105 39 76 41 86 43 176 2
86 -1 100 -27 151 -15 31 -40 70 -54 88 -72 85 -218 125 -445 123 -219 -2
-376 -2 -412 2 -21 2 -38 1 -38 -3z m1215 -82 c87 -22 166 -123 180 -229 3
-25 7 -54 9 -65 5 -35 -24 -139 -50 -177 -14 -20 -42 -44 -62 -54 -45 -21
-183 -28 -207 -10 -14 10 -16 38 -16 206 0 346 -1 328 19 333 32 9 83 7 127
-4z m-648 -29 c23 -10 64 -40 91 -67 78 -78 111 -214 88 -365 -4 -26 -7 -50
-6 -53 0 -3 -11 -27 -24 -53 -31 -61 -83 -108 -136 -122 -53 -14 -205 -6 -234
13 l-23 15 1 316 c1 196 5 319 11 325 25 24 170 19 232 -9z"/>
</g>
</svg>
