<?xml version="1.0" standalone="no"?>
<!DOCTYPE svg PUBLIC "-//W3C//DTD SVG 20010904//EN"
 "http://www.w3.org/TR/2001/REC-SVG-20010904/DTD/svg10.dtd">
<svg version="1.0" xmlns="http://www.w3.org/2000/svg"
 width="316.000000pt" height="316.000000pt" viewBox="0 0 316.000000 316.000000"
 preserveAspectRatio="xMidYMid meet">
<metadata>
Created by potrace 1.11, written by Peter Selinger 2001-2013
</metadata>
<g transform="translate(0.000000,316.000000) scale(0.100000,-0.100000)"
fill="#000000" stroke="none">
<path d="M1780 2849 c-140 -19 -149 -20 -240 -43 -507 -129 -963 -467 -1222
-904 -132 -222 -238 -506 -263 -702 -3 -25 -7 -56 -9 -70 -16 -91 -23 -391
-11 -450 3 -14 7 -51 10 -84 3 -32 7 -62 9 -65 3 -4 7 -27 11 -51 14 -97 67
-268 122 -398 l35 -82 188 0 187 0 -58 116 c-117 233 -170 449 -174 709 -4
191 6 291 42 430 8 33 16 67 18 75 2 9 20 60 40 115 145 388 414 697 775 892
41 23 100 51 130 63 30 12 64 26 75 31 23 10 149 49 177 54 10 2 22 6 26 9 4
2 28 7 52 11 25 3 69 11 99 16 93 19 397 15 497 -5 12 -2 37 -7 55 -10 157
-25 443 -138 564 -222 11 -8 23 -14 26 -14 4 0 33 37 65 83 32 45 73 103 91
129 18 26 33 50 33 52 0 10 -151 98 -240 139 -150 71 -346 135 -495 162 -186
34 -430 39 -615 14z"/>
<path d="M1515 1711 c-85 -26 -125 -45 -181 -87 -128 -96 -210 -240 -221 -390
l-6 -71 167 0 166 0 0 25 c0 69 39 134 109 182 44 30 140 36 194 11 122 -56
158 -173 94 -302 -23 -46 -233 -359 -266 -396 -6 -7 -11 -15 -11 -18 0 -3 -5
-11 -10 -18 -10 -11 -175 -248 -373 -534 l-78 -113 469 0 469 0 36 52 c20 29
70 103 111 163 l75 110 -259 3 c-215 2 -260 5 -260 16 0 8 4 16 8 18 12 5 376
537 400 583 18 36 36 93 48 150 9 39 5 147 -6 203 -26 126 -121 267 -230 339
-25 17 -76 43 -115 58 -90 37 -236 44 -330 16z"/>
<path d="M2536 1678 c-20 -29 -44 -64 -53 -78 -10 -14 -44 -63 -76 -109 -32
-45 -56 -85 -54 -87 2 -3 66 -5 141 -5 l136 0 0 -699 0 -700 165 0 c164 0 165
0 166 23 1 30 1 1667 0 1690 -1 16 -17 17 -195 17 l-194 0 -36 -52z"/>
</g>
</svg>
