<?xml version="1.0" standalone="no"?>
<!DOCTYPE svg PUBLIC "-//W3C//DTD SVG 20010904//EN"
 "http://www.w3.org/TR/2001/REC-SVG-20010904/DTD/svg10.dtd">
<svg version="1.0" xmlns="http://www.w3.org/2000/svg"
 width="300.000000pt" height="300.000000pt" viewBox="0 0 300.000000 300.000000"
 preserveAspectRatio="xMidYMid meet">
<metadata>
Created by potrace 1.14, written by Peter Selinger 2001-2017
</metadata>
<g transform="translate(0.000000,300.000000) scale(0.100000,-0.100000)"
fill="#000000" stroke="none">
<path d="M790 2981 c-13 -25 -14 -2247 -1 -2255 5 -4 328 -6 718 -6 l708 -1 3
241 2 240 -435 0 c-341 0 -435 3 -435 13 0 6 0 404 0 884 0 781 -1 873 -16
887 -13 14 -52 16 -274 16 -246 0 -260 -1 -270 -19z"/>
<path d="M785 468 c-3 -13 -4 -122 -3 -243 l3 -220 718 -3 717 -2 0 245 0 245
-715 0 -715 0 -5 -22z"/>
</g>
</svg>
