<?xml version="1.0" standalone="no"?>
<!DOCTYPE svg PUBLIC "-//W3C//DTD SVG 20010904//EN"
 "http://www.w3.org/TR/2001/REC-SVG-20010904/DTD/svg10.dtd">
<svg version="1.0" xmlns="http://www.w3.org/2000/svg"
 width="300.000000pt" height="300.000000pt" viewBox="0 0 300.000000 300.000000"
 preserveAspectRatio="xMidYMid meet">
<metadata>
Created by potrace 1.11, written by Peter Selinger 2001-2013
</metadata>
<g transform="translate(0.000000,300.000000) scale(0.100000,-0.100000)"
fill="#000000" stroke="none">
<path d="M1338 2835 c-3 -3 -16 -8 -29 -10 -13 -3 -37 -8 -54 -11 -16 -4 -41
-7 -55 -8 -14 0 -28 -5 -31 -9 -3 -4 -16 -9 -27 -10 -12 -1 -22 -4 -22 -8 0
-4 -8 -6 -17 -5 -9 2 -29 -4 -44 -11 -15 -8 -38 -16 -50 -18 -13 -3 -26 -10
-29 -16 -4 -6 -11 -11 -16 -11 -5 0 -19 -4 -32 -9 -13 -5 -28 -9 -33 -9 -5 0
-9 -4 -9 -9 0 -5 -13 -14 -29 -19 -35 -12 -157 -92 -195 -127 -15 -14 -30 -25
-33 -25 -9 0 -177 -177 -203 -214 -14 -20 -33 -46 -42 -57 -10 -12 -20 -30
-23 -40 -4 -11 -11 -19 -16 -19 -6 0 -8 -4 -5 -9 3 -5 -1 -12 -9 -15 -8 -3
-14 -9 -14 -13 1 -4 -17 -48 -41 -97 -23 -49 -43 -94 -45 -100 -1 -6 -7 -22
-12 -36 -6 -14 -9 -28 -6 -32 2 -5 -1 -8 -8 -8 -7 0 -9 -3 -6 -6 3 -4 2 -15
-4 -25 -7 -14 -6 -19 3 -19 10 0 10 -2 1 -8 -6 -4 -15 -21 -18 -37 -3 -17 -8
-37 -10 -45 -2 -8 -4 -25 -4 -38 -1 -16 -5 -21 -14 -16 -8 5 -8 2 2 -9 11 -14
11 -17 0 -17 -11 0 -11 -2 1 -10 8 -5 10 -10 3 -10 -17 0 -18 -286 -1 -293 10
-4 10 -6 1 -6 -7 -1 -13 -6 -13 -12 0 -5 5 -7 10 -4 6 3 10 1 10 -4 0 -6 -6
-11 -12 -11 -10 0 -9 -3 0 -9 8 -5 14 -25 14 -45 0 -20 3 -34 6 -32 4 2 7 -6
8 -17 1 -21 11 -72 14 -72 1 0 7 -28 14 -63 1 -7 7 -17 13 -23 6 -6 9 -18 6
-25 -3 -8 0 -14 6 -14 6 0 11 -6 11 -14 0 -19 42 -120 52 -124 4 -2 8 -9 8
-17 0 -7 7 -18 15 -25 8 -6 14 -15 13 -18 -3 -9 52 -95 66 -104 6 -4 7 -8 2
-8 -5 0 1 -9 14 -20 13 -11 20 -20 15 -20 -4 0 3 -9 16 -20 13 -10 21 -19 18
-20 -16 0 184 -190 201 -190 5 0 14 -9 20 -20 6 -11 17 -20 24 -20 7 0 21 -9
31 -20 10 -11 21 -20 26 -20 4 0 37 -19 75 -41 37 -23 72 -43 78 -44 39 -10
56 -19 56 -28 0 -6 3 -7 7 -4 3 4 12 2 20 -4 7 -6 13 -9 13 -6 0 3 15 0 34 -8
18 -8 36 -11 40 -8 3 4 6 1 6 -6 0 -8 7 -11 15 -7 8 3 15 2 15 -3 0 -4 6 -8
13 -8 19 -1 80 -13 87 -18 13 -8 94 -17 166 -20 39 -1 76 -5 82 -9 7 -4 12 -4
12 1 0 4 50 8 110 8 61 0 110 2 110 6 0 3 6 6 13 6 23 1 102 15 109 20 9 5 56
15 76 16 6 0 12 3 12 7 0 3 8 6 18 7 9 1 35 10 57 19 22 10 43 17 48 16 4 -1
7 2 7 8 0 6 3 9 8 8 13 -3 92 34 92 43 0 5 9 9 20 9 11 0 20 5 20 10 0 6 5 10
11 10 10 0 91 53 115 75 7 5 25 19 40 30 46 30 224 216 224 232 0 8 4 12 9 9
9 -6 26 22 22 37 0 4 6 10 14 13 8 4 15 12 15 20 0 8 5 14 10 14 6 0 10 6 10
14 0 7 7 19 15 26 8 7 12 16 9 21 -3 5 0 9 5 9 6 0 11 7 11 15 0 8 5 15 12 15
6 0 8 3 5 7 -4 3 0 17 8 30 9 13 12 23 8 23 -5 0 -3 4 2 8 23 16 84 192 88
255 1 9 4 17 7 17 4 0 7 6 7 13 0 6 4 32 8 57 19 108 11 387 -13 493 -4 15 -4
22 -3 39 1 9 -3 19 -9 23 -5 3 -10 19 -10 35 0 16 -4 32 -10 35 -5 3 -10 12
-10 20 0 8 -5 26 -12 42 -6 15 -12 30 -13 33 -1 3 -8 19 -15 35 -7 17 -14 32
-15 35 0 3 -9 21 -20 40 -11 19 -18 38 -17 43 1 4 -3 7 -9 7 -5 0 -8 4 -5 9 4
5 2 11 -2 13 -4 1 -28 33 -52 71 -24 37 -48 67 -52 67 -4 0 -8 5 -8 11 0 6 -6
16 -12 24 -7 7 -37 38 -66 69 -29 31 -58 56 -64 56 -6 0 -8 3 -5 6 6 6 -22 31
-87 79 -15 11 -39 30 -53 42 -14 12 -43 30 -64 40 -22 10 -39 21 -39 26 0 4
-7 7 -15 7 -8 0 -15 5 -15 11 0 5 -4 8 -9 4 -5 -3 -12 -1 -16 5 -4 6 -11 8
-16 5 -5 -4 -9 -1 -9 4 0 6 -9 11 -20 11 -11 0 -20 4 -20 9 0 9 -48 26 -62 23
-5 -1 -8 2 -8 7 0 6 -9 8 -19 6 -11 -2 -22 3 -25 10 -2 7 -13 12 -23 10 -10
-1 -23 1 -28 6 -6 4 -24 10 -40 13 -17 2 -30 5 -30 6 0 3 -91 21 -115 22 -8 0
-19 4 -25 8 -16 12 -305 11 -328 -1 -14 -8 -18 -8 -13 0 7 11 3 15 -6 6z
m-393 -1000 c16 -3 35 -11 42 -17 7 -6 13 -8 13 -4 0 10 82 -47 118 -81 18
-18 29 -33 25 -33 -4 0 -3 -4 3 -8 10 -6 61 -97 55 -97 -2 0 0 -11 3 -25 10
-46 14 -100 7 -100 -3 0 -7 -15 -7 -32 -1 -27 -5 -48 -13 -75 -1 -2 0 -4 1 -5
2 -2 -7 -17 -20 -35 -12 -17 -22 -34 -22 -38 0 -26 -144 -132 -192 -141 -5 -1
-9 -2 -10 -4 -19 -14 -207 -15 -221 -1 -5 5 -16 7 -23 4 -8 -3 -14 0 -14 6 0
6 -3 10 -7 9 -12 -2 -65 25 -86 44 -58 52 -77 73 -82 89 -4 11 -11 19 -16 19
-5 0 -9 6 -9 13 0 8 -7 28 -16 45 -8 18 -13 36 -10 41 4 5 2 12 -2 15 -5 3 -8
34 -6 68 3 71 8 98 23 126 6 11 7 22 4 26 -3 3 -1 6 5 6 7 0 12 6 12 14 0 17
92 116 108 116 6 0 12 5 12 10 0 6 7 10 15 10 8 0 15 5 15 11 0 6 7 8 17 5 9
-4 19 -2 23 4 4 6 20 13 36 16 16 3 30 7 33 9 5 6 150 -2 186 -10z m563 -13
c-1 -4 9 -25 23 -47 14 -22 34 -56 45 -75 10 -19 25 -43 33 -52 8 -10 11 -18
7 -18 -4 0 2 -10 14 -22 11 -12 20 -25 20 -29 0 -4 18 -37 40 -73 22 -36 40
-68 40 -72 0 -6 26 -34 32 -34 9 0 3 46 -6 52 -8 5 -7 8 1 8 7 0 10 11 8 28
-3 25 5 35 66 83 38 29 69 56 69 59 0 3 9 6 21 7 16 2 18 -1 9 -12 -8 -10 -8
-14 2 -18 10 -4 10 -8 -2 -16 -12 -8 -12 -11 -1 -11 10 0 11 -3 2 -14 -9 -11
-9 -15 1 -19 10 -4 10 -8 -2 -16 -12 -8 -12 -11 -1 -11 10 0 11 -3 2 -14 -9
-11 -9 -15 1 -19 10 -4 10 -8 -2 -16 -12 -8 -12 -11 -1 -11 10 0 11 -3 2 -14
-9 -11 -9 -15 1 -19 10 -4 10 -8 -2 -16 -12 -8 -12 -11 -1 -11 10 0 11 -3 2
-14 -9 -11 -9 -15 1 -19 10 -4 10 -8 -2 -16 -12 -8 -12 -11 -1 -11 10 0 11 -3
2 -14 -9 -11 -9 -15 1 -19 10 -4 10 -8 -2 -16 -12 -8 -12 -11 -1 -11 10 0 11
-3 2 -14 -9 -11 -9 -15 1 -19 10 -4 10 -8 -2 -16 -12 -8 -12 -11 -1 -11 10 0
11 -3 2 -14 -9 -11 -9 -15 1 -20 10 -5 10 -7 -1 -12 -11 -5 -11 -8 0 -15 11
-7 10 -9 -3 -9 -10 0 -18 -4 -18 -9 0 -5 -12 -7 -27 -3 -35 9 -55 9 -70 -1 -8
-5 -13 -3 -13 4 0 9 -3 9 -14 0 -11 -9 -18 -8 -30 4 -9 9 -16 22 -16 30 0 7
-7 15 -15 19 -8 3 -15 10 -15 16 0 5 -33 65 -73 133 -40 67 -86 146 -102 175
-15 28 -31 50 -34 47 -3 -3 -6 -99 -7 -213 -1 -114 -2 -210 -3 -213 -2 -9 -84
-4 -100 5 -9 6 -12 5 -7 -2 4 -7 -3 -10 -21 -8 l-28 3 -1 347 -1 347 69 -2
c37 -1 71 0 74 4 7 7 34 -2 32 -11z m362 6 c22 2 40 0 40 -5 0 -11 -58 -62
-64 -56 -2 3 -11 -4 -18 -16 -7 -12 -18 -21 -25 -21 -6 0 -14 -6 -16 -12 -9
-21 -23 7 -21 39 1 15 3 39 3 52 1 18 5 22 21 18 11 -3 23 0 27 6 4 7 8 7 10
1 2 -5 21 -8 43 -6z m688 -2 c10 -6 8 -43 -2 -54 -3 -2 -1 -13 5 -23 7 -14 6
-19 -3 -19 -9 0 -9 -3 0 -12 18 -18 -17 -39 -42 -26 -12 7 -16 7 -12 0 4 -6
-2 -10 -14 -9 -11 1 -20 6 -20 12 0 6 -3 7 -8 0 -4 -5 -37 -10 -75 -10 -38 0
-67 4 -67 10 0 7 -3 7 -8 0 -4 -5 -14 -10 -22 -10 -12 0 -15 -14 -17 -62 -1
-35 1 -63 5 -64 4 0 52 -2 107 -3 55 -2 103 -4 106 -4 8 -3 5 -34 -5 -50 -4
-6 -3 -12 1 -12 12 0 3 -69 -10 -77 -6 -4 -7 -1 -2 7 6 9 4 11 -6 4 -16 -9
-105 -8 -121 2 -7 5 -8 2 -3 -6 5 -9 2 -10 -14 -5 -33 10 -64 -4 -58 -26 3
-10 0 -19 -6 -20 -8 0 -8 -2 -1 -5 6 -2 8 -18 6 -34 -5 -32 12 -62 31 -54 26
9 77 11 77 2 0 -5 8 -5 18 1 10 5 24 6 31 1 8 -4 25 -5 40 -1 34 8 53 7 70 -3
10 -7 12 -5 7 5 -4 8 0 5 8 -5 13 -16 13 -22 3 -28 -9 -6 -9 -8 1 -8 9 0 10
-5 3 -17 -5 -11 -6 -24 0 -34 6 -12 3 -24 -11 -41 -12 -14 -19 -18 -20 -9 0
11 -3 11 -15 1 -10 -8 -15 -9 -15 -1 0 7 -8 8 -25 1 -16 -6 -25 -6 -25 1 0 6
-7 6 -20 -1 -14 -8 -20 -8 -20 0 0 8 -6 8 -20 0 -12 -6 -20 -7 -20 -1 0 10
-19 9 -37 -2 -8 -5 -13 -3 -13 3 0 7 -7 7 -22 -1 -15 -8 -23 -9 -26 -1 -2 7
-13 7 -33 2 -18 -5 -29 -5 -29 1 0 6 -8 5 -20 -1 -15 -8 -20 -8 -20 2 0 9 -3
9 -10 -2 -5 -8 -10 -10 -10 -4 0 5 -12 9 -27 8 -24 -1 -28 2 -27 25 0 15 4 33
8 39 4 7 3 12 -2 12 -10 0 -9 30 1 47 4 6 2 15 -4 19 -8 4 -7 9 2 15 12 7 12
9 0 9 -11 0 -11 3 -1 15 7 8 8 15 3 15 -11 0 -11 30 1 49 5 7 4 16 -1 20 -10
7 -11 26 -1 37 4 4 4 12 1 18 -11 17 -12 35 -3 41 5 3 6 13 3 22 -9 23 -8 66
1 81 4 7 4 12 -1 12 -10 0 -9 52 1 68 4 7 4 12 -1 12 -10 0 -9 52 1 68 4 7 2
12 -5 12 -8 0 -8 4 1 15 10 12 10 15 -1 15 -11 1 -10 4 2 13 12 9 76 12 232
11 118 -1 220 -5 225 -8z"/>
<path d="M773 1685 c-42 -13 -113 -72 -113 -94 0 -6 -4 -11 -9 -11 -5 0 -8 -8
-6 -17 1 -10 -2 -26 -7 -36 -6 -12 -6 -23 1 -31 7 -9 7 -16 0 -23 -7 -7 -8
-17 -3 -25 5 -7 9 -19 11 -27 3 -24 26 -72 31 -67 2 3 13 -6 24 -19 24 -30 67
-52 101 -51 15 1 27 -1 27 -5 0 -3 7 -6 15 -6 8 0 15 4 15 8 0 4 9 6 20 4 11
-2 20 1 20 6 0 6 4 8 9 5 5 -3 29 13 54 37 32 29 49 55 57 87 16 60 19 90 9
90 -5 0 -9 5 -9 11 0 5 4 8 9 4 5 -3 2 13 -7 36 -17 43 -75 109 -97 109 -7 0
-15 4 -17 9 -6 15 -92 19 -135 6z"/>
</g>
</svg>
