<?xml version="1.0" standalone="no"?>
<!DOCTYPE svg PUBLIC "-//W3C//DTD SVG 20010904//EN"
 "http://www.w3.org/TR/2001/REC-SVG-20010904/DTD/svg10.dtd">
<svg version="1.0" xmlns="http://www.w3.org/2000/svg"
 width="300.000000pt" height="300.000000pt" viewBox="0 0 300.000000 300.000000"
 preserveAspectRatio="xMidYMid meet">
<metadata>
Created by potrace 1.11, written by Peter Selinger 2001-2013
</metadata>
<g transform="translate(0.000000,300.000000) scale(0.100000,-0.100000)"
fill="#000000" stroke="none">
<path d="M1920 2991 c0 -6 -5 -11 -11 -11 -10 0 -148 -78 -159 -90 -3 -3 -16
-11 -30 -18 -85 -43 -522 -341 -560 -382 -3 -3 -27 -23 -55 -45 -198 -158
-329 -310 -417 -484 -53 -105 -72 -160 -103 -311 -48 -225 -8 -505 102 -725
24 -46 127 -218 145 -240 5 -5 25 -32 45 -60 145 -196 373 -388 575 -484 68
-32 190 -80 218 -86 8 -2 35 -8 60 -15 102 -27 170 -35 325 -35 114 0 157 3
275 20 14 2 36 7 50 13 14 5 27 9 30 9 3 0 32 8 65 18 l60 17 -84 31 c-158 57
-457 223 -547 304 -10 10 -37 31 -58 47 -97 73 -346 352 -379 426 -4 8 -18 33
-32 55 -14 22 -30 51 -36 65 -6 14 -23 52 -38 85 -44 98 -87 229 -96 295 -3
19 -8 46 -11 60 -7 28 -9 43 -19 115 -8 55 -8 283 0 318 2 12 7 39 10 59 13
93 47 208 77 259 18 31 65 79 78 79 5 0 10 4 10 10 0 9 63 24 100 24 37 0 98
-18 130 -37 100 -61 170 -206 188 -387 14 -142 4 -643 -14 -671 -2 -4 -6 -30
-9 -59 -3 -29 -7 -55 -9 -59 -2 -3 -7 -37 -11 -75 -3 -38 -11 -80 -16 -93 -5
-14 -12 -48 -15 -76 -4 -29 -10 -62 -15 -75 -5 -13 -9 -31 -9 -39 0 -32 197
287 253 410 36 79 79 177 82 187 0 3 15 48 32 100 36 113 69 246 78 315 3 28
10 68 14 90 11 49 13 94 13 252 1 262 -68 556 -185 793 -41 82 -57 106 -75
108 -12 2 -22 -1 -22 -7z"/>
</g>
</svg>
