<?xml version="1.0" standalone="no"?>
<!DOCTYPE svg PUBLIC "-//W3C//DTD SVG 20010904//EN"
 "http://www.w3.org/TR/2001/REC-SVG-20010904/DTD/svg10.dtd">
<svg version="1.0" xmlns="http://www.w3.org/2000/svg"
 width="300.000000pt" height="300.000000pt" viewBox="0 0 300.000000 300.000000"
 preserveAspectRatio="xMidYMid meet">
<metadata>
Created by potrace 1.11, written by Peter Selinger 2001-2013
</metadata>
<g transform="translate(0.000000,300.000000) scale(0.100000,-0.100000)"
fill="#000000" stroke="none">
<path d="M1248 2851 c0 -3 -1 -48 -2 -100 l-1 -94 -312 0 c-220 0 -313 -3
-314 -11 -1 -6 -2 -527 -3 -1158 -1 -766 2 -1148 9 -1149 5 -1 147 -2 315 -3
l305 -1 0 -97 c0 -53 3 -99 6 -102 3 -3 21 -1 40 4 19 5 54 12 79 15 25 4 68
11 95 16 28 6 61 12 75 15 14 2 36 7 50 10 14 3 41 8 60 10 19 2 60 9 90 16
30 6 62 12 70 13 17 2 94 15 125 21 11 3 36 7 55 10 19 3 42 7 50 9 8 3 33 7
55 11 22 3 85 14 140 25 55 10 111 20 125 22 l25 4 3 1156 c1 637 -1 1158 -5
1159 -5 0 -19 2 -33 4 -14 1 -36 5 -50 8 -14 3 -50 10 -80 16 -30 6 -65 12
-76 14 -12 2 -37 7 -55 10 -19 3 -45 8 -59 11 -14 3 -41 8 -60 11 -35 5 -70
12 -215 39 -44 8 -93 17 -110 20 -16 3 -41 7 -55 9 -14 3 -52 10 -85 16 -69
12 -83 14 -182 33 -40 8 -74 11 -75 8z"/>
</g>
</svg>
