<?xml version="1.0" standalone="no"?>
<!DOCTYPE svg PUBLIC "-//W3C//DTD SVG 20010904//EN"
 "http://www.w3.org/TR/2001/REC-SVG-20010904/DTD/svg10.dtd">
<svg version="1.0" xmlns="http://www.w3.org/2000/svg"
 width="300.000000pt" height="300.000000pt" viewBox="0 0 300.000000 300.000000"
 preserveAspectRatio="xMidYMid meet">
<metadata>
Created by potrace 1.11, written by Peter Selinger 2001-2013
</metadata>
<g transform="translate(0.000000,300.000000) scale(0.100000,-0.100000)"
fill="#000000" stroke="none">
<path d="M156 2362 c-33 -7 -9 -26 37 -29 26 -2 59 -8 73 -13 54 -21 54 -19
50 -735 -2 -575 -5 -668 -19 -723 -33 -125 -91 -209 -185 -269 -29 -19 -50
-38 -47 -43 10 -15 23 -12 89 21 154 78 290 215 338 343 44 114 47 164 48 741
0 303 3 568 5 590 7 53 34 75 94 75 49 -1 71 -12 89 -47 9 -16 11 -171 9 -580
-2 -500 -4 -562 -19 -596 -9 -20 -24 -38 -32 -38 -9 -1 -20 -3 -26 -4 -5 -1
-23 -3 -40 -4 -18 -1 -30 -6 -30 -15 0 -11 48 -14 280 -14 236 -1 280 2 280
14 0 8 -11 14 -27 15 -77 2 -109 10 -130 35 -13 14 -24 33 -24 42 -1 9 -3 33
-5 52 -7 67 -7 1090 0 1097 3 4 35 8 70 9 130 4 238 -84 276 -225 33 -124 1
-252 -85 -336 -45 -43 -71 -55 -158 -70 -33 -5 -37 -8 -26 -22 10 -12 28 -14
83 -10 151 12 263 74 336 187 115 179 82 404 -73 495 -95 55 -127 58 -693 59
-286 0 -528 -1 -538 -2z"/>
<path d="M1793 2362 c-10 -6 -163 -358 -163 -374 0 -9 172 0 181 9 3 5 23 52
42 105 l35 97 -30 80 c-30 78 -44 96 -65 83z"/>
<path d="M1923 2363 c-8 -3 -9 -11 -3 -26 5 -12 34 -92 65 -177 31 -85 61
-160 68 -167 7 -7 64 -13 152 -17 77 -2 142 -5 144 -5 2 -1 -44 -38 -102 -83
-59 -44 -107 -88 -107 -97 0 -44 252 -566 322 -668 31 -46 92 -86 148 -99 62
-14 329 -12 341 2 8 10 5 14 -13 18 -12 2 -50 9 -83 15 -36 7 -77 23 -105 42
-81 55 -195 231 -285 439 l-48 111 24 17 c134 93 207 226 205 373 -1 66 -6 85
-36 145 -42 82 -93 124 -188 156 -60 19 -90 22 -277 23 -115 1 -215 0 -222 -2z"/>
<path d="M1576 1859 c-160 -375 -344 -824 -340 -831 9 -14 40 -9 65 10 13 10
140 94 282 186 l258 168 248 -186 c136 -102 255 -186 264 -186 10 0 17 8 17
18 0 10 -42 113 -94 228 l-94 209 -119 83 c-65 45 -125 82 -133 82 -8 0 -73
-36 -145 -79 -71 -44 -131 -78 -132 -77 -2 1 8 36 21 77 14 41 34 107 45 146
l20 73 -62 46 c-34 26 -68 51 -74 57 -10 7 -17 0 -27 -24z"/>
<path d="M594 911 c-2 -2 -4 -14 -4 -26 l0 -21 1183 1 1182 0 3 23 c2 13 -2
22 -10 23 -49 3 -2351 3 -2354 0z"/>
<path d="M588 713 c-2 -32 -1 -84 0 -116 l4 -58 36 3 c40 3 55 25 20 30 -19 2
-24 10 -26 40 -3 32 -1 36 17 31 14 -4 21 -1 21 10 0 8 -9 17 -20 20 -15 4
-20 14 -20 36 0 26 4 31 25 31 18 0 23 4 19 15 -4 9 -19 15 -40 15 l-33 0 -3
-57z"/>
<path d="M685 753 c24 -57 28 -102 12 -150 -10 -30 -12 -52 -6 -58 12 -12 30
6 32 34 2 31 14 26 22 -9 4 -16 13 -30 21 -30 18 0 18 6 -2 63 -14 42 -14 51
1 103 9 31 14 58 11 61 -12 12 -35 -8 -39 -34 l-3 -28 -13 33 c-7 17 -20 32
-28 32 -11 0 -13 -5 -8 -17z"/>
<path d="M814 753 c-16 -26 -12 -176 5 -196 17 -21 54 -22 70 -3 15 18 10 78
-6 84 -9 2 -13 -7 -13 -27 0 -16 -5 -33 -11 -36 -20 -13 -23 1 -20 118 1 53
23 63 29 14 2 -15 10 -27 18 -27 18 0 19 61 2 78 -18 18 -62 15 -74 -5z"/>
<path d="M930 656 l0 -116 40 0 c44 0 58 26 18 32 -19 2 -23 9 -23 38 0 24 5
35 15 35 8 0 16 8 18 17 2 12 -2 16 -16 13 -15 -3 -18 3 -18 28 1 22 7 34 19
37 32 9 23 25 -15 28 l-38 3 0 -115z"/>
<path d="M1034 658 l1 -113 38 -3 c28 -2 37 0 37 12 0 9 -9 16 -20 16 -16 0
-20 7 -20 35 0 32 8 40 33 36 5 -1 7 6 5 16 -2 11 -11 17 -21 15 -13 -2 -17 5
-17 33 0 28 4 35 20 35 11 0 20 7 20 15 0 11 -11 15 -38 15 l-39 0 1 -112z"/>
<path d="M1140 655 l0 -115 33 0 c55 0 66 22 64 123 -2 97 -8 107 -64 107
l-33 0 0 -115z m62 73 c3 -11 3 -84 -1 -140 0 -10 -7 -18 -14 -18 -9 0 -12 24
-13 85 -1 61 2 85 11 85 7 0 15 -6 17 -12z"/>
<path d="M1270 655 c0 -103 2 -115 18 -115 16 0 17 11 16 108 -2 129 -1 122
-19 122 -12 0 -15 -19 -15 -115z"/>
<path d="M1340 655 c0 -96 3 -115 15 -115 12 0 15 14 15 68 1 47 3 62 10 51 5
-9 11 -26 13 -38 2 -11 6 -24 10 -27 4 -4 7 -15 7 -25 0 -19 17 -35 27 -25 4
3 7 56 8 116 1 99 -1 110 -17 110 -15 0 -17 -8 -15 -55 2 -31 1 -58 -2 -60 -3
-3 -13 22 -23 55 -12 38 -24 60 -33 60 -12 0 -15 -21 -15 -115z"/>
<path d="M1490 755 c-8 -10 -14 -48 -15 -96 -2 -99 10 -121 63 -116 l36 4 1
52 c1 58 -3 68 -27 68 -19 0 -24 -17 -9 -33 13 -12 1 -66 -13 -61 -16 5 -15
159 2 165 7 2 12 -6 12 -22 0 -19 5 -26 20 -26 20 0 21 14 4 68 -5 17 -59 15
-74 -3z"/>
<path d="M1658 763 c-2 -5 -4 -55 -4 -113 l1 -105 38 -3 c28 -2 37 0 37 12 0
9 -9 16 -20 16 -16 0 -20 7 -20 35 0 32 7 40 33 36 4 0 7 6 7 14 0 8 -9 15
-20 15 -16 0 -20 7 -20 35 0 28 4 35 20 35 11 0 20 7 20 15 0 10 -10 15 -34
15 -19 0 -36 -3 -38 -7z"/>
<path d="M1750 760 c0 -5 7 -28 16 -50 15 -38 15 -45 0 -98 -20 -71 -20 -72
-1 -72 9 0 18 12 22 30 3 17 9 30 13 30 4 0 10 -13 14 -30 3 -19 12 -30 22
-30 11 0 14 6 11 18 -30 91 -31 101 -14 154 9 28 14 54 12 56 -10 10 -35 -9
-35 -27 0 -33 -18 -33 -25 -1 -6 27 -35 44 -35 20z"/>
<path d="M1874 658 c1 -93 4 -113 16 -113 10 0 16 13 18 43 2 32 7 42 21 42
28 0 41 21 41 70 0 56 -12 70 -61 70 l-37 0 2 -112z m62 56 c5 -27 -5 -54 -19
-54 -10 0 -14 49 -8 78 3 12 25 -8 27 -24z"/>
<path d="M1997 763 c-2 -5 -3 -55 -3 -113 l1 -105 38 -3 c28 -2 37 0 37 12 0
9 -9 16 -20 16 -29 0 -29 66 1 75 23 8 20 31 -5 27 -12 -2 -16 5 -16 33 0 28
4 35 20 35 11 0 20 7 20 15 0 10 -10 15 -34 15 -19 0 -37 -3 -39 -7z"/>
<path d="M2109 754 c-17 -21 -16 -178 1 -199 18 -22 57 -18 74 6 12 18 13 65
1 77 -10 11 -25 -13 -25 -39 0 -20 -4 -29 -12 -26 -17 5 -18 159 -1 164 7 3
13 -8 15 -24 2 -16 10 -29 19 -31 13 -2 16 4 14 27 -1 17 -8 38 -15 46 -16 20
-54 19 -71 -1z"/>
<path d="M2210 756 c0 -8 6 -16 13 -19 9 -3 12 -31 12 -101 -2 -87 0 -96 17
-96 16 0 18 10 18 100 0 81 3 100 15 100 9 0 12 6 9 15 -8 20 -84 21 -84 1z"/>
<path d="M2335 758 c-3 -12 -9 -49 -21 -148 -3 -25 -7 -51 -9 -57 -3 -8 4 -13
15 -13 13 0 20 7 20 20 0 27 36 27 43 -1 5 -20 34 -22 30 -2 -1 5 -4 28 -7 50
-5 45 -15 106 -22 141 -5 24 -42 31 -49 10z m37 -140 c-2 -5 -7 -8 -13 -8 -11
0 -12 73 -1 84 7 8 21 -63 14 -76z"/>
<path d="M2420 755 c0 -8 7 -15 15 -15 12 0 15 -18 15 -100 0 -89 2 -100 18
-100 15 0 17 11 17 100 -1 75 2 100 12 100 7 0 13 7 13 15 0 11 -12 15 -45 15
-33 0 -45 -4 -45 -15z"/>
<path d="M2530 655 c0 -106 2 -116 18 -113 15 3 17 16 17 113 0 96 -2 110 -18
113 -15 3 -17 -8 -17 -113z"/>
<path d="M2609 754 c-18 -21 -17 -178 1 -199 19 -22 57 -18 74 8 15 23 17 171
2 195 -11 17 -61 15 -77 -4z m52 -26 c2 -51 0 -151 -5 -155 -2 -3 -9 -2 -15 2
-12 7 -15 147 -4 158 10 11 23 8 24 -5z"/>
<path d="M2729 723 c0 -27 -1 -78 -2 -116 -2 -59 0 -67 16 -67 17 0 18 7 15
65 -3 73 3 73 29 -4 31 -93 43 -78 43 53 0 100 -2 116 -16 116 -14 0 -15 -10
-12 -65 4 -74 -1 -73 -27 8 -24 71 -45 76 -46 10z"/>
<path d="M2872 758 c-22 -22 -13 -65 22 -107 34 -41 41 -76 15 -76 -8 0 -14
10 -14 25 0 34 -29 33 -33 -1 -6 -52 65 -82 89 -38 16 31 4 76 -32 116 -30 34
-33 53 -12 60 6 2 13 -6 15 -18 4 -28 24 -36 30 -12 9 34 -9 63 -40 63 -15 0
-33 -5 -40 -12z"/>
</g>
</svg>
