<?xml version="1.0" standalone="no"?>
<!DOCTYPE svg PUBLIC "-//W3C//DTD SVG 20010904//EN"
 "http://www.w3.org/TR/2001/REC-SVG-20010904/DTD/svg10.dtd">
<svg version="1.0" xmlns="http://www.w3.org/2000/svg"
 width="300.000000pt" height="300.000000pt" viewBox="0 0 300.000000 300.000000"
 preserveAspectRatio="xMidYMid meet">
<metadata>
Created by potrace 1.11, written by Peter Selinger 2001-2013
</metadata>
<g transform="translate(0.000000,300.000000) scale(0.100000,-0.100000)"
fill="#000000" stroke="none">
<path d="M0 1500 l0 -1500 1500 0 1500 0 0 1500 0 1500 -1500 0 -1500 0 0
-1500z m1718 1050 c45 -6 121 -22 169 -36 94 -27 272 -109 279 -129 6 -14 -84
-148 -95 -142 -76 41 -211 99 -261 112 -88 22 -267 30 -360 16 -349 -54 -638
-317 -731 -666 -28 -104 -31 -307 -6 -407 70 -283 244 -498 500 -618 260 -122
584 -108 821 35 32 19 62 33 66 30 5 -3 29 -34 54 -70 l45 -64 -27 -20 c-53
-37 -189 -100 -272 -125 -247 -73 -530 -56 -753 47 -321 148 -548 438 -613
784 -24 129 -15 345 20 471 51 185 139 334 276 473 47 47 112 104 145 126 226
151 485 215 743 183z m-238 -616 c75 -22 162 -109 184 -184 36 -122 16 -184
-127 -388 -59 -84 -107 -155 -107 -158 0 -2 63 -4 140 -4 l141 0 -58 -85 -58
-84 -254 -1 c-241 0 -253 1 -239 18 34 38 379 543 388 567 33 87 -16 155 -110
155 -49 0 -96 -40 -106 -89 l-6 -31 -89 0 -88 0 5 33 c19 106 54 167 123 213
84 55 164 67 261 38z m610 -444 l0 -460 -90 0 -90 0 0 370 0 370 -76 0 c-42 0
-74 4 -72 9 2 5 28 45 58 90 l55 80 108 1 107 0 0 -460z m104 -445 c-4 -8 -11
-15 -16 -15 -6 0 -5 6 2 15 7 8 14 15 16 15 2 0 1 -7 -2 -15z"/>
</g>
</svg>
