<?xml version="1.0" standalone="no"?>
<!DOCTYPE svg PUBLIC "-//W3C//DTD SVG 20010904//EN"
 "http://www.w3.org/TR/2001/REC-SVG-20010904/DTD/svg10.dtd">
<svg version="1.0" xmlns="http://www.w3.org/2000/svg"
 width="300.000000pt" height="300.000000pt" viewBox="0 0 300.000000 300.000000"
 preserveAspectRatio="xMidYMid meet">
<metadata>
Created by potrace 1.11, written by Peter Selinger 2001-2013
</metadata>
<g transform="translate(0.000000,300.000000) scale(0.100000,-0.100000)"
fill="#000000" stroke="none">
<path d="M1048 2617 c-257 -155 -583 -352 -725 -437 l-258 -156 -3 -952 -2
-953 37 5 c35 5 163 21 243 31 19 2 62 7 95 10 33 3 76 8 95 11 19 2 67 7 105
9 39 3 95 7 125 10 30 3 91 8 135 10 44 2 143 7 220 11 280 15 975 8 1160 -12
22 -2 72 -6 110 -9 39 -2 88 -6 110 -9 22 -3 69 -8 105 -11 36 -3 76 -8 90
-10 14 -2 45 -7 70 -10 25 -3 56 -7 70 -10 14 -2 42 -7 63 -10 l37 -5 -2 937
-3 937 -120 77 c-66 43 -131 84 -145 92 -32 18 -193 120 -200 127 -3 3 -14 10
-25 17 -25 15 -182 114 -593 377 -178 113 -324 206 -325 205 -1 0 -212 -127
-469 -282z m739 -31 c139 -89 264 -168 278 -176 14 -8 187 -118 385 -245 l360
-230 0 -55 c1 -78 1 -1317 0 -1478 l0 -133 -42 5 c-108 13 -126 15 -168 20
-90 10 -147 15 -225 21 -44 3 -100 8 -125 10 -263 24 -1027 24 -1325 0 -22 -2
-83 -6 -135 -10 -153 -10 -292 -22 -350 -30 -62 -9 -169 -18 -214 -19 l-49 -1
1 110 c0 61 1 441 1 845 l1 735 382 230 c210 127 511 307 668 402 156 94 289
169 295 166 5 -3 124 -78 262 -167z"/>
<path d="M1421 2550 c-46 -27 -89 -54 -95 -60 -14 -14 -16 -1119 -2 -1127 17
-11 1346 -9 1349 2 2 6 3 124 3 263 l-1 252 -350 219 c-632 396 -802 501 -811
501 -5 0 -47 -23 -93 -50z"/>
<path d="M980 2292 c-91 -54 -218 -129 -283 -167 -64 -39 -177 -105 -250 -147
l-132 -78 -1 -270 c0 -183 3 -270 10 -271 65 -5 811 -2 819 3 9 5 12 146 12
518 0 280 -2 510 -5 510 -3 0 -79 -44 -170 -98z"/>
<path d="M317 1203 c-7 -15 -2 -823 6 -824 8 -1 119 10 157 16 14 3 48 7 75 9
28 3 75 8 105 11 97 10 130 13 400 30 25 2 55 4 68 4 l22 1 0 380 0 380 -414
0 c-228 0 -417 -3 -419 -7z"/>
<path d="M1316 1191 c-1 -3 -2 -170 -2 -371 2 -295 4 -364 15 -362 19 4 512 2
611 -3 127 -6 290 -15 330 -20 19 -2 67 -6 105 -10 99 -9 139 -13 258 -30 l47
-7 0 134 c1 409 -1 661 -5 668 -5 9 -1354 10 -1359 1z"/>
</g>
</svg>
