<?xml version="1.0" standalone="no"?>
<!DOCTYPE svg PUBLIC "-//W3C//DTD SVG 20010904//EN"
 "http://www.w3.org/TR/2001/REC-SVG-20010904/DTD/svg10.dtd">
<svg version="1.0" xmlns="http://www.w3.org/2000/svg"
 width="300.000000pt" height="300.000000pt" viewBox="0 0 300.000000 300.000000"
 preserveAspectRatio="xMidYMid meet">
<metadata>
Created by potrace 1.11, written by Peter Selinger 2001-2013
</metadata>
<g transform="translate(0.000000,300.000000) scale(0.100000,-0.100000)"
fill="#000000" stroke="none">
<path d="M1350 2793 c-19 -2 -64 -11 -100 -19 -36 -9 -76 -18 -90 -20 -115
-22 -335 -133 -460 -233 -56 -44 -176 -165 -210 -209 -14 -19 -30 -39 -36 -45
-21 -24 -114 -182 -114 -194 0 -7 -4 -13 -8 -13 -4 0 -8 -10 -9 -22 -1 -11 -6
-24 -11 -27 -10 -7 -63 -154 -67 -186 -1 -11 -3 -20 -4 -20 -2 0 -4 -11 -7
-25 -6 -34 -14 -79 -21 -115 -9 -47 -6 -347 3 -354 5 -3 9 -19 8 -36 0 -16 4
-43 8 -60 5 -16 11 -39 13 -51 8 -35 42 -136 61 -179 10 -22 18 -42 19 -45 3
-17 56 -107 104 -180 53 -80 212 -251 276 -297 102 -74 131 -93 142 -93 6 0
13 -3 15 -8 4 -9 157 -84 198 -97 62 -19 97 -30 105 -31 6 -1 12 -3 15 -4 6
-2 24 -6 60 -14 67 -16 137 -21 265 -21 177 0 233 9 410 63 99 30 296 136 385
207 73 58 222 221 273 299 57 85 144 256 150 293 1 10 5 23 8 28 5 8 22 70 35
128 1 4 2 8 4 10 11 14 25 172 24 287 0 123 -7 181 -37 306 -25 105 -120 334
-138 334 -5 0 -9 5 -9 11 0 9 -63 107 -99 153 -47 59 -195 199 -261 245 -79
56 -238 140 -305 161 -22 7 -46 17 -52 23 -7 5 -13 7 -13 4 0 -3 -15 -1 -32 5
-18 5 -40 11 -48 12 -21 4 -91 18 -115 23 -29 6 -293 11 -335 6z m292 -87
c107 -15 234 -47 296 -74 20 -8 40 -15 45 -14 4 1 7 -3 7 -10 0 -6 3 -9 6 -5
3 3 27 -6 52 -21 26 -14 56 -31 67 -36 182 -99 382 -320 478 -526 31 -67 60
-137 63 -150 0 -3 4 -17 8 -31 4 -14 9 -34 11 -45 2 -10 4 -19 5 -19 1 0 3
-10 6 -22 2 -13 6 -33 8 -45 3 -13 5 -23 6 -23 4 0 11 -123 11 -200 0 -85 -4
-138 -16 -195 -2 -14 -7 -36 -9 -50 -41 -221 -181 -469 -360 -637 -42 -40 -81
-73 -87 -73 -5 0 -9 -4 -9 -8 0 -4 -15 -16 -32 -27 -18 -10 -35 -21 -38 -24
-6 -7 -37 -25 -106 -62 -117 -61 -269 -109 -399 -125 -70 -9 -250 -9 -315 0
-25 4 -56 8 -70 10 -14 2 -32 6 -40 9 -8 3 -42 13 -75 22 -61 18 -81 25 -170
65 -57 25 -160 86 -190 112 -11 9 -23 18 -27 18 -9 1 -172 161 -209 205 -45
54 -104 148 -146 230 -22 44 -40 82 -41 85 0 3 -5 18 -11 33 -6 16 -11 34 -11
41 0 7 -3 16 -7 20 -4 3 -8 12 -9 19 -1 7 -6 30 -12 52 -6 22 -14 63 -18 90
-3 28 -8 59 -10 70 -6 28 -5 234 1 270 5 31 14 83 21 125 3 14 9 40 15 58 6
18 12 39 13 45 4 27 41 113 50 119 6 4 8 8 3 8 -17 0 83 172 151 260 39 49
212 220 223 220 4 0 14 6 21 13 21 21 184 117 198 117 8 0 21 6 29 13 22 19
152 61 226 73 17 3 44 9 60 13 17 4 55 9 85 10 30 2 56 4 57 5 4 4 154 -2 195
-8z"/>
<path d="M1477 2664 c-1 -1 -33 -4 -72 -7 -76 -7 -181 -24 -205 -34 -19 -8
-29 -10 -59 -17 -13 -3 -42 -14 -65 -24 -22 -11 -59 -27 -81 -37 -110 -49
-272 -173 -365 -281 -80 -92 -210 -308 -210 -349 0 -8 -5 -15 -11 -15 -5 0 -7
-5 -4 -10 4 -6 1 -17 -5 -25 -7 -8 -10 -15 -7 -15 3 0 -1 -16 -9 -35 -8 -19
-12 -35 -9 -35 2 0 0 -12 -5 -26 -24 -61 -33 -341 -16 -444 4 -25 9 -54 11
-65 2 -11 8 -32 14 -48 6 -15 8 -27 5 -27 -4 0 -1 -7 6 -15 7 -8 9 -15 5 -15
-4 0 -2 -7 5 -15 7 -8 9 -15 5 -15 -4 0 -3 -6 2 -12 5 -7 18 -35 28 -63 30
-81 124 -234 173 -282 12 -12 22 -25 22 -28 0 -11 111 -114 170 -158 30 -23
57 -45 60 -48 3 -4 44 -27 92 -53 94 -50 262 -109 343 -121 28 -4 59 -9 70
-11 72 -14 355 3 388 23 5 3 17 7 26 8 40 4 92 18 97 26 3 5 12 9 21 9 44 0
266 128 351 203 109 96 272 301 272 341 0 8 4 16 8 18 19 7 96 219 108 298 3
19 10 55 14 80 9 50 6 295 -5 350 -11 55 -13 65 -15 70 -1 3 -3 10 -5 15 -1 6
-3 13 -5 18 -3 8 -4 12 -14 57 -10 46 -124 280 -137 280 -5 0 -9 5 -9 11 0 16
-104 144 -155 192 -124 118 -323 240 -445 273 -49 13 -139 35 -160 39 -54 9
-217 23 -223 19z m-212 -608 c68 -9 120 -24 188 -52 l57 -24 40 20 c21 11 46
20 54 20 8 0 21 6 28 13 7 6 24 13 38 13 48 3 105 10 115 15 19 10 263 -1 342
-15 10 -2 51 -9 91 -16 40 -7 75 -17 77 -24 10 -27 -10 -240 -22 -244 -8 -2
-13 6 -13 22 0 13 -5 28 -10 31 -6 4 -8 10 -5 15 3 5 0 19 -7 32 -52 90 -179
138 -368 140 -55 0 -155 -7 -155 -12 0 -1 -11 -3 -25 -6 -33 -6 -110 -42 -110
-52 0 -4 23 -29 50 -57 28 -27 53 -58 56 -67 3 -10 10 -18 15 -18 6 0 7 -4 4
-10 -3 -5 -2 -10 4 -10 5 0 19 -26 31 -57 38 -101 44 -136 43 -258 0 -55 -3
-113 -7 -130 -22 -99 -59 -173 -120 -245 -26 -30 -43 -57 -39 -61 19 -17 102
-58 143 -70 62 -17 68 -18 129 -23 29 -3 55 -7 58 -10 3 -2 16 -1 30 5 17 6
22 6 17 -2 -4 -8 0 -8 15 0 11 7 21 9 21 7 0 -3 19 2 42 10 76 27 75 23 75
225 1 100 -3 196 -8 214 -10 34 -31 46 -81 49 -15 0 -33 7 -39 14 -11 10 -7
12 16 13 17 1 39 1 50 1 11 -1 65 -1 120 -1 155 1 189 -1 199 -11 6 -6 6 -10
1 -11 -14 -1 -45 -7 -70 -13 -39 -10 -45 -45 -45 -263 1 -181 -1 -207 -16
-224 -18 -20 -109 -52 -186 -65 -53 -10 -292 -10 -333 -1 -16 4 -42 9 -57 12
-51 9 -171 57 -219 86 -119 74 -205 197 -245 352 -25 98 -20 255 10 342 31 88
113 222 148 244 16 10 24 9 44 -4 38 -25 38 -36 -1 -100 -31 -52 -37 -68 -34
-91 0 -4 -3 -10 -9 -13 -14 -10 -29 -126 -26 -206 6 -117 51 -255 110 -333
l26 -34 20 34 c11 18 23 35 27 38 13 10 58 112 66 150 2 8 7 33 12 55 5 22 8
81 7 130 -3 97 -5 113 -18 133 -4 7 -5 16 -2 19 3 3 1 12 -5 20 -6 7 -9 13 -5
13 16 0 -59 125 -102 168 -70 72 -130 99 -267 118 -120 17 -262 -1 -359 -46
-53 -24 -106 -81 -112 -123 -3 -18 -7 -41 -9 -52 -2 -11 -4 -26 -4 -32 -2 -26
-20 -12 -26 20 -9 49 -11 248 -3 253 4 3 20 7 35 8 50 7 117 17 162 26 25 4
50 6 58 3 7 -3 13 -1 13 4 0 10 199 9 275 -1z m-515 -968 c43 -119 122 -161
299 -160 53 1 105 3 117 6 53 11 130 37 151 51 13 9 23 13 23 9 0 -4 6 -2 13
4 9 7 25 -2 61 -34 28 -24 44 -45 38 -45 -17 -2 -23 -4 -57 -18 -16 -7 -37
-14 -45 -16 -8 -2 -37 -9 -65 -15 -60 -15 -329 -22 -379 -10 -25 5 -36 4 -36
-4 0 -7 -3 -7 -8 -1 -4 6 -15 11 -26 13 -69 12 -89 38 -110 142 -23 119 -24
129 -12 134 6 2 12 5 12 5 1 1 12 -27 24 -61z"/>
</g>
</svg>
