<?xml version="1.0" standalone="no"?>
<!DOCTYPE svg PUBLIC "-//W3C//DTD SVG 20010904//EN"
 "http://www.w3.org/TR/2001/REC-SVG-20010904/DTD/svg10.dtd">
<svg version="1.0" xmlns="http://www.w3.org/2000/svg"
 width="300.000000pt" height="300.000000pt" viewBox="0 0 300.000000 300.000000"
 preserveAspectRatio="xMidYMid meet">
<metadata>
Created by potrace 1.11, written by Peter Selinger 2001-2013
</metadata>
<g transform="translate(0.000000,300.000000) scale(0.100000,-0.100000)"
fill="#000000" stroke="none">
<path d="M1875 2219 c-67 -23 -114 -55 -162 -108 -62 -69 -62 -71 3 -139 32
-34 61 -62 65 -62 4 0 11 12 17 28 25 74 114 132 201 132 52 0 109 -19 135
-45 15 -15 21 -14 74 16 101 57 98 51 55 93 -21 20 -66 51 -101 68 -83 41
-195 48 -287 17z"/>
<path d="M1405 2086 c-33 -35 -151 -158 -261 -273 -111 -114 -217 -225 -236
-245 -39 -42 -44 -44 -62 -25 -18 17 -105 89 -127 105 -17 11 -48 -17 -314
-283 -162 -163 -295 -297 -295 -299 0 -2 244 -3 542 -2 l543 1 0 108 c0 59 -2
107 -5 107 -4 0 -20 -15 -38 -33 -24 -24 -32 -42 -32 -68 l0 -35 -405 0 c-223
1 -405 3 -405 6 0 3 90 95 199 204 l199 199 83 -71 c46 -38 86 -67 89 -62 3 4
96 102 206 216 111 115 244 253 295 307 l95 99 251 -259 c138 -142 295 -304
350 -360 54 -57 103 -103 109 -103 5 0 56 36 113 80 56 44 104 80 106 80 2 0
27 -30 56 -67 30 -38 56 -70 59 -73 10 -10 150 -188 150 -192 0 -2 -187 -3
-415 -4 l-415 0 0 36 c0 28 -8 44 -33 68 -18 18 -35 32 -37 32 -4 0 -5 -146
-1 -201 1 -15 51 -16 536 -16 294 0 535 2 535 4 0 5 -81 109 -122 158 -9 11
-78 97 -153 190 -75 94 -140 171 -145 173 -5 2 -57 -35 -117 -82 l-108 -85
-188 192 c-103 106 -263 270 -355 365 -92 94 -171 172 -177 172 -6 0 -37 -29
-70 -64z"/>
<path d="M1958 2030 c-67 -19 -122 -75 -133 -135 -5 -27 2 -38 82 -118 48 -48
95 -92 102 -97 18 -11 76 12 110 43 56 51 72 148 36 217 -17 34 -69 78 -98 85
-48 11 -73 12 -99 5z"/>
<path d="M1264 1596 c-274 -280 -246 -244 -226 -289 l17 -39 213 214 213 215
211 -214 c117 -117 215 -213 219 -213 4 0 13 17 22 37 l14 37 -230 233 c-127
128 -234 233 -237 233 -4 0 -101 -96 -216 -214z"/>
<path d="M2119 1676 c-18 -13 -44 -26 -57 -30 -22 -7 -20 -11 42 -74 l64 -66
39 26 c21 14 50 38 66 53 l27 28 -27 17 c-16 9 -48 28 -74 43 l-45 27 -35 -24z"/>
<path d="M1379 1367 c-1 -1 -3 -23 -4 -48 l-2 -46 41 3 c22 1 44 2 48 3 4 1 6
20 4 44 -3 42 -3 42 -45 44 -22 1 -42 1 -42 0z"/>
<path d="M1499 1367 c0 -1 -2 -19 -4 -40 -3 -43 6 -52 58 -52 l37 -1 0 46 0
46 -45 1 c-25 1 -45 1 -46 0z"/>
<path d="M1382 1241 c-5 -3 -8 -24 -8 -46 l1 -40 44 0 c44 0 44 1 46 35 1 19
0 40 -4 45 -7 11 -65 15 -79 6z"/>
<path d="M1495 1206 c2 -23 4 -44 4 -47 1 -4 21 -6 46 -5 l46 1 -3 45 -3 45
-46 0 -46 1 2 -40z"/>
</g>
</svg>
