<?xml version="1.0" standalone="no"?>
<!DOCTYPE svg PUBLIC "-//W3C//DTD SVG 20010904//EN"
 "http://www.w3.org/TR/2001/REC-SVG-20010904/DTD/svg10.dtd">
<svg version="1.0" xmlns="http://www.w3.org/2000/svg"
 width="300.000000pt" height="300.000000pt" viewBox="0 0 300.000000 300.000000"
 preserveAspectRatio="xMidYMid meet">
<metadata>
Created by potrace 1.11, written by Peter Selinger 2001-2013
</metadata>
<g transform="translate(0.000000,300.000000) scale(0.100000,-0.100000)"
fill="#000000" stroke="none">
<path d="M1410 2601 c-140 -55 -455 -176 -700 -271 -245 -95 -461 -177 -480
-182 -62 -18 -130 -60 -136 -85 -10 -38 13 -79 56 -98 45 -20 129 -15 240 16
38 10 76 19 83 19 11 0 13 -123 13 -694 0 -522 3 -700 13 -722 14 -35 185
-161 238 -176 32 -9 213 -4 271 7 9 1 60 6 112 10 52 3 113 8 135 11 22 2 72
6 110 9 79 5 168 13 235 20 25 2 79 7 120 10 41 4 95 8 120 10 25 2 79 6 120
10 41 3 95 8 120 10 42 4 82 8 240 20 154 12 203 34 242 108 l23 42 1 613 c1
337 3 614 5 617 2 2 49 6 104 9 132 8 151 13 175 43 43 55 17 95 -97 153 -37
19 -198 104 -358 190 -159 86 -337 181 -395 212 -118 63 -196 105 -287 154
-34 19 -63 34 -65 34 -1 -1 -118 -45 -258 -99z m358 -620 c22 -1 23 -2 20
-113 l-3 -113 -148 0 c-122 0 -148 -3 -151 -15 -2 -8 -4 -91 -3 -185 l2 -170
120 -2 c66 -1 136 -2 155 -2 l35 -1 1 -114 0 -114 -56 -4 c-30 -2 -125 -3
-210 -3 -142 0 -159 2 -202 23 -106 52 -184 168 -205 302 -41 264 93 487 304
508 55 6 196 7 341 3z m271 -307 c66 -19 117 -71 136 -138 15 -52 15 -67 0
-131 -10 -39 -50 -92 -87 -115 l-29 -17 38 -20 c53 -28 83 -88 83 -168 0 -108
-35 -169 -117 -207 -43 -19 -72 -23 -253 -33 -52 -3 -132 -8 -177 -11 l-83 -6
0 121 c0 67 3 122 8 122 15 3 232 16 289 18 22 1 22 2 20 183 l-2 183 -150 1
c-82 1 -153 2 -156 3 -4 1 -5 193 0 224 2 14 428 7 480 -9z"/>
<path d="M1236 191 c-10 -11 -23 -18 -29 -14 -6 3 -7 1 -3 -6 4 -6 12 -8 18
-5 7 5 8 2 3 -6 -6 -10 -3 -12 13 -8 12 4 20 2 17 -2 -3 -5 -1 -11 5 -15 9 -5
14 6 12 26 -1 3 6 6 14 6 10 0 11 -4 4 -11 -17 -17 -11 -29 7 -15 9 8 14 9 10
2 -4 -6 -1 -14 5 -17 7 -3 1 -3 -14 -1 -16 2 -28 -1 -28 -6 0 -9 17 -14 35 -9
6 2 18 2 28 2 9 0 17 4 17 9 0 6 -5 7 -12 3 -6 -4 -8 -3 -4 4 3 5 0 13 -6 15
-10 4 -10 6 0 6 7 1 20 -12 31 -29 10 -16 21 -27 24 -23 10 9 9 25 -1 19 -4
-2 -9 5 -9 16 -2 20 -1 20 16 2 10 -11 16 -26 14 -34 -4 -13 -3 -13 5 -1 6 8
8 20 6 26 -3 7 2 15 11 19 13 5 14 10 5 26 -13 25 -54 25 -84 0 -18 -14 -18
-14 -6 10 12 22 11 24 -2 13 -8 -7 -19 -9 -23 -5 -5 4 -5 -2 -1 -12 5 -16 4
-17 -9 -6 -8 7 -15 9 -15 4 0 -5 -8 1 -18 14 l-18 23 -18 -20z m28 -6 c4 -10
-1 -15 -16 -15 -17 0 -18 2 -8 15 7 8 14 15 15 15 2 0 5 -7 9 -15z m98 -27
c-7 -7 -12 -8 -12 -2 0 14 12 26 19 19 2 -3 -1 -11 -7 -17z m48 7 c0 -8 -4
-15 -9 -15 -13 0 -22 16 -14 24 11 11 23 6 23 -9z"/>
<path d="M1426 198 c3 -5 10 -6 15 -3 13 9 11 12 -6 12 -8 0 -12 -4 -9 -9z"/>
<path d="M1485 200 c-3 -5 -1 -10 4 -10 6 0 11 5 11 10 0 6 -2 10 -4 10 -3 0
-8 -4 -11 -10z"/>
<path d="M1526 197 c3 -10 3 -17 -2 -16 -20 3 -35 -2 -30 -10 4 -5 -4 -7 -16
-3 -16 4 -19 2 -13 -8 5 -9 4 -11 -4 -6 -9 6 -9 11 1 24 11 13 11 14 -2 10 -8
-2 -15 -12 -15 -20 0 -8 -6 -23 -14 -32 -8 -10 -9 -16 -3 -16 7 0 9 -7 5 -17
-4 -11 -3 -14 6 -9 7 5 10 14 7 22 -3 7 0 16 6 20 6 4 8 3 4 -4 -3 -6 -2 -13
4 -17 6 -4 8 -10 6 -14 -3 -4 2 -8 10 -8 10 0 11 4 4 11 -15 15 -12 33 6 40
11 4 18 -1 21 -14 5 -19 16 -25 38 -20 28 7 51 5 64 -4 12 -9 13 -8 6 3 -6 11
-4 13 9 8 10 -4 15 -3 11 3 -9 15 5 12 22 -5 16 -16 33 -12 33 8 0 8 -3 8 -9
-1 -7 -11 -9 -11 -14 0 -4 11 4 14 34 13 44 -2 46 1 22 28 -10 11 -12 17 -5
13 6 -4 12 -2 12 4 0 7 -8 9 -21 5 -14 -5 -19 -4 -15 4 5 7 1 9 -8 5 -9 -3
-16 -10 -16 -16 0 -5 4 -7 9 -4 5 3 14 -1 21 -9 9 -10 9 -15 1 -15 -6 0 -11 5
-11 11 0 8 -6 7 -17 -2 -11 -10 -14 -10 -9 -1 4 6 3 12 -3 12 -5 0 -11 -8 -13
-17 -3 -15 -5 -14 -10 4 -3 13 -2 21 4 20 6 -1 13 5 15 13 4 12 3 12 -5 2 -5
-8 -12 -13 -16 -13 -20 3 -26 0 -20 -11 4 -7 3 -8 -5 -4 -8 6 -9 12 -2 20 8 9
7 13 -4 13 -8 0 -12 -4 -9 -9 3 -4 0 -8 -7 -8 -8 0 -9 -4 0 -13 8 -10 7 -14
-4 -14 -8 0 -12 4 -10 7 3 4 -7 8 -20 8 -14 0 -25 -4 -25 -9 0 -5 -4 -9 -8 -9
-5 0 -9 7 -9 15 0 8 4 12 8 9 13 -8 22 17 10 29 -9 9 -11 8 -5 -6z m59 -59 c5
4 5 1 1 -6 -5 -9 -12 -9 -27 -2 -10 6 -19 13 -19 16 0 2 8 0 19 -5 10 -6 22
-7 26 -3z m45 8 c0 -2 -7 -9 -15 -16 -13 -11 -14 -10 -9 4 5 14 24 23 24 12z
m-92 -31 c-3 -3 -9 2 -12 12 -6 14 -5 15 5 6 7 -7 10 -15 7 -18z"/>
<path d="M1561 193 c-7 -8 -11 -16 -8 -19 2 -2 10 2 17 11 17 20 9 27 -9 8z"/>
<path d="M1780 195 c5 -7 6 -16 2 -20 -4 -5 -1 -5 6 0 11 6 12 3 3 -13 -15
-29 -14 -37 4 -22 8 7 13 16 10 19 -2 4 2 8 10 8 8 0 15 -4 15 -9 0 -5 5 -6
11 -2 8 4 7 9 -2 16 -11 8 -11 9 1 5 8 -2 13 -12 12 -22 -3 -17 -2 -17 15 -4
16 13 17 12 5 -3 -8 -9 -20 -14 -28 -11 -9 3 -14 -1 -13 -13 0 -13 2 -14 6 -5
5 11 7 11 14 0 6 -10 9 -11 9 -1 0 6 5 12 11 12 5 0 7 -4 4 -10 -3 -5 -1 -10
5 -10 7 0 10 7 7 15 -4 8 -2 17 4 20 5 4 6 12 3 18 -4 7 -4 9 1 5 4 -4 17 -3
28 3 15 9 18 8 12 -2 -5 -8 -4 -10 3 -5 19 11 14 25 -8 23 -11 -1 -20 -4 -20
-8 0 -18 -80 7 -80 25 0 6 -5 3 -11 -7 -6 -9 -15 -15 -20 -12 -5 4 -7 10 -5
14 3 4 -1 8 -9 8 -10 0 -12 -4 -5 -12z"/>
<path d="M1755 173 c10 -16 12 -22 4 -15 -18 17 -34 15 -19 -3 6 -8 9 -19 6
-24 -4 -6 2 -14 12 -20 16 -8 18 -5 16 27 -2 50 -2 49 -20 56 -15 6 -15 3 1
-21z"/>
<path d="M896 177 c3 -10 9 -15 12 -12 3 3 0 11 -7 18 -10 9 -11 8 -5 -6z"/>
<path d="M1053 170 c-5 -21 -25 -29 -20 -9 1 6 -5 14 -13 16 -13 4 -13 3 0 -6
8 -6 13 -11 10 -12 -3 0 -15 -2 -28 -5 -13 -2 -21 0 -18 5 3 5 -1 11 -9 14
-10 4 -12 1 -8 -11 6 -15 5 -16 -12 -2 -15 12 -17 12 -10 1 6 -11 4 -13 -10
-7 -18 7 -18 6 0 -14 21 -23 26 -25 19 -7 -3 8 2 14 10 14 10 0 14 -9 11 -29
-2 -15 0 -26 5 -23 5 3 6 13 3 22 -5 13 -2 13 21 -2 15 -10 26 -14 25 -9 -3
19 1 34 11 34 5 0 8 -6 6 -12 -1 -7 -1 -10 1 -5 3 4 13 7 24 7 13 0 17 -5 12
-17 -5 -16 -4 -15 9 1 10 13 17 15 22 8 13 -22 25 -12 21 18 -2 17 1 30 6 30
5 0 9 -10 9 -22 0 -47 5 -66 13 -61 5 3 6 11 3 19 -3 7 -1 16 4 19 6 4 10 12
9 18 0 9 -2 9 -6 0 -2 -7 -9 -13 -15 -13 -7 0 -7 5 1 13 6 8 10 16 8 18 -1 3
6 -3 15 -14 9 -10 20 -17 23 -17 4 1 9 -1 12 -4 3 -3 -4 -4 -16 -1 -11 2 -21
0 -21 -4 0 -5 11 -8 25 -8 14 0 25 3 25 8 0 13 -38 49 -51 49 -5 0 -7 6 -3 13
5 8 2 8 -9 -2 -9 -7 -17 -9 -17 -4 0 5 -10 10 -22 10 -13 1 -18 -1 -13 -5 16
-11 16 -30 0 -36 -9 -3 -12 0 -9 8 3 7 -2 16 -11 20 -9 3 -14 2 -10 -3 3 -5 2
-11 -2 -14 -5 -2 -1 -2 7 0 11 3 12 1 3 -8 -16 -16 -35 -1 -28 22 4 10 3 19 0
19 -4 0 -9 -9 -12 -20z m-38 -48 c-8 -8 -25 10 -19 20 4 6 9 5 15 -3 4 -7 6
-15 4 -17z"/>
<path d="M1952 170 c-6 -11 -18 -17 -25 -14 -8 3 -19 -1 -25 -9 -10 -12 -8
-13 13 -9 15 2 25 0 23 -6 -2 -5 2 -10 7 -11 6 -1 10 3 10 8 0 5 3 13 8 17 7
7 10 -6 8 -36 0 -11 1 -11 5 -2 5 10 9 10 22 0 10 -8 13 -9 9 -1 -11 18 12 26
30 11 15 -12 15 -11 0 12 -27 38 -19 48 11 15 15 -17 24 -26 20 -21 -15 18 -8
28 9 15 11 -10 14 -10 9 -1 -4 6 -2 12 3 12 6 0 11 4 11 9 0 10 -19 9 -37 -2
-16 -10 -17 5 -1 21 9 9 9 12 0 12 -7 0 -12 -4 -12 -10 0 -5 -5 -10 -11 -10
-5 0 -7 4 -4 10 3 6 -1 7 -9 4 -9 -3 -16 -12 -16 -20 0 -8 -4 -14 -10 -14 -5
0 -9 3 -7 8 1 4 -2 8 -7 9 -5 1 -12 6 -15 12 -4 6 -11 3 -19 -9z m35 -14 c-1
-6 6 -10 16 -10 14 2 15 -1 6 -12 -10 -12 -14 -11 -26 6 -13 18 -17 19 -31 8
-15 -11 -15 -11 -5 3 14 18 43 21 40 5z"/>
<path d="M2107 170 c3 -11 15 -17 34 -18 31 -1 46 12 28 24 -8 4 -9 3 -5 -4 4
-7 1 -12 -9 -12 -10 0 -13 5 -9 13 5 7 0 6 -11 -3 -17 -13 -18 -13 -13 1 4 9
1 16 -7 16 -7 0 -10 -8 -8 -17z"/>
<path d="M2335 181 c-3 -5 -2 -12 3 -15 5 -3 9 1 9 9 0 17 -3 19 -12 6z"/>
<path d="M815 170 c-4 -6 -12 -7 -18 -4 -7 4 -9 4 -5 -1 4 -4 4 -13 -2 -19 -6
-8 -3 -12 9 -12 12 0 17 5 13 15 -3 8 -1 12 5 8 5 -3 10 0 10 8 0 18 -3 19
-12 5z"/>
<path d="M2205 170 c-16 -7 -17 -9 -3 -9 9 -1 20 4 23 9 7 11 7 11 -20 0z"/>
<path d="M2279 167 c8 -9 16 -15 19 -12 3 3 12 -1 21 -8 14 -11 14 -10 2 6 -8
9 -16 15 -19 12 -3 -3 -12 1 -21 8 -14 11 -14 10 -2 -6z"/>
<path d="M847 160 c10 -10 9 -16 -4 -25 -13 -10 -14 -13 -2 -20 8 -5 11 -5 7
0 -4 4 -1 13 8 20 14 10 14 12 -3 25 -14 11 -16 11 -6 0z"/>
<path d="M2235 160 c-3 -5 -1 -10 4 -10 6 0 11 5 11 10 0 6 -2 10 -4 10 -3 0
-8 -4 -11 -10z"/>
<path d="M711 147 c-8 -10 -7 -14 2 -14 8 0 14 6 14 14 0 7 -1 13 -2 13 -2 0
-8 -6 -14 -13z"/>
<path d="M746 142 c-3 -5 1 -9 9 -9 8 0 12 4 9 9 -3 4 -7 8 -9 8 -2 0 -6 -4
-9 -8z"/>
<path d="M880 135 c-11 -13 -11 -18 0 -28 10 -9 11 -9 5 1 -4 8 0 19 11 27 11
8 14 15 8 15 -6 0 -17 -7 -24 -15z"/>
<path d="M1802 138 c-16 -16 -15 -25 5 -32 10 -4 14 -4 11 0 -4 4 -3 15 3 25
11 21 -1 25 -19 7z"/>
<path d="M2175 141 c-3 -5 0 -13 6 -17 7 -4 9 -3 5 4 -3 5 0 13 6 15 9 4 10 6
1 6 -6 1 -14 -3 -18 -8z"/>
<path d="M1236 126 c3 -9 11 -16 16 -16 13 0 5 23 -10 28 -7 2 -10 -2 -6 -12z"/>
<path d="M1486 131 c-4 -7 -5 -15 -2 -18 9 -9 19 4 14 18 -4 11 -6 11 -12 0z"/>
<path d="M2097 121 c-4 -17 -3 -21 5 -13 5 5 8 16 6 23 -3 8 -7 3 -11 -10z"/>
<path d="M2131 124 c0 -11 3 -14 6 -6 3 7 2 16 -1 19 -3 4 -6 -2 -5 -13z"/>
<path d="M906 122 c-3 -5 1 -9 9 -9 8 0 15 4 15 9 0 4 -4 8 -9 8 -6 0 -12 -4
-15 -8z"/>
<path d="M1706 114 c-4 -9 -4 -19 -1 -22 3 -3 5 0 5 7 0 9 6 9 23 1 20 -10 20
-10 5 3 -10 8 -15 17 -11 20 3 4 2 7 -4 7 -6 0 -14 -7 -17 -16z"/>
<path d="M1905 121 c-6 -11 13 -26 22 -17 4 3 1 6 -6 6 -7 0 -9 5 -6 10 3 6 4
10 1 10 -3 0 -7 -4 -11 -9z"/>
<path d="M815 100 c-3 -5 -1 -10 4 -10 6 0 11 5 11 10 0 6 -2 10 -4 10 -3 0
-8 -4 -11 -10z"/>
</g>
</svg>
